<svg width="848" height="532" viewBox="0 0 848 532" fill="none" xmlns="http://www.w3.org/2000/svg">
<path d="M341.181 58.6602C352.072 -64.9453 174.875 44.274 140.732 73.0462C106.59 101.818 158.354 197.725 158.354 197.725C72.5939 191.234 283.909 281.643 186.99 267.257C90.0696 252.871 105.16 474.345 198.003 531H677.096C677.096 531 833.49 519.012 845.604 454.275C855.443 401.701 812.336 90.8575 745.38 158.163C678.425 225.469 647.359 87.4325 647.359 87.4325C573.19 -133.829 330.289 182.266 341.181 58.6602Z" fill="#FAF1F1" stroke="#CFACAC"/>
<rect width="275" height="6.20956" transform="matrix(1 0 0 -1 492 441.292)" fill="#3C3143" fill-opacity="0.59"/>
<rect x="492" y="216.506" width="275" height="168.9" fill="#302F34"/>
<rect x="612.577" y="385.406" width="23.2692" height="39.7412" fill="#302F34"/>
<rect x="603.058" y="425.147" width="40.1923" height="9.93529" fill="#302F34"/>
<rect x="501.519" y="227.683" width="254.904" height="145.304" fill="#FAF1F1"/>
<rect x="597.212" y="289.037" width="146.019" height="66.0632" rx="4.5" fill="#FAF1F1" stroke="#585656"/>
<path d="M743.202 296.609H597.769C597.408 291.938 598.016 290.339 600.413 289.158H738.442C742.235 289.73 743.192 291.463 743.202 296.609Z" fill="#585656" stroke="#585656"/>
<ellipse cx="614.163" cy="292.883" rx="1.58654" ry="1.86287" fill="white"/>
<ellipse cx="614.163" cy="292.883" rx="1.58654" ry="1.86287" fill="white"/>
<ellipse cx="603.587" cy="292.883" rx="1.58654" ry="1.86287" fill="white"/>
<ellipse cx="608.875" cy="292.883" rx="1.58654" ry="1.86287" fill="white"/>
<rect x="619.981" y="291.021" width="116.346" height="3.72573" fill="white"/>
<path d="M642.886 323.248L652.056 326.954V329.825L640.074 324.273V322.135L652.056 316.598V319.469L642.886 323.248ZM664.317 334.513H661.988L670.894 311.353H673.209L664.317 334.513ZM693.174 323.16L683.492 319.366V316.583L696.002 322.12V324.259L683.492 329.81V326.998L693.174 323.16Z" fill="#3C3143" fill-opacity="0.59"/>
<rect x="515.769" y="238.118" width="146.019" height="66.0632" rx="4.5" fill="#FAF1F1" stroke="#585656"/>
<path d="M661.76 245.691H516.327C515.966 241.02 516.574 239.421 518.971 238.239H657C660.793 238.811 661.749 240.544 661.76 245.691Z" fill="#585656" stroke="#585656"/>
<ellipse cx="532.721" cy="241.965" rx="1.58654" ry="1.86287" fill="white"/>
<ellipse cx="532.721" cy="241.965" rx="1.58654" ry="1.86287" fill="white"/>
<ellipse cx="522.144" cy="241.965" rx="1.58654" ry="1.86287" fill="white"/>
<ellipse cx="527.433" cy="241.965" rx="1.58654" ry="1.86287" fill="white"/>
<rect x="538.538" y="240.102" width="116.346" height="3.72573" fill="white"/>
<rect x="523.731" y="253.763" width="108.942" height="3.72573" fill="#F7CBE5"/>
<rect x="523.731" y="284.811" width="108.942" height="3.72573" fill="#C2DAC9"/>
<rect x="523.731" y="293.504" width="116.346" height="3.72573" fill="#3C3143" fill-opacity="0.59"/>
<rect x="523.731" y="261.215" width="84.6154" height="3.72573" fill="#3C3143" fill-opacity="0.59"/>
<rect x="523.731" y="268.666" width="89.9038" height="3.72573" fill="#C2DAC9"/>
<rect x="523.731" y="276.118" width="84.6154" height="3.72573" fill="#C4C4C4"/>
<path d="M364 229.395L363.5 240.737H365" stroke="black"/>
<rect x="2.5" y="58.5" width="357" height="272.374" fill="#FAF1F1" stroke="#302F34" stroke-width="5"/>
<rect x="264.43" y="177.954" width="72.4" height="41.606" fill="#C2DAC9" fill-opacity="0.78"/>
<path d="M285.786 197.31H283.615V201.049H282.39V191.807H285.449C286.49 191.807 287.29 192.044 287.849 192.518C288.412 192.992 288.693 193.682 288.693 194.587C288.693 195.163 288.536 195.664 288.223 196.092C287.914 196.519 287.483 196.838 286.928 197.05L289.099 200.973V201.049H287.792L285.786 197.31ZM283.615 196.314H285.487C286.093 196.314 286.573 196.157 286.928 195.844C287.288 195.531 287.468 195.112 287.468 194.587C287.468 194.016 287.297 193.578 286.954 193.273C286.615 192.969 286.124 192.814 285.481 192.81H283.615V196.314ZM293.073 201.176C292.142 201.176 291.384 200.871 290.8 200.262C290.216 199.648 289.924 198.83 289.924 197.805V197.59C289.924 196.908 290.054 196.301 290.312 195.768C290.574 195.23 290.938 194.811 291.404 194.511C291.873 194.206 292.381 194.054 292.927 194.054C293.82 194.054 294.514 194.348 295.009 194.936C295.504 195.524 295.752 196.367 295.752 197.463V197.951H291.099C291.116 198.628 291.313 199.177 291.689 199.595C292.07 200.01 292.552 200.218 293.136 200.218C293.551 200.218 293.902 200.133 294.19 199.964C294.478 199.794 294.73 199.57 294.945 199.291L295.663 199.849C295.087 200.734 294.224 201.176 293.073 201.176ZM292.927 195.019C292.453 195.019 292.055 195.192 291.734 195.539C291.412 195.882 291.213 196.365 291.137 196.987H294.577V196.898C294.543 196.301 294.383 195.84 294.095 195.514C293.807 195.184 293.418 195.019 292.927 195.019ZM301.357 201.049C301.289 200.914 301.234 200.672 301.192 200.325C300.646 200.892 299.994 201.176 299.237 201.176C298.559 201.176 298.003 200.986 297.567 200.605C297.135 200.22 296.92 199.733 296.92 199.145C296.92 198.43 297.19 197.875 297.732 197.482C298.278 197.084 299.044 196.885 300.03 196.885H301.173V196.345C301.173 195.935 301.05 195.609 300.804 195.368C300.559 195.122 300.197 195 299.719 195C299.3 195 298.949 195.106 298.665 195.317C298.382 195.529 298.24 195.785 298.24 196.085H297.059C297.059 195.742 297.18 195.412 297.421 195.095C297.667 194.773 297.997 194.519 298.411 194.333C298.83 194.147 299.289 194.054 299.789 194.054C300.58 194.054 301.2 194.253 301.649 194.651C302.097 195.044 302.33 195.588 302.347 196.282V199.443C302.347 200.074 302.427 200.575 302.588 200.948V201.049H301.357ZM299.408 200.154C299.776 200.154 300.125 200.059 300.455 199.868C300.785 199.678 301.024 199.43 301.173 199.126V197.717H300.252C298.813 197.717 298.094 198.138 298.094 198.98C298.094 199.348 298.217 199.636 298.462 199.843C298.708 200.05 299.023 200.154 299.408 200.154ZM306.943 200.218C307.362 200.218 307.728 200.091 308.041 199.837C308.354 199.583 308.527 199.265 308.561 198.885H309.672C309.651 199.278 309.515 199.653 309.266 200.008C309.016 200.364 308.682 200.647 308.263 200.859C307.848 201.07 307.408 201.176 306.943 201.176C306.007 201.176 305.263 200.865 304.708 200.243C304.158 199.617 303.883 198.762 303.883 197.678V197.482C303.883 196.813 304.006 196.219 304.251 195.698C304.497 195.177 304.848 194.773 305.305 194.486C305.766 194.198 306.31 194.054 306.936 194.054C307.706 194.054 308.345 194.285 308.853 194.746C309.365 195.207 309.638 195.806 309.672 196.542H308.561C308.527 196.098 308.358 195.734 308.053 195.45C307.753 195.163 307.381 195.019 306.936 195.019C306.34 195.019 305.876 195.235 305.546 195.666C305.22 196.094 305.057 196.714 305.057 197.526V197.748C305.057 198.54 305.22 199.149 305.546 199.576C305.872 200.004 306.337 200.218 306.943 200.218ZM312.586 192.518V194.181H313.868V195.089H312.586V199.348C312.586 199.623 312.643 199.83 312.757 199.97C312.871 200.105 313.066 200.173 313.341 200.173C313.476 200.173 313.663 200.148 313.9 200.097V201.049C313.591 201.134 313.29 201.176 312.998 201.176C312.473 201.176 312.078 201.017 311.811 200.7C311.545 200.383 311.411 199.932 311.411 199.348V195.089H310.161V194.181H311.411V192.518H312.586Z" fill="black"/>
<path d="M273.48 175.874L263.445 191.713" stroke="black" stroke-width="3"/>
<line y1="-1.5" x2="18.0532" y2="-1.5" transform="matrix(-0.534716 0.845032 -0.767259 -0.641338 336.83 205.691)" stroke="black" stroke-width="3"/>
<rect x="229.233" y="260.473" width="72.4" height="41.606" fill="#C4C4C4" fill-opacity="0.78"/>
<path d="M245.062 279.769H241.19L240.32 282.181H239.064L242.593 272.939H243.659L247.195 282.181H245.944L245.062 279.769ZM241.558 278.766H244.7L243.126 274.443L241.558 278.766ZM249.366 275.313L249.404 276.176C249.929 275.516 250.614 275.186 251.461 275.186C252.912 275.186 253.644 276.005 253.657 277.642V282.181H252.483V277.636C252.478 277.141 252.364 276.775 252.14 276.538C251.92 276.301 251.575 276.182 251.105 276.182C250.724 276.182 250.39 276.284 250.102 276.487C249.814 276.69 249.59 276.957 249.429 277.287V282.181H248.255V275.313H249.366ZM255.149 278.69C255.149 277.619 255.396 276.768 255.891 276.138C256.386 275.503 257.042 275.186 257.859 275.186C258.697 275.186 259.351 275.482 259.82 276.074L259.878 275.313H260.95V282.016C260.95 282.904 260.686 283.605 260.157 284.117C259.632 284.629 258.925 284.885 258.037 284.885C257.542 284.885 257.057 284.779 256.583 284.568C256.109 284.356 255.747 284.066 255.498 283.698L256.107 282.993C256.611 283.615 257.226 283.926 257.954 283.926C258.526 283.926 258.97 283.766 259.287 283.444C259.609 283.122 259.77 282.67 259.77 282.086V281.495C259.3 282.037 258.659 282.308 257.846 282.308C257.042 282.308 256.391 281.984 255.891 281.337C255.396 280.689 255.149 279.807 255.149 278.69ZM256.329 278.823C256.329 279.597 256.488 280.207 256.805 280.651C257.123 281.091 257.567 281.311 258.138 281.311C258.879 281.311 259.423 280.975 259.77 280.302V277.166C259.41 276.51 258.87 276.182 258.151 276.182C257.58 276.182 257.133 276.404 256.812 276.849C256.49 277.293 256.329 277.951 256.329 278.823ZM266.968 281.502C266.511 282.039 265.84 282.308 264.956 282.308C264.224 282.308 263.665 282.096 263.28 281.673C262.899 281.246 262.707 280.615 262.702 279.781V275.313H263.877V279.75C263.877 280.791 264.3 281.311 265.146 281.311C266.043 281.311 266.64 280.977 266.936 280.308V275.313H268.11V282.181H266.993L266.968 281.502ZM271.176 282.181H270.002V272.431H271.176V282.181ZM277.302 282.181C277.234 282.045 277.179 281.804 277.137 281.457C276.591 282.024 275.939 282.308 275.182 282.308C274.505 282.308 273.948 282.117 273.512 281.737C273.081 281.351 272.865 280.865 272.865 280.277C272.865 279.561 273.136 279.007 273.677 278.613C274.223 278.216 274.989 278.017 275.975 278.017H277.118V277.477C277.118 277.067 276.995 276.741 276.75 276.5C276.504 276.254 276.142 276.132 275.664 276.132C275.245 276.132 274.894 276.237 274.61 276.449C274.327 276.661 274.185 276.917 274.185 277.217H273.005C273.005 276.874 273.125 276.544 273.366 276.227C273.612 275.905 273.942 275.651 274.357 275.465C274.776 275.279 275.235 275.186 275.734 275.186C276.525 275.186 277.145 275.385 277.594 275.782C278.042 276.176 278.275 276.72 278.292 277.414V280.575C278.292 281.205 278.373 281.707 278.533 282.079V282.181H277.302ZM275.353 281.286C275.721 281.286 276.07 281.191 276.401 281C276.731 280.81 276.97 280.562 277.118 280.258V278.848H276.197C274.759 278.848 274.039 279.269 274.039 280.112C274.039 280.48 274.162 280.767 274.407 280.975C274.653 281.182 274.968 281.286 275.353 281.286ZM283.453 276.366C283.275 276.337 283.082 276.322 282.875 276.322C282.105 276.322 281.582 276.65 281.307 277.306V282.181H280.133V275.313H281.276L281.295 276.106C281.68 275.493 282.226 275.186 282.932 275.186C283.161 275.186 283.334 275.215 283.453 275.275V276.366Z" fill="black"/>
<path d="M236.073 257.699L226.039 273.538" stroke="black" stroke-width="3"/>
<line y1="-1.5" x2="18.0532" y2="-1.5" transform="matrix(-0.534716 0.845032 -0.767259 -0.641338 301.633 286.823)" stroke="black" stroke-width="3"/>
<rect x="209.737" y="101.069" width="71.3821" height="40.256" fill="#DE4949" fill-opacity="0.78"/>
<path d="M237.797 112.062H239.023V118.606C239.023 119.491 238.756 120.183 238.223 120.682C237.694 121.181 236.987 121.431 236.103 121.431C235.184 121.431 234.469 121.196 233.957 120.727C233.445 120.257 233.189 119.599 233.189 118.752H234.408C234.408 119.281 234.552 119.694 234.839 119.99C235.131 120.286 235.552 120.435 236.103 120.435C236.606 120.435 237.012 120.276 237.321 119.958C237.635 119.641 237.793 119.197 237.797 118.625V112.062ZM243.821 117.185C242.776 116.884 242.014 116.516 241.536 116.08C241.062 115.64 240.825 115.098 240.825 114.455C240.825 113.727 241.115 113.126 241.695 112.652C242.279 112.174 243.036 111.935 243.967 111.935C244.602 111.935 245.167 112.058 245.662 112.303C246.162 112.549 246.547 112.887 246.817 113.319C247.093 113.75 247.23 114.222 247.23 114.734H246.005C246.005 114.176 245.827 113.738 245.472 113.42C245.116 113.099 244.615 112.938 243.967 112.938C243.366 112.938 242.897 113.071 242.558 113.338C242.224 113.6 242.057 113.966 242.057 114.436C242.057 114.813 242.215 115.132 242.533 115.395C242.854 115.653 243.398 115.89 244.164 116.105C244.934 116.321 245.535 116.56 245.967 116.823C246.403 117.081 246.724 117.383 246.932 117.73C247.143 118.077 247.249 118.486 247.249 118.956C247.249 119.705 246.957 120.306 246.373 120.758C245.789 121.207 245.008 121.431 244.031 121.431C243.396 121.431 242.804 121.311 242.253 121.069C241.703 120.824 241.278 120.49 240.978 120.066C240.681 119.643 240.533 119.163 240.533 118.625H241.758C241.758 119.184 241.964 119.626 242.374 119.952C242.789 120.274 243.341 120.435 244.031 120.435C244.674 120.435 245.167 120.303 245.51 120.041C245.853 119.779 246.024 119.421 246.024 118.968C246.024 118.515 245.865 118.166 245.548 117.921C245.231 117.671 244.655 117.426 243.821 117.185Z" fill="black"/>
<path d="M216.266 99.5962L209.027 110.81" stroke="black" stroke-width="3"/>
<line y1="-1.5" x2="12.851" y2="-1.5" transform="matrix(-0.541913 0.840434 -0.773157 -0.634215 281.119 131.506)" stroke="black" stroke-width="3"/>
<path d="M29.5469 94.1605L33.2148 95.6429V96.7913L28.4219 94.5706V93.7151L33.2148 91.5003V92.6487L29.5469 94.1605ZM36.0098 92.3616C36.4902 91.7718 37.1152 91.4769 37.8848 91.4769C39.2246 91.4769 39.9004 92.2327 39.9121 93.7444V97.9339H38.8281V93.7386C38.8242 93.2816 38.7188 92.9437 38.5117 92.7249C38.3086 92.5062 37.9902 92.3968 37.5566 92.3968C37.2051 92.3968 36.8965 92.4905 36.6309 92.678C36.3652 92.8655 36.1582 93.1116 36.0098 93.4163V97.9339H34.9258V88.9339H36.0098V92.3616ZM43.0059 90.0589V91.5941H44.1895V92.4319H43.0059V96.3636C43.0059 96.6175 43.0586 96.8089 43.1641 96.9378C43.2695 97.0628 43.4492 97.1253 43.7031 97.1253C43.8281 97.1253 44 97.1019 44.2188 97.055V97.9339C43.9336 98.012 43.6562 98.0511 43.3867 98.0511C42.9023 98.0511 42.5371 97.9046 42.291 97.6116C42.0449 97.3187 41.9219 96.9026 41.9219 96.3636V92.4319H40.7676V91.5941H41.9219V90.0589H43.0059ZM46.4805 91.5941L46.5098 92.2972C46.9746 91.7503 47.6016 91.4769 48.3906 91.4769C49.2773 91.4769 49.8809 91.8167 50.2012 92.4964C50.4121 92.1917 50.6855 91.9456 51.0215 91.7581C51.3613 91.5706 51.7617 91.4769 52.2227 91.4769C53.6133 91.4769 54.3203 92.2132 54.3438 93.6859V97.9339H53.2598V93.7503C53.2598 93.2972 53.1562 92.9593 52.9492 92.7366C52.7422 92.5101 52.3945 92.3968 51.9062 92.3968C51.5039 92.3968 51.1699 92.5179 50.9043 92.7601C50.6387 92.9984 50.4844 93.3206 50.4414 93.7269V97.9339H49.3516V93.7796C49.3516 92.8577 48.9004 92.3968 47.998 92.3968C47.2871 92.3968 46.8008 92.6995 46.5391 93.305V97.9339H45.4551V91.5941H46.4805ZM57.1621 97.9339H56.0781V88.9339H57.1621V97.9339ZM62.7402 94.1253L58.8672 92.6077V91.4944L63.8711 93.7093V94.5648L58.8672 96.7855V95.6605L62.7402 94.1253ZM81.9648 223.166C82.3516 223.166 82.6895 223.049 82.9785 222.815C83.2676 222.58 83.4277 222.287 83.459 221.936H84.4844C84.4648 222.299 84.3398 222.645 84.1094 222.973C83.8789 223.301 83.5703 223.563 83.1836 223.758C82.8008 223.953 82.3945 224.051 81.9648 224.051C81.1016 224.051 80.4141 223.764 79.9023 223.19C79.3945 222.612 79.1406 221.823 79.1406 220.823V220.641C79.1406 220.024 79.2539 219.475 79.4805 218.994C79.707 218.514 80.0312 218.141 80.4531 217.875C80.8789 217.61 81.3809 217.477 81.959 217.477C82.6699 217.477 83.2598 217.69 83.7285 218.116C84.2012 218.541 84.4531 219.094 84.4844 219.774H83.459C83.4277 219.364 83.2715 219.028 82.9902 218.766C82.7129 218.5 82.3691 218.367 81.959 218.367C81.4082 218.367 80.9805 218.567 80.6758 218.965C80.375 219.36 80.2246 219.932 80.2246 220.682V220.887C80.2246 221.617 80.375 222.18 80.6758 222.575C80.9766 222.969 81.4062 223.166 81.9648 223.166ZM85.416 220.705C85.416 220.084 85.5371 219.526 85.7793 219.03C86.0254 218.534 86.3652 218.151 86.7988 217.881C87.2363 217.612 87.7344 217.477 88.293 217.477C89.1562 217.477 89.8535 217.776 90.3848 218.373C90.9199 218.971 91.1875 219.766 91.1875 220.758V220.834C91.1875 221.451 91.0684 222.006 90.8301 222.498C90.5957 222.987 90.2578 223.367 89.8164 223.641C89.3789 223.914 88.875 224.051 88.3047 224.051C87.4453 224.051 86.748 223.752 86.2129 223.155C85.6816 222.557 85.416 221.766 85.416 220.782V220.705ZM86.5059 220.834C86.5059 221.537 86.668 222.102 86.9922 222.528C87.3203 222.953 87.7578 223.166 88.3047 223.166C88.8555 223.166 89.293 222.951 89.6172 222.522C89.9414 222.088 90.1035 221.483 90.1035 220.705C90.1035 220.01 89.9375 219.448 89.6055 219.018C89.2773 218.584 88.8398 218.367 88.293 218.367C87.7578 218.367 87.3262 218.58 86.998 219.006C86.6699 219.432 86.5059 220.041 86.5059 220.834ZM92.2832 220.711C92.2832 219.739 92.5137 218.957 92.9746 218.367C93.4355 217.774 94.0391 217.477 94.7852 217.477C95.5273 217.477 96.1152 217.731 96.5488 218.239V214.934H97.6328V223.934H96.6367L96.584 223.254C96.1504 223.785 95.5469 224.051 94.7734 224.051C94.0391 224.051 93.4395 223.75 92.9746 223.149C92.5137 222.547 92.2832 221.762 92.2832 220.793V220.711ZM93.3672 220.834C93.3672 221.553 93.5156 222.116 93.8125 222.522C94.1094 222.928 94.5195 223.131 95.043 223.131C95.7305 223.131 96.2324 222.823 96.5488 222.205V219.293C96.2246 218.696 95.7266 218.397 95.0547 218.397C94.5234 218.397 94.1094 218.602 93.8125 219.012C93.5156 219.422 93.3672 220.03 93.3672 220.834ZM100.498 223.934H99.4141V217.594H100.498V223.934ZM99.3262 215.912C99.3262 215.737 99.3789 215.588 99.4844 215.467C99.5938 215.346 99.7539 215.285 99.9648 215.285C100.176 215.285 100.336 215.346 100.445 215.467C100.555 215.588 100.609 215.737 100.609 215.912C100.609 216.088 100.555 216.235 100.445 216.352C100.336 216.469 100.176 216.528 99.9648 216.528C99.7539 216.528 99.5938 216.469 99.4844 216.352C99.3789 216.235 99.3262 216.088 99.3262 215.912ZM103.264 217.594L103.299 218.391C103.783 217.782 104.416 217.477 105.197 217.477C106.537 217.477 107.213 218.233 107.225 219.744V223.934H106.141V219.739C106.137 219.282 106.031 218.944 105.824 218.725C105.621 218.506 105.303 218.397 104.869 218.397C104.518 218.397 104.209 218.491 103.943 218.678C103.678 218.866 103.471 219.112 103.322 219.416V223.934H102.238V217.594H103.264ZM108.602 220.711C108.602 219.723 108.83 218.938 109.287 218.356C109.744 217.77 110.35 217.477 111.104 217.477C111.877 217.477 112.48 217.75 112.914 218.297L112.967 217.594H113.957V223.782C113.957 224.602 113.713 225.248 113.225 225.721C112.74 226.194 112.088 226.43 111.268 226.43C110.811 226.43 110.363 226.332 109.926 226.137C109.488 225.942 109.154 225.674 108.924 225.334L109.486 224.684C109.951 225.258 110.52 225.545 111.191 225.545C111.719 225.545 112.129 225.397 112.422 225.1C112.719 224.803 112.867 224.385 112.867 223.846V223.301C112.434 223.801 111.842 224.051 111.092 224.051C110.35 224.051 109.748 223.752 109.287 223.155C108.83 222.557 108.602 221.742 108.602 220.711ZM109.691 220.834C109.691 221.549 109.838 222.112 110.131 222.522C110.424 222.928 110.834 223.131 111.361 223.131C112.045 223.131 112.547 222.821 112.867 222.2V219.305C112.535 218.7 112.037 218.397 111.373 218.397C110.846 218.397 110.434 218.602 110.137 219.012C109.84 219.422 109.691 220.03 109.691 220.834ZM29.5469 276.16L33.2148 277.643V278.791L28.4219 276.571V275.715L33.2148 273.5V274.649L29.5469 276.16ZM35.1426 280.666H34.2109L37.7734 271.403H38.6992L35.1426 280.666ZM40.9551 274.362C41.4355 273.772 42.0605 273.477 42.8301 273.477C44.1699 273.477 44.8457 274.233 44.8574 275.744V279.934H43.7734V275.739C43.7695 275.282 43.6641 274.944 43.457 274.725C43.2539 274.506 42.9355 274.397 42.502 274.397C42.1504 274.397 41.8418 274.491 41.5762 274.678C41.3105 274.866 41.1035 275.112 40.9551 275.416V279.934H39.8711V270.934H40.9551V274.362ZM47.9512 272.059V273.594H49.1348V274.432H47.9512V278.364C47.9512 278.617 48.0039 278.809 48.1094 278.938C48.2148 279.063 48.3945 279.125 48.6484 279.125C48.7734 279.125 48.9453 279.102 49.1641 279.055V279.934C48.8789 280.012 48.6016 280.051 48.332 280.051C47.8477 280.051 47.4824 279.905 47.2363 279.612C46.9902 279.319 46.8672 278.903 46.8672 278.364V274.432H45.7129V273.594H46.8672V272.059H47.9512ZM51.4258 273.594L51.4551 274.297C51.9199 273.75 52.5469 273.477 53.3359 273.477C54.2227 273.477 54.8262 273.817 55.1465 274.496C55.3574 274.192 55.6309 273.946 55.9668 273.758C56.3066 273.571 56.707 273.477 57.168 273.477C58.5586 273.477 59.2656 274.213 59.2891 275.686V279.934H58.2051V275.75C58.2051 275.297 58.1016 274.959 57.8945 274.737C57.6875 274.51 57.3398 274.397 56.8516 274.397C56.4492 274.397 56.1152 274.518 55.8496 274.76C55.584 274.998 55.4297 275.321 55.3867 275.727V279.934H54.2969V275.78C54.2969 274.858 53.8457 274.397 52.9434 274.397C52.2324 274.397 51.7461 274.7 51.4844 275.305V279.934H50.4004V273.594H51.4258ZM62.1074 279.934H61.0234V270.934H62.1074V279.934ZM67.6855 276.125L63.8125 274.608V273.494L68.8164 275.709V276.565L63.8125 278.785V277.66L67.6855 276.125Z" fill="#E46E6E"/>
<path d="M59.8809 136.594V139.934H58.7559V131.403H61.9023C62.8359 131.403 63.5664 131.641 64.0938 132.117C64.625 132.594 64.8906 133.225 64.8906 134.01C64.8906 134.838 64.6309 135.477 64.1113 135.926C63.5957 136.371 62.8555 136.594 61.8906 136.594H59.8809ZM59.8809 135.674H61.9023C62.5039 135.674 62.9648 135.534 63.2852 135.252C63.6055 134.967 63.7656 134.557 63.7656 134.022C63.7656 133.514 63.6055 133.108 63.2852 132.803C62.9648 132.498 62.5254 132.34 61.9668 132.328H59.8809V135.674ZM65.7871 136.705C65.7871 136.084 65.9082 135.526 66.1504 135.03C66.3965 134.534 66.7363 134.151 67.1699 133.881C67.6074 133.612 68.1055 133.477 68.6641 133.477C69.5273 133.477 70.2246 133.776 70.7559 134.373C71.291 134.971 71.5586 135.766 71.5586 136.758V136.834C71.5586 137.451 71.4395 138.006 71.2012 138.498C70.9668 138.987 70.6289 139.367 70.1875 139.641C69.75 139.914 69.2461 140.051 68.6758 140.051C67.8164 140.051 67.1191 139.752 66.584 139.155C66.0527 138.557 65.7871 137.766 65.7871 136.782V136.705ZM66.877 136.834C66.877 137.537 67.0391 138.102 67.3633 138.528C67.6914 138.953 68.1289 139.166 68.6758 139.166C69.2266 139.166 69.6641 138.951 69.9883 138.522C70.3125 138.088 70.4746 137.483 70.4746 136.705C70.4746 136.01 70.3086 135.448 69.9766 135.018C69.6484 134.584 69.2109 134.367 68.6641 134.367C68.1289 134.367 67.6973 134.58 67.3691 135.006C67.041 135.432 66.877 136.041 66.877 136.834ZM75.9824 134.567C75.8184 134.539 75.6406 134.526 75.4492 134.526C74.7383 134.526 74.2559 134.828 74.002 135.434V139.934H72.918V133.594H73.9727L73.9902 134.326C74.3457 133.76 74.8496 133.477 75.502 133.477C75.7129 133.477 75.873 133.504 75.9824 133.559V134.567ZM78.748 132.059V133.594H79.9316V134.432H78.748V138.364C78.748 138.617 78.8008 138.809 78.9062 138.938C79.0117 139.063 79.1914 139.125 79.4453 139.125C79.5703 139.125 79.7422 139.102 79.9609 139.055V139.934C79.6758 140.012 79.3984 140.051 79.1289 140.051C78.6445 140.051 78.2793 139.905 78.0332 139.612C77.7871 139.319 77.6641 138.903 77.6641 138.364V134.432H76.5098V133.594H77.6641V132.059H78.748ZM81.7363 139.934V134.432H80.7344V133.594H81.7363V132.944C81.7363 132.264 81.918 131.739 82.2812 131.367C82.6445 130.996 83.1582 130.811 83.8223 130.811C84.0723 130.811 84.3203 130.844 84.5664 130.91L84.5078 131.789C84.3242 131.754 84.1289 131.737 83.9219 131.737C83.5703 131.737 83.2988 131.84 83.1074 132.047C82.916 132.25 82.8203 132.543 82.8203 132.926V133.594H84.1738V134.432H82.8203V139.934H81.7363ZM85.0879 136.705C85.0879 136.084 85.209 135.526 85.4512 135.03C85.6973 134.534 86.0371 134.151 86.4707 133.881C86.9082 133.612 87.4062 133.477 87.9648 133.477C88.8281 133.477 89.5254 133.776 90.0566 134.373C90.5918 134.971 90.8594 135.766 90.8594 136.758V136.834C90.8594 137.451 90.7402 138.006 90.502 138.498C90.2676 138.987 89.9297 139.367 89.4883 139.641C89.0508 139.914 88.5469 140.051 87.9766 140.051C87.1172 140.051 86.4199 139.752 85.8848 139.155C85.3535 138.557 85.0879 137.766 85.0879 136.782V136.705ZM86.1777 136.834C86.1777 137.537 86.3398 138.102 86.6641 138.528C86.9922 138.953 87.4297 139.166 87.9766 139.166C88.5273 139.166 88.9648 138.951 89.2891 138.522C89.6133 138.088 89.7754 137.483 89.7754 136.705C89.7754 136.01 89.6094 135.448 89.2773 135.018C88.9492 134.584 88.5117 134.367 87.9648 134.367C87.4297 134.367 86.998 134.58 86.6699 135.006C86.3418 135.432 86.1777 136.041 86.1777 136.834ZM93.3965 139.934H92.3125V130.934H93.3965V139.934ZM96.3145 139.934H95.2305V133.594H96.3145V139.934ZM95.1426 131.912C95.1426 131.737 95.1953 131.588 95.3008 131.467C95.4102 131.346 95.5703 131.285 95.7812 131.285C95.9922 131.285 96.1523 131.346 96.2617 131.467C96.3711 131.588 96.4258 131.737 96.4258 131.912C96.4258 132.088 96.3711 132.235 96.2617 132.352C96.1523 132.469 95.9922 132.528 95.7812 132.528C95.5703 132.528 95.4102 132.469 95.3008 132.352C95.1953 132.235 95.1426 132.088 95.1426 131.912ZM97.7676 136.705C97.7676 136.084 97.8887 135.526 98.1309 135.03C98.377 134.534 98.7168 134.151 99.1504 133.881C99.5879 133.612 100.086 133.477 100.645 133.477C101.508 133.477 102.205 133.776 102.736 134.373C103.271 134.971 103.539 135.766 103.539 136.758V136.834C103.539 137.451 103.42 138.006 103.182 138.498C102.947 138.987 102.609 139.367 102.168 139.641C101.73 139.914 101.227 140.051 100.656 140.051C99.7969 140.051 99.0996 139.752 98.5645 139.155C98.0332 138.557 97.7676 137.766 97.7676 136.782V136.705ZM98.8574 136.834C98.8574 137.537 99.0195 138.102 99.3438 138.528C99.6719 138.953 100.109 139.166 100.656 139.166C101.207 139.166 101.645 138.951 101.969 138.522C102.293 138.088 102.455 137.483 102.455 136.705C102.455 136.01 102.289 135.448 101.957 135.018C101.629 134.584 101.191 134.367 100.645 134.367C100.109 134.367 99.6777 134.58 99.3496 135.006C99.0215 135.432 98.8574 136.041 98.8574 136.834ZM82.1055 209.934H80.9746V205.991H76.6738V209.934H75.5488V201.403H76.6738V205.071H80.9746V201.403H82.1055V209.934ZM86.5645 210.051C85.7051 210.051 85.0059 209.77 84.4668 209.207C83.9277 208.641 83.6582 207.885 83.6582 206.94V206.741C83.6582 206.112 83.7773 205.551 84.0156 205.059C84.2578 204.563 84.5938 204.176 85.0234 203.899C85.457 203.617 85.9258 203.477 86.4297 203.477C87.2539 203.477 87.8945 203.748 88.3516 204.291C88.8086 204.834 89.0371 205.612 89.0371 206.623V207.075H84.7422C84.7578 207.7 84.9395 208.205 85.2871 208.592C85.6387 208.975 86.084 209.166 86.623 209.166C87.0059 209.166 87.3301 209.088 87.5957 208.932C87.8613 208.776 88.0938 208.569 88.293 208.311L88.9551 208.826C88.4238 209.643 87.627 210.051 86.5645 210.051ZM86.4297 204.367C85.9922 204.367 85.625 204.528 85.3281 204.848C85.0312 205.164 84.8477 205.61 84.7773 206.184H87.9531V206.102C87.9219 205.551 87.7734 205.125 87.5078 204.825C87.2422 204.52 86.8828 204.367 86.4297 204.367ZM91.4746 209.934H90.3906V200.934H91.4746V209.934ZM94.3926 209.934H93.3086V200.934H94.3926V209.934ZM95.8457 206.705C95.8457 206.084 95.9668 205.526 96.209 205.03C96.4551 204.534 96.7949 204.151 97.2285 203.881C97.666 203.612 98.1641 203.477 98.7227 203.477C99.5859 203.477 100.283 203.776 100.814 204.373C101.35 204.971 101.617 205.766 101.617 206.758V206.834C101.617 207.451 101.498 208.006 101.26 208.498C101.025 208.987 100.688 209.367 100.246 209.641C99.8086 209.914 99.3047 210.051 98.7344 210.051C97.875 210.051 97.1777 209.752 96.6426 209.155C96.1113 208.557 95.8457 207.766 95.8457 206.782V206.705ZM96.9355 206.834C96.9355 207.537 97.0977 208.102 97.4219 208.528C97.75 208.953 98.1875 209.166 98.7344 209.166C99.2852 209.166 99.7227 208.951 100.047 208.522C100.371 208.088 100.533 207.483 100.533 206.705C100.533 206.01 100.367 205.448 100.035 205.018C99.707 204.584 99.2695 204.367 98.7227 204.367C98.1875 204.367 97.7559 204.58 97.4277 205.006C97.0996 205.432 96.9355 206.041 96.9355 206.834ZM107.963 207.244L108.127 208.369L108.367 207.356L110.055 201.403H111.004L112.65 207.356L112.885 208.387L113.066 207.239L114.391 201.403H115.521L113.453 209.934H112.428L110.67 203.717L110.535 203.067L110.4 203.717L108.578 209.934H107.553L105.49 201.403H106.615L107.963 207.244ZM116.131 206.705C116.131 206.084 116.252 205.526 116.494 205.03C116.74 204.534 117.08 204.151 117.514 203.881C117.951 203.612 118.449 203.477 119.008 203.477C119.871 203.477 120.568 203.776 121.1 204.373C121.635 204.971 121.902 205.766 121.902 206.758V206.834C121.902 207.451 121.783 208.006 121.545 208.498C121.311 208.987 120.973 209.367 120.531 209.641C120.094 209.914 119.59 210.051 119.02 210.051C118.16 210.051 117.463 209.752 116.928 209.155C116.396 208.557 116.131 207.766 116.131 206.782V206.705ZM117.221 206.834C117.221 207.537 117.383 208.102 117.707 208.528C118.035 208.953 118.473 209.166 119.02 209.166C119.57 209.166 120.008 208.951 120.332 208.522C120.656 208.088 120.818 207.483 120.818 206.705C120.818 206.01 120.652 205.448 120.32 205.018C119.992 204.584 119.555 204.367 119.008 204.367C118.473 204.367 118.041 204.58 117.713 205.006C117.385 205.432 117.221 206.041 117.221 206.834ZM126.326 204.567C126.162 204.539 125.984 204.526 125.793 204.526C125.082 204.526 124.6 204.828 124.346 205.434V209.934H123.262V203.594H124.316L124.334 204.326C124.689 203.76 125.193 203.477 125.846 203.477C126.057 203.477 126.217 203.504 126.326 203.559V204.567ZM128.506 209.934H127.422V200.934H128.506V209.934ZM129.982 206.711C129.982 205.739 130.213 204.957 130.674 204.367C131.135 203.774 131.738 203.477 132.484 203.477C133.227 203.477 133.814 203.731 134.248 204.239V200.934H135.332V209.934H134.336L134.283 209.254C133.85 209.785 133.246 210.051 132.473 210.051C131.738 210.051 131.139 209.75 130.674 209.149C130.213 208.547 129.982 207.762 129.982 206.793V206.711ZM131.066 206.834C131.066 207.553 131.215 208.116 131.512 208.522C131.809 208.928 132.219 209.131 132.742 209.131C133.43 209.131 133.932 208.823 134.248 208.205V205.293C133.924 204.696 133.426 204.397 132.754 204.397C132.223 204.397 131.809 204.602 131.512 205.012C131.215 205.422 131.066 206.03 131.066 206.834ZM137.043 209.366C137.043 209.178 137.098 209.022 137.207 208.897C137.32 208.772 137.488 208.709 137.711 208.709C137.934 208.709 138.102 208.772 138.215 208.897C138.332 209.022 138.391 209.178 138.391 209.366C138.391 209.545 138.332 209.696 138.215 209.817C138.102 209.938 137.934 209.998 137.711 209.998C137.488 209.998 137.32 209.938 137.207 209.817C137.098 209.696 137.043 209.545 137.043 209.366ZM144.537 209.934H143.412V201.403H144.537V209.934ZM146.506 203.805L145.891 203.383C146.254 202.875 146.441 202.34 146.453 201.778V200.934H147.525V201.696C147.521 202.086 147.424 202.477 147.232 202.867C147.045 203.254 146.803 203.567 146.506 203.805ZM149.734 203.594L149.764 204.297C150.229 203.75 150.855 203.477 151.645 203.477C152.531 203.477 153.135 203.817 153.455 204.496C153.666 204.192 153.939 203.946 154.275 203.758C154.615 203.571 155.016 203.477 155.477 203.477C156.867 203.477 157.574 204.213 157.598 205.686V209.934H156.514V205.75C156.514 205.297 156.41 204.959 156.203 204.737C155.996 204.51 155.648 204.397 155.16 204.397C154.758 204.397 154.424 204.518 154.158 204.76C153.893 204.998 153.738 205.321 153.695 205.727V209.934H152.605V205.78C152.605 204.858 152.154 204.397 151.252 204.397C150.541 204.397 150.055 204.7 149.793 205.305V209.934H148.709V203.594H149.734ZM163.592 209.934H162.467V201.403H163.592V209.934ZM168.549 204.567C168.385 204.539 168.207 204.526 168.016 204.526C167.305 204.526 166.822 204.828 166.568 205.434V209.934H165.484V203.594H166.539L166.557 204.326C166.912 203.76 167.416 203.477 168.068 203.477C168.279 203.477 168.439 203.504 168.549 203.559V204.567ZM170.729 209.934H169.645V203.594H170.729V209.934ZM169.557 201.912C169.557 201.737 169.609 201.588 169.715 201.467C169.824 201.346 169.984 201.285 170.195 201.285C170.406 201.285 170.566 201.346 170.676 201.467C170.785 201.588 170.84 201.737 170.84 201.912C170.84 202.088 170.785 202.235 170.676 202.352C170.566 202.469 170.406 202.528 170.195 202.528C169.984 202.528 169.824 202.469 169.715 202.352C169.609 202.235 169.557 202.088 169.557 201.912ZM173.494 203.594L173.529 204.391C174.014 203.782 174.646 203.477 175.428 203.477C176.768 203.477 177.443 204.233 177.455 205.744V209.934H176.371V205.739C176.367 205.282 176.262 204.944 176.055 204.725C175.852 204.506 175.533 204.397 175.1 204.397C174.748 204.397 174.439 204.491 174.174 204.678C173.908 204.866 173.701 205.112 173.553 205.416V209.934H172.469V203.594H173.494ZM183.004 209.934C182.941 209.809 182.891 209.586 182.852 209.266C182.348 209.789 181.746 210.051 181.047 210.051C180.422 210.051 179.908 209.875 179.506 209.524C179.107 209.168 178.908 208.719 178.908 208.176C178.908 207.516 179.158 207.004 179.658 206.641C180.162 206.274 180.869 206.09 181.779 206.09H182.834V205.592C182.834 205.213 182.721 204.912 182.494 204.69C182.268 204.463 181.934 204.35 181.492 204.35C181.105 204.35 180.781 204.448 180.52 204.643C180.258 204.838 180.127 205.075 180.127 205.352H179.037C179.037 205.035 179.148 204.731 179.371 204.438C179.598 204.141 179.902 203.907 180.285 203.735C180.672 203.563 181.096 203.477 181.557 203.477C182.287 203.477 182.859 203.66 183.273 204.028C183.688 204.391 183.902 204.893 183.918 205.534V208.451C183.918 209.034 183.992 209.496 184.141 209.84V209.934H183.004ZM181.205 209.108C181.545 209.108 181.867 209.02 182.172 208.844C182.477 208.668 182.697 208.44 182.834 208.159V206.858H181.984C180.656 206.858 179.992 207.246 179.992 208.024C179.992 208.364 180.105 208.629 180.332 208.821C180.559 209.012 180.85 209.108 181.205 209.108ZM192.508 209.934C192.445 209.809 192.395 209.586 192.355 209.266C191.852 209.789 191.25 210.051 190.551 210.051C189.926 210.051 189.412 209.875 189.01 209.524C188.611 209.168 188.412 208.719 188.412 208.176C188.412 207.516 188.662 207.004 189.162 206.641C189.666 206.274 190.373 206.09 191.283 206.09H192.338V205.592C192.338 205.213 192.225 204.912 191.998 204.69C191.771 204.463 191.438 204.35 190.996 204.35C190.609 204.35 190.285 204.448 190.023 204.643C189.762 204.838 189.631 205.075 189.631 205.352H188.541C188.541 205.035 188.652 204.731 188.875 204.438C189.102 204.141 189.406 203.907 189.789 203.735C190.176 203.563 190.6 203.477 191.061 203.477C191.791 203.477 192.363 203.66 192.777 204.028C193.191 204.391 193.406 204.893 193.422 205.534V208.451C193.422 209.034 193.496 209.496 193.645 209.84V209.934H192.508ZM190.709 209.108C191.049 209.108 191.371 209.02 191.676 208.844C191.98 208.668 192.201 208.44 192.338 208.159V206.858H191.488C190.16 206.858 189.496 207.246 189.496 208.024C189.496 208.364 189.609 208.629 189.836 208.821C190.062 209.012 190.354 209.108 190.709 209.108ZM196.146 203.594L196.182 204.391C196.666 203.782 197.299 203.477 198.08 203.477C199.42 203.477 200.096 204.233 200.107 205.744V209.934H199.023V205.739C199.02 205.282 198.914 204.944 198.707 204.725C198.504 204.506 198.186 204.397 197.752 204.397C197.4 204.397 197.092 204.491 196.826 204.678C196.561 204.866 196.354 205.112 196.205 205.416V209.934H195.121V203.594H196.146ZM201.479 206.711C201.479 205.739 201.709 204.957 202.17 204.367C202.631 203.774 203.234 203.477 203.98 203.477C204.723 203.477 205.311 203.731 205.744 204.239V200.934H206.828V209.934H205.832L205.779 209.254C205.346 209.785 204.742 210.051 203.969 210.051C203.234 210.051 202.635 209.75 202.17 209.149C201.709 208.547 201.479 207.762 201.479 206.793V206.711ZM202.562 206.834C202.562 207.553 202.711 208.116 203.008 208.522C203.305 208.928 203.715 209.131 204.238 209.131C204.926 209.131 205.428 208.823 205.744 208.205V205.293C205.42 204.696 204.922 204.397 204.25 204.397C203.719 204.397 203.305 204.602 203.008 205.012C202.711 205.422 202.562 206.03 202.562 206.834ZM212.869 209.934H211.744V201.403H212.869V209.934ZM218.916 209.934H217.832V200.934H218.916V209.934ZM220.369 206.705C220.369 206.084 220.49 205.526 220.732 205.03C220.979 204.534 221.318 204.151 221.752 203.881C222.189 203.612 222.688 203.477 223.246 203.477C224.109 203.477 224.807 203.776 225.338 204.373C225.873 204.971 226.141 205.766 226.141 206.758V206.834C226.141 207.451 226.021 208.006 225.783 208.498C225.549 208.987 225.211 209.367 224.77 209.641C224.332 209.914 223.828 210.051 223.258 210.051C222.398 210.051 221.701 209.752 221.166 209.155C220.635 208.557 220.369 207.766 220.369 206.782V206.705ZM221.459 206.834C221.459 207.537 221.621 208.102 221.945 208.528C222.273 208.953 222.711 209.166 223.258 209.166C223.809 209.166 224.246 208.951 224.57 208.522C224.895 208.088 225.057 207.483 225.057 206.705C225.057 206.01 224.891 205.448 224.559 205.018C224.23 204.584 223.793 204.367 223.246 204.367C222.711 204.367 222.279 204.58 221.951 205.006C221.623 205.432 221.459 206.041 221.459 206.834ZM229.498 208.463L231.068 203.594H232.176L229.902 209.934H229.076L226.779 203.594H227.887L229.498 208.463ZM235.768 210.051C234.908 210.051 234.209 209.77 233.67 209.207C233.131 208.641 232.861 207.885 232.861 206.94V206.741C232.861 206.112 232.98 205.551 233.219 205.059C233.461 204.563 233.797 204.176 234.227 203.899C234.66 203.617 235.129 203.477 235.633 203.477C236.457 203.477 237.098 203.748 237.555 204.291C238.012 204.834 238.24 205.612 238.24 206.623V207.075H233.945C233.961 207.7 234.143 208.205 234.49 208.592C234.842 208.975 235.287 209.166 235.826 209.166C236.209 209.166 236.533 209.088 236.799 208.932C237.064 208.776 237.297 208.569 237.496 208.311L238.158 208.826C237.627 209.643 236.83 210.051 235.768 210.051ZM235.633 204.367C235.195 204.367 234.828 204.528 234.531 204.848C234.234 205.164 234.051 205.61 233.98 206.184H237.156V206.102C237.125 205.551 236.977 205.125 236.711 204.825C236.445 204.52 236.086 204.367 235.633 204.367ZM122.488 223.934C122.426 223.809 122.375 223.586 122.336 223.266C121.832 223.789 121.23 224.051 120.531 224.051C119.906 224.051 119.393 223.875 118.99 223.524C118.592 223.168 118.393 222.719 118.393 222.176C118.393 221.516 118.643 221.004 119.143 220.641C119.646 220.274 120.354 220.09 121.264 220.09H122.318V219.592C122.318 219.213 122.205 218.912 121.979 218.69C121.752 218.463 121.418 218.35 120.977 218.35C120.59 218.35 120.266 218.448 120.004 218.643C119.742 218.838 119.611 219.075 119.611 219.352H118.521C118.521 219.035 118.633 218.731 118.855 218.438C119.082 218.141 119.387 217.907 119.77 217.735C120.156 217.563 120.58 217.477 121.041 217.477C121.771 217.477 122.344 217.66 122.758 218.028C123.172 218.391 123.387 218.893 123.402 219.534V222.451C123.402 223.034 123.477 223.496 123.625 223.84V223.934H122.488ZM120.689 223.108C121.029 223.108 121.352 223.02 121.656 222.844C121.961 222.668 122.182 222.44 122.318 222.159V220.858H121.469C120.141 220.858 119.477 221.246 119.477 222.024C119.477 222.364 119.59 222.629 119.816 222.821C120.043 223.012 120.334 223.108 120.689 223.108ZM126.127 217.594L126.162 218.391C126.646 217.782 127.279 217.477 128.061 217.477C129.4 217.477 130.076 218.233 130.088 219.744V223.934H129.004V219.739C129 219.282 128.895 218.944 128.688 218.725C128.484 218.506 128.166 218.397 127.732 218.397C127.381 218.397 127.072 218.491 126.807 218.678C126.541 218.866 126.334 219.112 126.186 219.416V223.934H125.102V217.594H126.127ZM131.459 220.711C131.459 219.739 131.689 218.957 132.15 218.367C132.611 217.774 133.215 217.477 133.961 217.477C134.703 217.477 135.291 217.731 135.725 218.239V214.934H136.809V223.934H135.812L135.76 223.254C135.326 223.785 134.723 224.051 133.949 224.051C133.215 224.051 132.615 223.75 132.15 223.149C131.689 222.547 131.459 221.762 131.459 220.793V220.711ZM132.543 220.834C132.543 221.553 132.691 222.116 132.988 222.522C133.285 222.928 133.695 223.131 134.219 223.131C134.906 223.131 135.408 222.823 135.725 222.205V219.293C135.4 218.696 134.902 218.397 134.23 218.397C133.699 218.397 133.285 218.602 132.988 219.012C132.691 219.422 132.543 220.03 132.543 220.834ZM144.016 223.166C144.402 223.166 144.74 223.049 145.029 222.815C145.318 222.58 145.479 222.287 145.51 221.936H146.535C146.516 222.299 146.391 222.645 146.16 222.973C145.93 223.301 145.621 223.563 145.234 223.758C144.852 223.953 144.445 224.051 144.016 224.051C143.152 224.051 142.465 223.764 141.953 223.19C141.445 222.612 141.191 221.823 141.191 220.823V220.641C141.191 220.024 141.305 219.475 141.531 218.994C141.758 218.514 142.082 218.141 142.504 217.875C142.93 217.61 143.432 217.477 144.01 217.477C144.721 217.477 145.311 217.69 145.779 218.116C146.252 218.541 146.504 219.094 146.535 219.774H145.51C145.479 219.364 145.322 219.028 145.041 218.766C144.764 218.5 144.42 218.367 144.01 218.367C143.459 218.367 143.031 218.567 142.727 218.965C142.426 219.36 142.275 219.932 142.275 220.682V220.887C142.275 221.617 142.426 222.18 142.727 222.575C143.027 222.969 143.457 223.166 144.016 223.166ZM150.818 218.567C150.654 218.539 150.477 218.526 150.285 218.526C149.574 218.526 149.092 218.828 148.838 219.434V223.934H147.754V217.594H148.809L148.826 218.326C149.182 217.76 149.686 217.477 150.338 217.477C150.549 217.477 150.709 217.504 150.818 217.559V218.567ZM154.334 224.051C153.475 224.051 152.775 223.77 152.236 223.207C151.697 222.641 151.428 221.885 151.428 220.94V220.741C151.428 220.112 151.547 219.551 151.785 219.059C152.027 218.563 152.363 218.176 152.793 217.899C153.227 217.617 153.695 217.477 154.199 217.477C155.023 217.477 155.664 217.748 156.121 218.291C156.578 218.834 156.807 219.612 156.807 220.623V221.075H152.512C152.527 221.7 152.709 222.205 153.057 222.592C153.408 222.975 153.854 223.166 154.393 223.166C154.775 223.166 155.1 223.088 155.365 222.932C155.631 222.776 155.863 222.569 156.062 222.311L156.725 222.826C156.193 223.643 155.396 224.051 154.334 224.051ZM154.199 218.367C153.762 218.367 153.395 218.528 153.098 218.848C152.801 219.164 152.617 219.61 152.547 220.184H155.723V220.102C155.691 219.551 155.543 219.125 155.277 218.825C155.012 218.52 154.652 218.367 154.199 218.367ZM161.98 223.934C161.918 223.809 161.867 223.586 161.828 223.266C161.324 223.789 160.723 224.051 160.023 224.051C159.398 224.051 158.885 223.875 158.482 223.524C158.084 223.168 157.885 222.719 157.885 222.176C157.885 221.516 158.135 221.004 158.635 220.641C159.139 220.274 159.846 220.09 160.756 220.09H161.811V219.592C161.811 219.213 161.697 218.912 161.471 218.69C161.244 218.463 160.91 218.35 160.469 218.35C160.082 218.35 159.758 218.448 159.496 218.643C159.234 218.838 159.104 219.075 159.104 219.352H158.014C158.014 219.035 158.125 218.731 158.348 218.438C158.574 218.141 158.879 217.907 159.262 217.735C159.648 217.563 160.072 217.477 160.533 217.477C161.264 217.477 161.836 217.66 162.25 218.028C162.664 218.391 162.879 218.893 162.895 219.534V222.451C162.895 223.034 162.969 223.496 163.117 223.84V223.934H161.98ZM160.182 223.108C160.521 223.108 160.844 223.02 161.148 222.844C161.453 222.668 161.674 222.44 161.811 222.159V220.858H160.961C159.633 220.858 158.969 221.246 158.969 222.024C158.969 222.364 159.082 222.629 159.309 222.821C159.535 223.012 159.826 223.108 160.182 223.108ZM166.064 216.059V217.594H167.248V218.432H166.064V222.364C166.064 222.617 166.117 222.809 166.223 222.938C166.328 223.063 166.508 223.125 166.762 223.125C166.887 223.125 167.059 223.102 167.277 223.055V223.934C166.992 224.012 166.715 224.051 166.445 224.051C165.961 224.051 165.596 223.905 165.35 223.612C165.104 223.319 164.98 222.903 164.98 222.364V218.432H163.826V217.594H164.98V216.059H166.064ZM169.697 223.934H168.613V217.594H169.697V223.934ZM168.525 215.912C168.525 215.737 168.578 215.588 168.684 215.467C168.793 215.346 168.953 215.285 169.164 215.285C169.375 215.285 169.535 215.346 169.645 215.467C169.754 215.588 169.809 215.737 169.809 215.912C169.809 216.088 169.754 216.235 169.645 216.352C169.535 216.469 169.375 216.528 169.164 216.528C168.953 216.528 168.793 216.469 168.684 216.352C168.578 216.235 168.525 216.088 168.525 215.912ZM172.463 217.594L172.498 218.391C172.982 217.782 173.615 217.477 174.396 217.477C175.736 217.477 176.412 218.233 176.424 219.744V223.934H175.34V219.739C175.336 219.282 175.23 218.944 175.023 218.725C174.82 218.506 174.502 218.397 174.068 218.397C173.717 218.397 173.408 218.491 173.143 218.678C172.877 218.866 172.67 219.112 172.521 219.416V223.934H171.438V217.594H172.463ZM177.801 220.711C177.801 219.723 178.029 218.938 178.486 218.356C178.943 217.77 179.549 217.477 180.303 217.477C181.076 217.477 181.68 217.75 182.113 218.297L182.166 217.594H183.156V223.782C183.156 224.602 182.912 225.248 182.424 225.721C181.939 226.194 181.287 226.43 180.467 226.43C180.01 226.43 179.562 226.332 179.125 226.137C178.688 225.942 178.354 225.674 178.123 225.334L178.686 224.684C179.15 225.258 179.719 225.545 180.391 225.545C180.918 225.545 181.328 225.397 181.621 225.1C181.918 224.803 182.066 224.385 182.066 223.846V223.301C181.633 223.801 181.041 224.051 180.291 224.051C179.549 224.051 178.947 223.752 178.486 223.155C178.029 222.557 177.801 221.742 177.801 220.711ZM178.891 220.834C178.891 221.549 179.037 222.112 179.33 222.522C179.623 222.928 180.033 223.131 180.561 223.131C181.244 223.131 181.746 222.821 182.066 222.2V219.305C181.734 218.7 181.236 218.397 180.572 218.397C180.045 218.397 179.633 218.602 179.336 219.012C179.039 219.422 178.891 220.03 178.891 220.834ZM188.799 217.594L188.834 218.391C189.318 217.782 189.951 217.477 190.732 217.477C192.072 217.477 192.748 218.233 192.76 219.744V223.934H191.676V219.739C191.672 219.282 191.566 218.944 191.359 218.725C191.156 218.506 190.838 218.397 190.404 218.397C190.053 218.397 189.744 218.491 189.479 218.678C189.213 218.866 189.006 219.112 188.857 219.416V223.934H187.773V217.594H188.799ZM197.025 224.051C196.166 224.051 195.467 223.77 194.928 223.207C194.389 222.641 194.119 221.885 194.119 220.94V220.741C194.119 220.112 194.238 219.551 194.477 219.059C194.719 218.563 195.055 218.176 195.484 217.899C195.918 217.617 196.387 217.477 196.891 217.477C197.715 217.477 198.355 217.748 198.812 218.291C199.27 218.834 199.498 219.612 199.498 220.623V221.075H195.203C195.219 221.7 195.4 222.205 195.748 222.592C196.1 222.975 196.545 223.166 197.084 223.166C197.467 223.166 197.791 223.088 198.057 222.932C198.322 222.776 198.555 222.569 198.754 222.311L199.416 222.826C198.885 223.643 198.088 224.051 197.025 224.051ZM196.891 218.367C196.453 218.367 196.086 218.528 195.789 218.848C195.492 219.164 195.309 219.61 195.238 220.184H198.414V220.102C198.383 219.551 198.234 219.125 197.969 218.825C197.703 218.52 197.344 218.367 196.891 218.367ZM206.371 222.44L207.59 217.594H208.674L206.828 223.934H205.949L204.408 219.129L202.908 223.934H202.029L200.189 217.594H201.268L202.516 222.34L203.992 217.594H204.865L206.371 222.44ZM214.229 216.059V217.594H215.412V218.432H214.229V222.364C214.229 222.617 214.281 222.809 214.387 222.938C214.492 223.063 214.672 223.125 214.926 223.125C215.051 223.125 215.223 223.102 215.441 223.055V223.934C215.156 224.012 214.879 224.051 214.609 224.051C214.125 224.051 213.76 223.905 213.514 223.612C213.268 223.319 213.145 222.903 213.145 222.364V218.432H211.99V217.594H213.145V216.059H214.229ZM217.768 218.362C218.248 217.772 218.873 217.477 219.643 217.477C220.982 217.477 221.658 218.233 221.67 219.744V223.934H220.586V219.739C220.582 219.282 220.477 218.944 220.27 218.725C220.066 218.506 219.748 218.397 219.314 218.397C218.963 218.397 218.654 218.491 218.389 218.678C218.123 218.866 217.916 219.112 217.768 219.416V223.934H216.684V214.934H217.768V218.362ZM224.471 223.934H223.387V217.594H224.471V223.934ZM223.299 215.912C223.299 215.737 223.352 215.588 223.457 215.467C223.566 215.346 223.727 215.285 223.938 215.285C224.148 215.285 224.309 215.346 224.418 215.467C224.527 215.588 224.582 215.737 224.582 215.912C224.582 216.088 224.527 216.235 224.418 216.352C224.309 216.469 224.148 216.528 223.938 216.528C223.727 216.528 223.566 216.469 223.457 216.352C223.352 216.235 223.299 216.088 223.299 215.912ZM227.236 217.594L227.271 218.391C227.756 217.782 228.389 217.477 229.17 217.477C230.51 217.477 231.186 218.233 231.197 219.744V223.934H230.113V219.739C230.109 219.282 230.004 218.944 229.797 218.725C229.594 218.506 229.275 218.397 228.842 218.397C228.49 218.397 228.182 218.491 227.916 218.678C227.65 218.866 227.443 219.112 227.295 219.416V223.934H226.211V217.594H227.236ZM232.574 220.711C232.574 219.723 232.803 218.938 233.26 218.356C233.717 217.77 234.322 217.477 235.076 217.477C235.85 217.477 236.453 217.75 236.887 218.297L236.939 217.594H237.93V223.782C237.93 224.602 237.686 225.248 237.197 225.721C236.713 226.194 236.061 226.43 235.24 226.43C234.783 226.43 234.336 226.332 233.898 226.137C233.461 225.942 233.127 225.674 232.896 225.334L233.459 224.684C233.924 225.258 234.492 225.545 235.164 225.545C235.691 225.545 236.102 225.397 236.395 225.1C236.691 224.803 236.84 224.385 236.84 223.846V223.301C236.406 223.801 235.814 224.051 235.064 224.051C234.322 224.051 233.721 223.752 233.26 223.155C232.803 222.557 232.574 221.742 232.574 220.711ZM233.664 220.834C233.664 221.549 233.811 222.112 234.104 222.522C234.396 222.928 234.807 223.131 235.334 223.131C236.018 223.131 236.52 222.821 236.84 222.2V219.305C236.508 218.7 236.01 218.397 235.346 218.397C234.818 218.397 234.406 218.602 234.109 219.012C233.812 219.422 233.664 220.03 233.664 220.834ZM243.262 222.252C243.262 221.959 243.15 221.733 242.928 221.573C242.709 221.409 242.324 221.268 241.773 221.151C241.227 221.034 240.791 220.893 240.467 220.729C240.146 220.565 239.908 220.369 239.752 220.143C239.6 219.916 239.523 219.647 239.523 219.334C239.523 218.815 239.742 218.375 240.18 218.016C240.621 217.657 241.184 217.477 241.867 217.477C242.586 217.477 243.168 217.662 243.613 218.034C244.062 218.405 244.287 218.879 244.287 219.457H243.197C243.197 219.16 243.07 218.905 242.816 218.69C242.566 218.475 242.25 218.367 241.867 218.367C241.473 218.367 241.164 218.453 240.941 218.625C240.719 218.797 240.607 219.022 240.607 219.299C240.607 219.561 240.711 219.758 240.918 219.891C241.125 220.024 241.498 220.151 242.037 220.272C242.58 220.393 243.02 220.537 243.355 220.705C243.691 220.873 243.939 221.076 244.1 221.315C244.264 221.549 244.346 221.836 244.346 222.176C244.346 222.742 244.119 223.198 243.666 223.541C243.213 223.881 242.625 224.051 241.902 224.051C241.395 224.051 240.945 223.961 240.555 223.782C240.164 223.602 239.857 223.352 239.635 223.032C239.416 222.707 239.307 222.358 239.307 221.983H240.391C240.41 222.346 240.555 222.635 240.824 222.85C241.098 223.061 241.457 223.166 241.902 223.166C242.312 223.166 242.641 223.084 242.887 222.92C243.137 222.752 243.262 222.53 243.262 222.252ZM245.781 223.366C245.781 223.178 245.836 223.022 245.945 222.897C246.059 222.772 246.227 222.709 246.449 222.709C246.672 222.709 246.84 222.772 246.953 222.897C247.07 223.022 247.129 223.178 247.129 223.366C247.129 223.545 247.07 223.696 246.953 223.817C246.84 223.938 246.672 223.998 246.449 223.998C246.227 223.998 246.059 223.938 245.945 223.817C245.836 223.696 245.781 223.545 245.781 223.366Z" fill="black"/>
<path d="M35.5 108.16L39.168 109.643V110.791L34.375 108.571V107.715L39.168 105.5V106.649L35.5 108.16ZM41.9629 106.362C42.4434 105.772 43.0684 105.477 43.8379 105.477C45.1777 105.477 45.8535 106.233 45.8652 107.744V111.934H44.7812V107.739C44.7773 107.282 44.6719 106.944 44.4648 106.725C44.2617 106.506 43.9434 106.397 43.5098 106.397C43.1582 106.397 42.8496 106.491 42.584 106.678C42.3184 106.866 42.1113 107.112 41.9629 107.416V111.934H40.8789V102.934H41.9629V106.362ZM50.1191 112.051C49.2598 112.051 48.5605 111.77 48.0215 111.207C47.4824 110.641 47.2129 109.885 47.2129 108.94V108.741C47.2129 108.112 47.332 107.551 47.5703 107.059C47.8125 106.563 48.1484 106.176 48.5781 105.899C49.0117 105.617 49.4805 105.477 49.9844 105.477C50.8086 105.477 51.4492 105.748 51.9062 106.291C52.3633 106.834 52.5918 107.612 52.5918 108.623V109.075H48.2969C48.3125 109.7 48.4941 110.205 48.8418 110.592C49.1934 110.975 49.6387 111.166 50.1777 111.166C50.5605 111.166 50.8848 111.088 51.1504 110.932C51.416 110.776 51.6484 110.569 51.8477 110.311L52.5098 110.826C51.9785 111.643 51.1816 112.051 50.1191 112.051ZM49.9844 106.367C49.5469 106.367 49.1797 106.528 48.8828 106.848C48.5859 107.164 48.4023 107.61 48.332 108.184H51.5078V108.102C51.4766 107.551 51.3281 107.125 51.0625 106.825C50.7969 106.52 50.4375 106.367 49.9844 106.367ZM57.7656 111.934C57.7031 111.809 57.6523 111.586 57.6133 111.266C57.1094 111.789 56.5078 112.051 55.8086 112.051C55.1836 112.051 54.6699 111.875 54.2676 111.524C53.8691 111.168 53.6699 110.719 53.6699 110.176C53.6699 109.516 53.9199 109.004 54.4199 108.641C54.9238 108.274 55.6309 108.09 56.541 108.09H57.5957V107.592C57.5957 107.213 57.4824 106.912 57.2559 106.69C57.0293 106.463 56.6953 106.35 56.2539 106.35C55.8672 106.35 55.543 106.448 55.2812 106.643C55.0195 106.838 54.8887 107.075 54.8887 107.352H53.7988C53.7988 107.035 53.9102 106.731 54.1328 106.438C54.3594 106.141 54.6641 105.907 55.0469 105.735C55.4336 105.563 55.8574 105.477 56.3184 105.477C57.0488 105.477 57.6211 105.66 58.0352 106.028C58.4492 106.391 58.6641 106.893 58.6797 107.534V110.451C58.6797 111.034 58.7539 111.496 58.9023 111.84V111.934H57.7656ZM55.9668 111.108C56.3066 111.108 56.6289 111.02 56.9336 110.844C57.2383 110.668 57.459 110.44 57.5957 110.159V108.858H56.7461C55.418 108.858 54.7539 109.246 54.7539 110.024C54.7539 110.364 54.8672 110.629 55.0938 110.821C55.3203 111.012 55.6113 111.108 55.9668 111.108ZM60.1152 108.711C60.1152 107.739 60.3457 106.957 60.8066 106.367C61.2676 105.774 61.8711 105.477 62.6172 105.477C63.3594 105.477 63.9473 105.731 64.3809 106.239V102.934H65.4648V111.934H64.4688L64.416 111.254C63.9824 111.785 63.3789 112.051 62.6055 112.051C61.8711 112.051 61.2715 111.75 60.8066 111.149C60.3457 110.547 60.1152 109.762 60.1152 108.793V108.711ZM61.1992 108.834C61.1992 109.553 61.3477 110.116 61.6445 110.522C61.9414 110.928 62.3516 111.131 62.875 111.131C63.5625 111.131 64.0645 110.823 64.3809 110.205V107.293C64.0566 106.696 63.5586 106.397 62.8867 106.397C62.3555 106.397 61.9414 106.602 61.6445 107.012C61.3477 107.422 61.1992 108.03 61.1992 108.834ZM70.9902 108.125L67.1172 106.608V105.494L72.1211 107.709V108.565L67.1172 110.785V109.66L70.9902 108.125ZM50.3828 122.16L54.0508 123.643V124.791L49.2578 122.571V121.715L54.0508 119.5V120.649L50.3828 122.16ZM57.2324 118.059V119.594H58.416V120.432H57.2324V124.364C57.2324 124.617 57.2852 124.809 57.3906 124.938C57.4961 125.063 57.6758 125.125 57.9297 125.125C58.0547 125.125 58.2266 125.102 58.4453 125.055V125.934C58.1602 126.012 57.8828 126.051 57.6133 126.051C57.1289 126.051 56.7637 125.905 56.5176 125.612C56.2715 125.319 56.1484 124.903 56.1484 124.364V120.432H54.9941V119.594H56.1484V118.059H57.2324ZM60.8652 125.934H59.7812V119.594H60.8652V125.934ZM59.6934 117.912C59.6934 117.737 59.7461 117.588 59.8516 117.467C59.9609 117.346 60.1211 117.285 60.332 117.285C60.543 117.285 60.7031 117.346 60.8125 117.467C60.9219 117.588 60.9766 117.737 60.9766 117.912C60.9766 118.088 60.9219 118.235 60.8125 118.352C60.7031 118.469 60.543 118.528 60.332 118.528C60.1211 118.528 59.9609 118.469 59.8516 118.352C59.7461 118.235 59.6934 118.088 59.6934 117.912ZM64.0762 118.059V119.594H65.2598V120.432H64.0762V124.364C64.0762 124.617 64.1289 124.809 64.2344 124.938C64.3398 125.063 64.5195 125.125 64.7734 125.125C64.8984 125.125 65.0703 125.102 65.2891 125.055V125.934C65.0039 126.012 64.7266 126.051 64.457 126.051C63.9727 126.051 63.6074 125.905 63.3613 125.612C63.1152 125.319 62.9922 124.903 62.9922 124.364V120.432H61.8379V119.594H62.9922V118.059H64.0762ZM67.709 125.934H66.625V116.934H67.709V125.934ZM72.0801 126.051C71.2207 126.051 70.5215 125.77 69.9824 125.207C69.4434 124.641 69.1738 123.885 69.1738 122.94V122.741C69.1738 122.112 69.293 121.551 69.5312 121.059C69.7734 120.563 70.1094 120.176 70.5391 119.899C70.9727 119.617 71.4414 119.477 71.9453 119.477C72.7695 119.477 73.4102 119.748 73.8672 120.291C74.3242 120.834 74.5527 121.612 74.5527 122.623V123.075H70.2578C70.2734 123.7 70.4551 124.205 70.8027 124.592C71.1543 124.975 71.5996 125.166 72.1387 125.166C72.5215 125.166 72.8457 125.088 73.1113 124.932C73.377 124.776 73.6094 124.569 73.8086 124.311L74.4707 124.826C73.9395 125.643 73.1426 126.051 72.0801 126.051ZM71.9453 120.367C71.5078 120.367 71.1406 120.528 70.8438 120.848C70.5469 121.164 70.3633 121.61 70.293 122.184H73.4688V122.102C73.4375 121.551 73.2891 121.125 73.0234 120.825C72.7578 120.52 72.3984 120.367 71.9453 120.367ZM79.6504 122.125L75.7773 120.608V119.494L80.7812 121.709V122.565L75.7773 124.785V123.66L79.6504 122.125ZM53.3594 150.16L57.0273 151.643V152.791L52.2344 150.571V149.715L57.0273 147.5V148.649L53.3594 150.16ZM58.9551 154.666H58.0234L61.5859 145.403H62.5117L58.9551 154.666ZM65.1543 146.059V147.594H66.3379V148.432H65.1543V152.364C65.1543 152.617 65.207 152.809 65.3125 152.938C65.418 153.063 65.5977 153.125 65.8516 153.125C65.9766 153.125 66.1484 153.102 66.3672 153.055V153.934C66.082 154.012 65.8047 154.051 65.5352 154.051C65.0508 154.051 64.6855 153.905 64.4395 153.612C64.1934 153.319 64.0703 152.903 64.0703 152.364V148.432H62.916V147.594H64.0703V146.059H65.1543ZM68.7871 153.934H67.7031V147.594H68.7871V153.934ZM67.6152 145.912C67.6152 145.737 67.668 145.588 67.7734 145.467C67.8828 145.346 68.043 145.285 68.2539 145.285C68.4648 145.285 68.625 145.346 68.7344 145.467C68.8438 145.588 68.8984 145.737 68.8984 145.912C68.8984 146.088 68.8438 146.235 68.7344 146.352C68.625 146.469 68.4648 146.528 68.2539 146.528C68.043 146.528 67.8828 146.469 67.7734 146.352C67.668 146.235 67.6152 146.088 67.6152 145.912ZM71.998 146.059V147.594H73.1816V148.432H71.998V152.364C71.998 152.617 72.0508 152.809 72.1562 152.938C72.2617 153.063 72.4414 153.125 72.6953 153.125C72.8203 153.125 72.9922 153.102 73.2109 153.055V153.934C72.9258 154.012 72.6484 154.051 72.3789 154.051C71.8945 154.051 71.5293 153.905 71.2832 153.612C71.0371 153.319 70.9141 152.903 70.9141 152.364V148.432H69.7598V147.594H70.9141V146.059H71.998ZM75.6309 153.934H74.5469V144.934H75.6309V153.934ZM80.002 154.051C79.1426 154.051 78.4434 153.77 77.9043 153.207C77.3652 152.641 77.0957 151.885 77.0957 150.94V150.741C77.0957 150.112 77.2148 149.551 77.4531 149.059C77.6953 148.563 78.0312 148.176 78.4609 147.899C78.8945 147.617 79.3633 147.477 79.8672 147.477C80.6914 147.477 81.332 147.748 81.7891 148.291C82.2461 148.834 82.4746 149.612 82.4746 150.623V151.075H78.1797C78.1953 151.7 78.377 152.205 78.7246 152.592C79.0762 152.975 79.5215 153.166 80.0605 153.166C80.4434 153.166 80.7676 153.088 81.0332 152.932C81.2988 152.776 81.5312 152.569 81.7305 152.311L82.3926 152.826C81.8613 153.643 81.0645 154.051 80.002 154.051ZM79.8672 148.367C79.4297 148.367 79.0625 148.528 78.7656 148.848C78.4688 149.164 78.2852 149.61 78.2148 150.184H81.3906V150.102C81.3594 149.551 81.2109 149.125 80.9453 148.825C80.6797 148.52 80.3203 148.367 79.8672 148.367ZM87.5723 150.125L83.6992 148.608V147.494L88.7031 149.709V150.565L83.6992 152.785V151.66L87.5723 150.125ZM35.5 164.16L39.168 165.643V166.791L34.375 164.571V163.715L39.168 161.5V162.649L35.5 164.16ZM41.0957 168.666H40.1641L43.7266 159.403H44.6523L41.0957 168.666ZM46.9082 162.362C47.3887 161.772 48.0137 161.477 48.7832 161.477C50.123 161.477 50.7988 162.233 50.8105 163.744V167.934H49.7266V163.739C49.7227 163.282 49.6172 162.944 49.4102 162.725C49.207 162.506 48.8887 162.397 48.4551 162.397C48.1035 162.397 47.7949 162.491 47.5293 162.678C47.2637 162.866 47.0566 163.112 46.9082 163.416V167.934H45.8242V158.934H46.9082V162.362ZM55.0645 168.051C54.2051 168.051 53.5059 167.77 52.9668 167.207C52.4277 166.641 52.1582 165.885 52.1582 164.94V164.741C52.1582 164.112 52.2773 163.551 52.5156 163.059C52.7578 162.563 53.0938 162.176 53.5234 161.899C53.957 161.617 54.4258 161.477 54.9297 161.477C55.7539 161.477 56.3945 161.748 56.8516 162.291C57.3086 162.834 57.5371 163.612 57.5371 164.623V165.075H53.2422C53.2578 165.7 53.4395 166.205 53.7871 166.592C54.1387 166.975 54.584 167.166 55.123 167.166C55.5059 167.166 55.8301 167.088 56.0957 166.932C56.3613 166.776 56.5938 166.569 56.793 166.311L57.4551 166.826C56.9238 167.643 56.127 168.051 55.0645 168.051ZM54.9297 162.367C54.4922 162.367 54.125 162.528 53.8281 162.848C53.5312 163.164 53.3477 163.61 53.2773 164.184H56.4531V164.102C56.4219 163.551 56.2734 163.125 56.0078 162.825C55.7422 162.52 55.3828 162.367 54.9297 162.367ZM62.7109 167.934C62.6484 167.809 62.5977 167.586 62.5586 167.266C62.0547 167.789 61.4531 168.051 60.7539 168.051C60.1289 168.051 59.6152 167.875 59.2129 167.524C58.8145 167.168 58.6152 166.719 58.6152 166.176C58.6152 165.516 58.8652 165.004 59.3652 164.641C59.8691 164.274 60.5762 164.09 61.4863 164.09H62.541V163.592C62.541 163.213 62.4277 162.912 62.2012 162.69C61.9746 162.463 61.6406 162.35 61.1992 162.35C60.8125 162.35 60.4883 162.448 60.2266 162.643C59.9648 162.838 59.834 163.075 59.834 163.352H58.7441C58.7441 163.035 58.8555 162.731 59.0781 162.438C59.3047 162.141 59.6094 161.907 59.9922 161.735C60.3789 161.563 60.8027 161.477 61.2637 161.477C61.9941 161.477 62.5664 161.66 62.9805 162.028C63.3945 162.391 63.6094 162.893 63.625 163.534V166.451C63.625 167.034 63.6992 167.496 63.8477 167.84V167.934H62.7109ZM60.9121 167.108C61.252 167.108 61.5742 167.02 61.8789 166.844C62.1836 166.668 62.4043 166.44 62.541 166.159V164.858H61.6914C60.3633 164.858 59.6992 165.246 59.6992 166.024C59.6992 166.364 59.8125 166.629 60.0391 166.821C60.2656 167.012 60.5566 167.108 60.9121 167.108ZM65.0605 164.711C65.0605 163.739 65.291 162.957 65.752 162.367C66.2129 161.774 66.8164 161.477 67.5625 161.477C68.3047 161.477 68.8926 161.731 69.3262 162.239V158.934H70.4102V167.934H69.4141L69.3613 167.254C68.9277 167.785 68.3242 168.051 67.5508 168.051C66.8164 168.051 66.2168 167.75 65.752 167.149C65.291 166.547 65.0605 165.762 65.0605 164.793V164.711ZM66.1445 164.834C66.1445 165.553 66.293 166.116 66.5898 166.522C66.8867 166.928 67.2969 167.131 67.8203 167.131C68.5078 167.131 69.0098 166.823 69.3262 166.205V163.293C69.002 162.696 68.5039 162.397 67.832 162.397C67.3008 162.397 66.8867 162.602 66.5898 163.012C66.293 163.422 66.1445 164.03 66.1445 164.834ZM75.9355 164.125L72.0625 162.608V161.494L77.0664 163.709V164.565L72.0625 166.785V165.66L75.9355 164.125ZM35.5 192.16L39.168 193.643V194.791L34.375 192.571V191.715L39.168 189.5V190.649L35.5 192.16ZM46.2461 192.834C46.2461 193.803 46.0234 194.582 45.5781 195.172C45.1328 195.758 44.5352 196.051 43.7852 196.051C42.9844 196.051 42.3652 195.768 41.9277 195.201L41.875 195.934H40.8789V186.934H41.9629V190.291C42.4004 189.748 43.0039 189.477 43.7734 189.477C44.543 189.477 45.1465 189.768 45.584 190.35C46.0254 190.932 46.2461 191.729 46.2461 192.741V192.834ZM45.1621 192.711C45.1621 191.973 45.0195 191.403 44.7344 191C44.4492 190.598 44.0391 190.397 43.5039 190.397C42.7891 190.397 42.2754 190.729 41.9629 191.393V194.135C42.2949 194.799 42.8125 195.131 43.5156 195.131C44.0352 195.131 44.4395 194.93 44.7285 194.528C45.0176 194.125 45.1621 193.52 45.1621 192.711ZM47.3301 192.705C47.3301 192.084 47.4512 191.526 47.6934 191.03C47.9395 190.534 48.2793 190.151 48.7129 189.881C49.1504 189.612 49.6484 189.477 50.207 189.477C51.0703 189.477 51.7676 189.776 52.2988 190.373C52.834 190.971 53.1016 191.766 53.1016 192.758V192.834C53.1016 193.451 52.9824 194.006 52.7441 194.498C52.5098 194.987 52.1719 195.367 51.7305 195.641C51.293 195.914 50.7891 196.051 50.2188 196.051C49.3594 196.051 48.6621 195.752 48.127 195.155C47.5957 194.557 47.3301 193.766 47.3301 192.782V192.705ZM48.4199 192.834C48.4199 193.537 48.582 194.102 48.9062 194.528C49.2344 194.953 49.6719 195.166 50.2188 195.166C50.7695 195.166 51.207 194.951 51.5312 194.522C51.8555 194.088 52.0176 193.483 52.0176 192.705C52.0176 192.01 51.8516 191.448 51.5195 191.018C51.1914 190.584 50.7539 190.367 50.207 190.367C49.6719 190.367 49.2402 190.58 48.9121 191.006C48.584 191.432 48.4199 192.041 48.4199 192.834ZM54.1973 192.711C54.1973 191.739 54.4277 190.957 54.8887 190.367C55.3496 189.774 55.9531 189.477 56.6992 189.477C57.4414 189.477 58.0293 189.731 58.4629 190.239V186.934H59.5469V195.934H58.5508L58.498 195.254C58.0645 195.785 57.4609 196.051 56.6875 196.051C55.9531 196.051 55.3535 195.75 54.8887 195.149C54.4277 194.547 54.1973 193.762 54.1973 192.793V192.711ZM55.2812 192.834C55.2812 193.553 55.4297 194.116 55.7266 194.522C56.0234 194.928 56.4336 195.131 56.957 195.131C57.6445 195.131 58.1465 194.823 58.4629 194.205V191.293C58.1387 190.696 57.6406 190.397 56.9688 190.397C56.4375 190.397 56.0234 190.602 55.7266 191.012C55.4297 191.422 55.2812 192.03 55.2812 192.834ZM63.3086 194.346L64.7852 189.594H65.9453L63.3965 196.912C63.002 197.967 62.375 198.494 61.5156 198.494L61.3105 198.477L60.9062 198.401V197.522L61.1992 197.545C61.5664 197.545 61.8516 197.471 62.0547 197.323C62.2617 197.174 62.4316 196.903 62.5645 196.508L62.8047 195.864L60.543 189.594H61.7266L63.3086 194.346ZM70.7559 192.125L66.8828 190.608V189.494L71.8867 191.709V192.565L66.8828 194.785V193.66L70.7559 192.125ZM35.5 248.16L39.168 249.643V250.791L34.375 248.571V247.715L39.168 245.5V246.649L35.5 248.16ZM41.0957 252.666H40.1641L43.7266 243.403H44.6523L41.0957 252.666ZM51.1914 248.834C51.1914 249.803 50.9688 250.582 50.5234 251.172C50.0781 251.758 49.4805 252.051 48.7305 252.051C47.9297 252.051 47.3105 251.768 46.873 251.201L46.8203 251.934H45.8242V242.934H46.9082V246.291C47.3457 245.748 47.9492 245.477 48.7188 245.477C49.4883 245.477 50.0918 245.768 50.5293 246.35C50.9707 246.932 51.1914 247.729 51.1914 248.741V248.834ZM50.1074 248.711C50.1074 247.973 49.9648 247.403 49.6797 247C49.3945 246.598 48.9844 246.397 48.4492 246.397C47.7344 246.397 47.2207 246.729 46.9082 247.393V250.135C47.2402 250.799 47.7578 251.131 48.4609 251.131C48.9805 251.131 49.3848 250.93 49.6738 250.528C49.9629 250.125 50.1074 249.52 50.1074 248.711ZM52.2754 248.705C52.2754 248.084 52.3965 247.526 52.6387 247.03C52.8848 246.534 53.2246 246.151 53.6582 245.881C54.0957 245.612 54.5938 245.477 55.1523 245.477C56.0156 245.477 56.7129 245.776 57.2441 246.373C57.7793 246.971 58.0469 247.766 58.0469 248.758V248.834C58.0469 249.451 57.9277 250.006 57.6895 250.498C57.4551 250.987 57.1172 251.367 56.6758 251.641C56.2383 251.914 55.7344 252.051 55.1641 252.051C54.3047 252.051 53.6074 251.752 53.0723 251.155C52.541 250.557 52.2754 249.766 52.2754 248.782V248.705ZM53.3652 248.834C53.3652 249.537 53.5273 250.102 53.8516 250.528C54.1797 250.953 54.6172 251.166 55.1641 251.166C55.7148 251.166 56.1523 250.951 56.4766 250.522C56.8008 250.088 56.9629 249.483 56.9629 248.705C56.9629 248.01 56.7969 247.448 56.4648 247.018C56.1367 246.584 55.6992 246.367 55.1523 246.367C54.6172 246.367 54.1855 246.58 53.8574 247.006C53.5293 247.432 53.3652 248.041 53.3652 248.834ZM59.1426 248.711C59.1426 247.739 59.373 246.957 59.834 246.367C60.2949 245.774 60.8984 245.477 61.6445 245.477C62.3867 245.477 62.9746 245.731 63.4082 246.239V242.934H64.4922V251.934H63.4961L63.4434 251.254C63.0098 251.785 62.4062 252.051 61.6328 252.051C60.8984 252.051 60.2988 251.75 59.834 251.149C59.373 250.547 59.1426 249.762 59.1426 248.793V248.711ZM60.2266 248.834C60.2266 249.553 60.375 250.116 60.6719 250.522C60.9688 250.928 61.3789 251.131 61.9023 251.131C62.5898 251.131 63.0918 250.823 63.4082 250.205V247.293C63.084 246.696 62.5859 246.397 61.9141 246.397C61.3828 246.397 60.9688 246.602 60.6719 247.012C60.375 247.422 60.2266 248.03 60.2266 248.834ZM68.2539 250.346L69.7305 245.594H70.8906L68.3418 252.912C67.9473 253.967 67.3203 254.494 66.4609 254.494L66.2559 254.477L65.8516 254.401V253.522L66.1445 253.545C66.5117 253.545 66.7969 253.471 67 253.323C67.207 253.174 67.377 252.903 67.5098 252.508L67.75 251.864L65.4883 245.594H66.6719L68.2539 250.346ZM75.7012 248.125L71.8281 246.608V245.494L76.832 247.709V248.565L71.8281 250.785V249.66L75.7012 248.125Z" fill="#706EE4"/>
<path d="M47.4062 206.16L51.0742 207.643V208.791L46.2812 206.571V205.715L51.0742 203.5V204.649L47.4062 206.16ZM53.8691 204.362C54.3496 203.772 54.9746 203.477 55.7441 203.477C57.084 203.477 57.7598 204.233 57.7715 205.744V209.934H56.6875V205.739C56.6836 205.282 56.5781 204.944 56.3711 204.725C56.168 204.506 55.8496 204.397 55.416 204.397C55.0645 204.397 54.7559 204.491 54.4902 204.678C54.2246 204.866 54.0176 205.112 53.8691 205.416V209.934H52.7852V200.934H53.8691V204.362ZM62.8457 209.934H61.7559V202.709L59.5703 203.512V202.528L62.6758 201.362H62.8457V209.934ZM69.9707 206.125L66.0977 204.608V203.494L71.1016 205.709V206.565L66.0977 208.785V207.66L69.9707 206.125Z" fill="#409B55"/>
<path d="M47.4062 234.16L51.0742 235.643V236.791L46.2812 234.571V233.715L51.0742 231.5V232.649L47.4062 234.16ZM53.002 238.666H52.0703L55.6328 229.403H56.5586L53.002 238.666ZM58.8145 232.362C59.2949 231.772 59.9199 231.477 60.6895 231.477C62.0293 231.477 62.7051 232.233 62.7168 233.744V237.934H61.6328V233.739C61.6289 233.282 61.5234 232.944 61.3164 232.725C61.1133 232.506 60.7949 232.397 60.3613 232.397C60.0098 232.397 59.7012 232.491 59.4355 232.678C59.1699 232.866 58.9629 233.112 58.8145 233.416V237.934H57.7305V228.934H58.8145V232.362ZM67.791 237.934H66.7012V230.709L64.5156 231.512V230.528L67.6211 229.362H67.791V237.934ZM74.916 234.125L71.043 232.608V231.494L76.0469 233.709V234.565L71.043 236.785V235.66L74.916 234.125Z" fill="#408550"/>
<path d="M433.5 300.032L430 276.63C408.5 296.547 400.847 304.206 387 289.078L391 308.497L432 307.501L433.5 300.032Z" fill="#E4C7AC" stroke="#DCB897"/>
<path d="M362 220.862C363.241 195.127 371.555 175.8 407.5 181.526C403.778 180.817 421 183.518 425.5 184.016C430 184.514 421 210.406 433.5 230.821C446 251.236 435.109 255.677 433.5 270.655C430.481 277.135 426.601 281.082 416.5 288.58C405.389 297.891 399.148 298.061 388 290.074C378.894 282.984 373.818 277.335 365 253.227C365.194 240.839 365.726 233.971 362 220.862Z" fill="url(#paint0_linear)" fill-opacity="0.69" stroke="black"/>
<path d="M389 236.071C394.021 233.544 398.327 233.898 402 236.071" stroke="black"/>
<path d="M531 471.817C531 471.817 530.468 422.277 531 408.082C520.508 406.103 509.973 406.912 488.5 412.563L485.5 416.049C491.135 432.707 496.794 448.342 499 460.364C495.536 467.831 469.539 460.618 451.5 465.344C446.96 466.533 440 468.829 440 468.829L444.5 497.709L451.5 493.725H457L471 497.709C482.325 499.631 485.5 501.692 496 501.692C508.6 500.294 514.757 499.717 525.5 494.721C529.5 490.24 531 485.974 531 471.817Z" fill="#DBB399"/>
<path d="M499 460.364C495.536 467.831 469.539 460.618 451.5 465.344C446.96 466.533 440 468.829 440 468.829L444.5 497.709L451.5 493.725H457L471 497.709C482.325 499.631 485.5 501.692 496 501.692C508.6 500.294 514.757 499.717 525.5 494.721C529.5 490.24 531 485.974 531 471.817C531 471.817 530.468 422.277 531 408.082C520.508 406.103 509.973 406.912 488.5 412.563L485.5 416.049C491.135 432.707 496.794 448.342 499 460.364ZM499 460.364C502.464 452.898 487.133 463.062 499 460.364Z" stroke="#C2A387"/>
<path d="M403.5 224.846C403.345 224.062 403.568 223.625 405 222.854" stroke="#503834"/>
<path d="M403 299.036C393 297.045 385 293.061 385 293.061L389 308.995L365.5 321.941C353.15 340.759 347.752 352.076 346 376.215L350 395.136L354.5 407.584L425.5 410.074V471.319C425.5 471.319 475 465.343 480 464.846C485 464.348 489.5 465.343 494 463.85C498.5 462.356 499.5 462.587 499.5 459.368C499.5 453.891 496.12 446.951 495 443.435C491.033 430.982 487 421.526 489 419.534C491 417.543 492.5 417.543 492.5 417.543L538 410.074C538 410.074 538 407.086 535.75 402.605C533.5 398.124 507.341 371.564 506.5 371.236C506.5 371.236 481 341.858 480 340.364C479 338.87 468 321.941 468 321.941C468 321.941 447.725 318.757 442 308.995C438.774 303.495 438.5 293.061 438.5 293.061C438.5 293.061 428.5 298.041 425.5 299.036C422.5 300.032 413 301.028 403 299.036Z" fill="url(#paint1_linear)" stroke="#3A5646" stroke-opacity="0.92"/>
<path d="M489 416.547L484.8 402.735L482 383.684L484.8 408.45" stroke="#14251B"/>
<path d="M370 236.796C369.966 238.977 378.667 241.967 384.286 236.796C378.014 237.659 374.935 237.597 370 236.796Z" fill="url(#paint2_linear)" stroke="#3F2727"/>
<path d="M407 236.298C407 237.792 416 241.277 421.286 236.298C414.789 237.212 411.806 237.068 407 236.298Z" fill="url(#paint3_linear)" stroke="#3F2727"/>
<path d="M389.833 260.696C386.333 260.696 388.5 253.725 388.5 253.725C389.805 249.21 391.909 248.217 396.333 247.252C400.318 246.894 401.166 250.648 402.833 252.729C404.5 254.81 405.5 258.705 402.833 259.7C400.166 260.696 398.833 262.19 396.333 262.19C393.833 262.19 393.333 260.696 389.833 260.696Z" fill="url(#paint4_linear)" stroke="url(#paint5_linear)"/>
<path d="M409.5 221.36C407.352 221.749 405.5 221.858 403.5 223.85C402 224.529 405 225.842 405 225.842C405 225.842 407.5 225.344 413 224.348C418.5 223.352 419.744 224.024 423 224.348L427 225.842L426.5 224.348L425 222.356L422 221.36C416.904 221.057 414.144 220.205 409.5 221.36Z" fill="#3F2727" stroke="#76584B" stroke-opacity="0.67"/>
<path d="M387 272.646C387.163 272.794 387.326 272.937 387.488 273.077C392.524 275.904 425.153 266.295 417 269.161C408.612 272.109 399.62 283.525 387.488 273.077C387.273 272.956 387.109 272.814 387 272.646Z" fill="#3F2727"/>
<path d="M387 272.646C399.38 283.831 408.5 272.148 417 269.161C425.5 266.173 389.674 276.744 387 272.646Z" stroke="#503834"/>
<path d="M387 272.646C391 278.124 401.949 274.86 418 268.663" stroke="#503834"/>
<path d="M371.5 220.862C367.267 222.375 365.964 223.392 364.5 225.344L364 226.837L368.5 224.846C370.559 224.296 371.531 224.204 373 224.348L376.5 224.846L385 226.837V225.344L381.5 223.352C378.642 222.129 376.4 221.597 371.5 220.862Z" fill="#3F2727" stroke="#3F2727" stroke-opacity="0.67"/>
<path d="M421.168 187.59C395.509 171.35 366.001 193.996 363 214.887C359.999 235.778 364.5 247.252 366.5 251.734C368.5 256.215 390.183 291.94 378 313.984C378 313.984 364.131 337.276 356 351.817C347.869 366.357 348.959 377.559 351.5 394.14C354.041 410.722 294.5 412.065 294.5 412.065L301.5 368.248C306.805 342.304 318.688 323.196 327.013 307.304C335.337 291.413 340.555 274.038 351.5 217.875C362.5 178.041 375 156.63 410.5 154.638C430.257 156.888 448.5 175.551 448.5 175.551C467.182 198.478 485.298 232.686 498.5 295.551C516 328.414 533.5 344.348 538.5 357.792C543.5 371.236 545.246 389.905 543.5 399.617L540.5 412.065C540.5 412.065 527.86 394.466 508 374.721C489.148 357.981 448.716 336.225 439.5 313.984C430.284 291.743 428.275 243.391 432 233.31C413.851 220.862 428 202.439 421.168 187.59Z" fill="url(#paint6_linear)"/>
<path d="M421.168 187.59C395.509 171.35 366.001 193.996 363 214.887C359.999 235.778 364.5 247.252 366.5 251.734C368.5 256.215 390.183 291.94 378 313.984C378 313.984 364.131 337.276 356 351.817C347.869 366.357 348.959 377.559 351.5 394.14C354.041 410.722 294.5 412.065 294.5 412.065L301.5 368.248C306.805 342.304 318.688 323.196 327.013 307.304C335.337 291.413 340.555 274.038 351.5 217.875C362.5 178.041 375 156.63 410.5 154.638C430.257 156.888 448.5 175.551 448.5 175.551C467.182 198.478 485.298 232.686 498.5 295.551C516 328.414 533.5 344.348 538.5 357.792C543.5 371.236 545.246 389.905 543.5 399.617L540.5 412.065C540.5 412.065 527.86 394.466 508 374.721C489.148 357.981 448.716 336.225 439.5 313.984C430.284 291.743 428.275 243.391 432 233.31M421.168 187.59C431.83 196.189 435.725 223.229 432 233.31M421.168 187.59C428 202.439 413.851 220.862 432 233.31" stroke="url(#paint7_linear)"/>
<path d="M246 509.659L221 396.63L431.5 399.119L439 456.879L446.5 500.696L457.5 493.725L472.5 498.207L446.5 514.638L246 509.659Z" fill="#302F34"/>
<path d="M446.5 514.638L246 509.659L221 396.63L431.5 399.119L439 456.879M446.5 514.638L472.5 498.207L457.5 493.725L446.5 500.696L439 456.879M446.5 514.638L439 456.879" stroke="black"/>
<path d="M426.5 241.253C426.5 247.788 420.927 253.126 414 253.126C407.073 253.126 401.5 247.788 401.5 241.253C401.5 234.718 407.073 229.379 414 229.379C420.927 229.379 426.5 234.718 426.5 241.253Z" stroke="black"/>
<path d="M389.5 242.284C389.5 248.819 383.927 254.158 377 254.158C370.073 254.158 364.5 248.819 364.5 242.284C364.5 235.749 370.073 230.411 377 230.411C383.927 230.411 389.5 235.749 389.5 242.284Z" stroke="black"/>
<path d="M426 239.191H429L430 235.066" stroke="black"/>
<defs>
<linearGradient id="paint0_linear" x1="399.282" y1="180.515" x2="399.282" y2="295.829" gradientUnits="userSpaceOnUse">
<stop stop-color="#E19854"/>
<stop offset="1" stop-color="#E3B080" stop-opacity="0.79"/>
</linearGradient>
<linearGradient id="paint1_linear" x1="442.25" y1="293.061" x2="442.25" y2="467.335" gradientUnits="userSpaceOnUse">
<stop offset="0.015625" stop-color="#558368"/>
<stop offset="0.723958" stop-color="#0E1D14"/>
</linearGradient>
<linearGradient id="paint2_linear" x1="397.286" y1="235.396" x2="397.286" y2="240.799" gradientUnits="userSpaceOnUse">
<stop offset="0.9999" stop-color="#3F2727"/>
<stop offset="1" stop-color="#3A1515" stop-opacity="0.48"/>
</linearGradient>
<linearGradient id="paint3_linear" x1="434.286" y1="234.804" x2="434.286" y2="240.571" gradientUnits="userSpaceOnUse">
<stop offset="0.9999" stop-color="#3F2727"/>
<stop offset="1" stop-color="#3A1515" stop-opacity="0.48"/>
</linearGradient>
<linearGradient id="paint4_linear" x1="396.333" y1="247.252" x2="396.333" y2="260.696" gradientUnits="userSpaceOnUse">
<stop offset="0.598958" stop-color="#ECC2A0"/>
<stop offset="1" stop-color="#E3B68D"/>
</linearGradient>
<linearGradient id="paint5_linear" x1="396.333" y1="247.252" x2="396.333" y2="260.696" gradientUnits="userSpaceOnUse">
<stop offset="0.640625" stop-color="#ECC29F"/>
<stop offset="1" stop-color="#3F2727" stop-opacity="0.6"/>
</linearGradient>
<linearGradient id="paint6_linear" x1="420.75" y1="154.638" x2="420.75" y2="398.621" gradientUnits="userSpaceOnUse">
<stop stop-color="#472813"/>
<stop offset="1" stop-color="#895633"/>
</linearGradient>
<linearGradient id="paint7_linear" x1="420.75" y1="154.638" x2="420.75" y2="398.621" gradientUnits="userSpaceOnUse">
<stop stop-color="#3F2727"/>
<stop offset="1" stop-color="#763232" stop-opacity="0"/>
</linearGradient>
</defs>
</svg>
