<svg width="843" height="556" viewBox="0 0 843 556" fill="none" xmlns="http://www.w3.org/2000/svg">
<path d="M336.181 58.6602C347.072 -64.9453 169.875 44.274 135.732 73.0462C101.59 101.818 153.354 197.725 153.354 197.725C67.5939 191.234 278.909 281.643 181.99 267.257C85.0696 252.871 76.5 509 191.5 526.5C393.343 565.369 497.281 562.974 672.096 531C846.911 499.026 828.489 519.012 840.604 454.275C850.443 401.701 807.336 90.8575 740.38 158.163C673.425 225.469 642.359 87.4325 642.359 87.4325C568.19 -133.829 325.289 182.266 336.181 58.6602Z" fill="#FAF1F1" stroke="#CFACAC"/>
<rect width="275" height="6.20956" transform="matrix(1 0 0 -1 492 443.292)" fill="#3C3143" fill-opacity="0.59"/>
<rect x="492" y="218.506" width="275" height="168.9" fill="#302F34"/>
<rect x="612.577" y="387.406" width="23.2692" height="39.7412" fill="#302F34"/>
<rect x="603.058" y="427.147" width="40.1923" height="9.93529" fill="#302F34"/>
<rect x="501.519" y="229.683" width="254.904" height="145.304" fill="#FAF1F1"/>
<rect x="597.212" y="291.037" width="146.019" height="66.0632" rx="4.5" fill="#FAF1F1" stroke="#585656"/>
<path d="M743.202 298.609H597.769C597.408 293.938 598.016 292.339 600.413 291.158H738.442C742.235 291.73 743.192 293.463 743.202 298.609Z" fill="#585656" stroke="#585656"/>
<ellipse cx="614.163" cy="294.883" rx="1.58654" ry="1.86287" fill="white"/>
<ellipse cx="614.163" cy="294.883" rx="1.58654" ry="1.86287" fill="white"/>
<ellipse cx="603.587" cy="294.883" rx="1.58654" ry="1.86287" fill="white"/>
<ellipse cx="608.875" cy="294.883" rx="1.58654" ry="1.86287" fill="white"/>
<rect x="619.981" y="293.021" width="116.346" height="3.72573" fill="white"/>
<path d="M642.886 325.248L652.056 328.954V331.825L640.074 326.273V324.135L652.056 318.598V321.469L642.886 325.248ZM664.317 336.513H661.988L670.894 313.353H673.209L664.317 336.513ZM693.174 325.16L683.492 321.366V318.583L696.002 324.12V326.259L683.492 331.81V328.998L693.174 325.16Z" fill="#3C3143" fill-opacity="0.59"/>
<rect x="515.769" y="240.118" width="146.019" height="66.0632" rx="4.5" fill="#FAF1F1" stroke="#585656"/>
<path d="M661.76 247.691H516.327C515.966 243.02 516.574 241.421 518.971 240.239H657C660.793 240.811 661.749 242.544 661.76 247.691Z" fill="#585656" stroke="#585656"/>
<ellipse cx="532.721" cy="243.965" rx="1.58654" ry="1.86287" fill="white"/>
<ellipse cx="532.721" cy="243.965" rx="1.58654" ry="1.86287" fill="white"/>
<ellipse cx="522.144" cy="243.965" rx="1.58654" ry="1.86287" fill="white"/>
<ellipse cx="527.433" cy="243.965" rx="1.58654" ry="1.86287" fill="white"/>
<rect x="538.538" y="242.102" width="116.346" height="3.72573" fill="white"/>
<rect x="523.731" y="255.763" width="108.942" height="3.72573" fill="#F7CBE5"/>
<rect x="523.731" y="286.811" width="108.942" height="3.72573" fill="#C2DAC9"/>
<rect x="523.731" y="295.504" width="116.346" height="3.72573" fill="#3C3143" fill-opacity="0.59"/>
<rect x="523.731" y="263.215" width="84.6154" height="3.72573" fill="#3C3143" fill-opacity="0.59"/>
<rect x="523.731" y="270.666" width="89.9038" height="3.72573" fill="#C2DAC9"/>
<rect x="523.731" y="278.118" width="84.6154" height="3.72573" fill="#C4C4C4"/>
<path d="M364 231.395L363.5 242.737H365" stroke="black"/>
<rect x="2.5" y="60.5" width="357" height="272.374" fill="#FAF1F1" stroke="#302F34" stroke-width="5"/>
<rect x="264.43" y="179.954" width="72.4" height="41.606" fill="#C2DAC9" fill-opacity="0.78"/>
<path d="M288.786 202.31H286.615V206.049H285.39V196.807H288.449C289.49 196.807 290.29 197.044 290.849 197.518C291.412 197.992 291.693 198.682 291.693 199.587C291.693 200.163 291.536 200.664 291.223 201.092C290.914 201.519 290.483 201.838 289.928 202.05L292.099 205.973V206.049H290.792L288.786 202.31ZM286.615 201.314H288.487C289.093 201.314 289.573 201.157 289.928 200.844C290.288 200.531 290.468 200.112 290.468 199.587C290.468 199.016 290.297 198.578 289.954 198.273C289.615 197.969 289.124 197.814 288.481 197.81H286.615V201.314ZM296.073 206.176C295.142 206.176 294.384 205.871 293.8 205.262C293.216 204.648 292.924 203.83 292.924 202.805V202.59C292.924 201.908 293.054 201.301 293.312 200.768C293.574 200.23 293.938 199.811 294.404 199.511C294.873 199.206 295.381 199.054 295.927 199.054C296.82 199.054 297.514 199.348 298.009 199.936C298.504 200.524 298.752 201.367 298.752 202.463V202.951H294.099C294.116 203.628 294.313 204.177 294.689 204.595C295.07 205.01 295.552 205.218 296.136 205.218C296.551 205.218 296.902 205.133 297.19 204.964C297.478 204.794 297.73 204.57 297.945 204.291L298.663 204.849C298.087 205.734 297.224 206.176 296.073 206.176ZM295.927 200.019C295.453 200.019 295.055 200.192 294.734 200.539C294.412 200.882 294.213 201.365 294.137 201.987H297.577V201.898C297.543 201.301 297.383 200.84 297.095 200.514C296.807 200.184 296.418 200.019 295.927 200.019ZM304.357 206.049C304.289 205.914 304.234 205.672 304.192 205.325C303.646 205.892 302.994 206.176 302.237 206.176C301.559 206.176 301.003 205.986 300.567 205.605C300.135 205.22 299.92 204.733 299.92 204.145C299.92 203.43 300.19 202.875 300.732 202.482C301.278 202.084 302.044 201.885 303.03 201.885H304.173V201.345C304.173 200.935 304.05 200.609 303.804 200.368C303.559 200.122 303.197 200 302.719 200C302.3 200 301.949 200.106 301.665 200.317C301.382 200.529 301.24 200.785 301.24 201.085H300.059C300.059 200.742 300.18 200.412 300.421 200.095C300.667 199.773 300.997 199.519 301.411 199.333C301.83 199.147 302.289 199.054 302.789 199.054C303.58 199.054 304.2 199.253 304.649 199.651C305.097 200.044 305.33 200.588 305.347 201.282V204.443C305.347 205.074 305.427 205.575 305.588 205.948V206.049H304.357ZM302.408 205.154C302.776 205.154 303.125 205.059 303.455 204.868C303.785 204.678 304.024 204.43 304.173 204.126V202.717H303.252C301.813 202.717 301.094 203.138 301.094 203.98C301.094 204.348 301.217 204.636 301.462 204.843C301.708 205.05 302.023 205.154 302.408 205.154ZM309.943 205.218C310.362 205.218 310.728 205.091 311.041 204.837C311.354 204.583 311.527 204.265 311.561 203.885H312.672C312.651 204.278 312.515 204.653 312.266 205.008C312.016 205.364 311.682 205.647 311.263 205.859C310.848 206.07 310.408 206.176 309.943 206.176C309.007 206.176 308.263 205.865 307.708 205.243C307.158 204.617 306.883 203.762 306.883 202.678V202.482C306.883 201.813 307.006 201.219 307.251 200.698C307.497 200.177 307.848 199.773 308.305 199.486C308.766 199.198 309.31 199.054 309.936 199.054C310.706 199.054 311.345 199.285 311.853 199.746C312.365 200.207 312.638 200.806 312.672 201.542H311.561C311.527 201.098 311.358 200.734 311.053 200.45C310.753 200.163 310.381 200.019 309.936 200.019C309.34 200.019 308.876 200.235 308.546 200.666C308.22 201.094 308.057 201.714 308.057 202.526V202.748C308.057 203.54 308.22 204.149 308.546 204.576C308.872 205.004 309.337 205.218 309.943 205.218ZM315.586 197.518V199.181H316.868V200.089H315.586V204.348C315.586 204.623 315.643 204.83 315.757 204.97C315.871 205.105 316.066 205.173 316.341 205.173C316.476 205.173 316.663 205.148 316.9 205.097V206.049C316.591 206.134 316.29 206.176 315.998 206.176C315.473 206.176 315.078 206.017 314.811 205.7C314.545 205.383 314.411 204.932 314.411 204.348V200.089H313.161V199.181H314.411V197.518H315.586Z" fill="black"/>
<path d="M273.48 177.874L263.445 193.713" stroke="black" stroke-width="3"/>
<line y1="-1.5" x2="18.0532" y2="-1.5" transform="matrix(-0.534716 0.845032 -0.767259 -0.641338 336.83 207.691)" stroke="black" stroke-width="3"/>
<rect x="229.233" y="262.473" width="72.4" height="41.606" fill="#C4C4C4" fill-opacity="0.78"/>
<path d="M248.176 285.588H244.304L243.435 288H242.178L245.707 278.758H246.773L250.309 288H249.059L248.176 285.588ZM244.672 284.585H247.814L246.24 280.262L244.672 284.585ZM252.48 281.132L252.518 281.995C253.043 281.335 253.728 281.005 254.575 281.005C256.026 281.005 256.758 281.824 256.771 283.461V288H255.597V283.455C255.592 282.96 255.478 282.594 255.254 282.357C255.034 282.12 254.689 282.001 254.219 282.001C253.838 282.001 253.504 282.103 253.216 282.306C252.929 282.509 252.704 282.776 252.543 283.106V288H251.369V281.132H252.48ZM258.263 284.509C258.263 283.438 258.51 282.588 259.005 281.957C259.5 281.322 260.156 281.005 260.973 281.005C261.811 281.005 262.465 281.301 262.935 281.894L262.992 281.132H264.064V287.835C264.064 288.724 263.8 289.424 263.271 289.936C262.746 290.448 262.04 290.704 261.151 290.704C260.656 290.704 260.171 290.598 259.697 290.387C259.223 290.175 258.861 289.885 258.612 289.517L259.221 288.812C259.725 289.435 260.34 289.746 261.068 289.746C261.64 289.746 262.084 289.585 262.401 289.263C262.723 288.942 262.884 288.489 262.884 287.905V287.314C262.414 287.856 261.773 288.127 260.96 288.127C260.156 288.127 259.505 287.803 259.005 287.156C258.51 286.508 258.263 285.626 258.263 284.509ZM259.443 284.642C259.443 285.417 259.602 286.026 259.919 286.47C260.237 286.91 260.681 287.13 261.252 287.13C261.993 287.13 262.537 286.794 262.884 286.121V282.985C262.524 282.329 261.985 282.001 261.265 282.001C260.694 282.001 260.247 282.224 259.926 282.668C259.604 283.112 259.443 283.77 259.443 284.642ZM270.082 287.321C269.625 287.858 268.954 288.127 268.07 288.127C267.338 288.127 266.779 287.915 266.394 287.492C266.013 287.065 265.821 286.434 265.816 285.601V281.132H266.991V285.569C266.991 286.61 267.414 287.13 268.26 287.13C269.157 287.13 269.754 286.796 270.05 286.127V281.132H271.225V288H270.107L270.082 287.321ZM274.291 288H273.116V278.25H274.291V288ZM280.416 288C280.348 287.865 280.293 287.623 280.251 287.276C279.705 287.843 279.053 288.127 278.296 288.127C277.619 288.127 277.062 287.937 276.626 287.556C276.195 287.171 275.979 286.684 275.979 286.096C275.979 285.381 276.25 284.826 276.792 284.433C277.337 284.035 278.103 283.836 279.089 283.836H280.232V283.296C280.232 282.886 280.109 282.56 279.864 282.319C279.618 282.073 279.257 281.951 278.778 281.951C278.359 281.951 278.008 282.056 277.725 282.268C277.441 282.48 277.299 282.736 277.299 283.036H276.119C276.119 282.693 276.239 282.363 276.48 282.046C276.726 281.724 277.056 281.47 277.471 281.284C277.89 281.098 278.349 281.005 278.848 281.005C279.639 281.005 280.259 281.204 280.708 281.602C281.157 281.995 281.389 282.539 281.406 283.233V286.394C281.406 287.025 281.487 287.526 281.647 287.898V288H280.416ZM278.467 287.105C278.835 287.105 279.185 287.01 279.515 286.819C279.845 286.629 280.084 286.381 280.232 286.077V284.667H279.312C277.873 284.667 277.153 285.089 277.153 285.931C277.153 286.299 277.276 286.587 277.521 286.794C277.767 287.001 278.082 287.105 278.467 287.105ZM286.567 282.186C286.389 282.156 286.197 282.141 285.989 282.141C285.219 282.141 284.696 282.469 284.421 283.125V288H283.247V281.132H284.39L284.409 281.925C284.794 281.312 285.34 281.005 286.046 281.005C286.275 281.005 286.448 281.035 286.567 281.094V282.186Z" fill="black"/>
<path d="M236.073 259.699L226.039 275.538" stroke="black" stroke-width="3"/>
<line y1="-1.5" x2="18.0532" y2="-1.5" transform="matrix(-0.534716 0.845032 -0.767259 -0.641338 301.633 288.823)" stroke="black" stroke-width="3"/>
<rect x="209.737" y="103.069" width="71.3821" height="40.256" fill="#DE4949" fill-opacity="0.78"/>
<path d="M239.797 118.062H241.023V124.606C241.023 125.491 240.756 126.183 240.223 126.682C239.694 127.181 238.987 127.431 238.103 127.431C237.184 127.431 236.469 127.196 235.957 126.727C235.445 126.257 235.189 125.599 235.189 124.752H236.408C236.408 125.281 236.552 125.694 236.839 125.99C237.131 126.286 237.552 126.435 238.103 126.435C238.606 126.435 239.012 126.276 239.321 125.958C239.635 125.641 239.793 125.197 239.797 124.625V118.062ZM245.821 123.185C244.776 122.884 244.014 122.516 243.536 122.08C243.062 121.64 242.825 121.098 242.825 120.455C242.825 119.727 243.115 119.126 243.695 118.652C244.279 118.174 245.036 117.935 245.967 117.935C246.602 117.935 247.167 118.058 247.662 118.303C248.162 118.549 248.547 118.887 248.817 119.319C249.093 119.75 249.23 120.222 249.23 120.734H248.005C248.005 120.176 247.827 119.738 247.472 119.42C247.116 119.099 246.615 118.938 245.967 118.938C245.366 118.938 244.897 119.071 244.558 119.338C244.224 119.6 244.057 119.966 244.057 120.436C244.057 120.813 244.215 121.132 244.533 121.395C244.854 121.653 245.398 121.89 246.164 122.105C246.934 122.321 247.535 122.56 247.967 122.823C248.403 123.081 248.724 123.383 248.932 123.73C249.143 124.077 249.249 124.486 249.249 124.956C249.249 125.705 248.957 126.306 248.373 126.758C247.789 127.207 247.008 127.431 246.031 127.431C245.396 127.431 244.804 127.311 244.253 127.069C243.703 126.824 243.278 126.49 242.978 126.066C242.681 125.643 242.533 125.163 242.533 124.625H243.758C243.758 125.184 243.964 125.626 244.374 125.952C244.789 126.274 245.341 126.435 246.031 126.435C246.674 126.435 247.167 126.303 247.51 126.041C247.853 125.779 248.024 125.421 248.024 124.968C248.024 124.515 247.865 124.166 247.548 123.921C247.231 123.671 246.655 123.426 245.821 123.185Z" fill="black"/>
<path d="M216.266 101.596L209.027 112.81" stroke="black" stroke-width="3"/>
<line y1="-1.5" x2="12.851" y2="-1.5" transform="matrix(-0.541913 0.840434 -0.773157 -0.634215 281.119 133.506)" stroke="black" stroke-width="3"/>
<path d="M29.8047 86.5977L34.084 88.3271V89.667L28.4922 87.0762V86.0781L34.084 83.4941V84.834L29.8047 86.5977ZM37.3447 84.499C37.9053 83.8109 38.6344 83.4668 39.5322 83.4668C41.0954 83.4668 41.8838 84.3486 41.8975 86.1123V91H40.6328V86.1055C40.6283 85.5723 40.5052 85.1781 40.2637 84.9229C40.0267 84.6676 39.6553 84.54 39.1494 84.54C38.7393 84.54 38.3792 84.6494 38.0693 84.8682C37.7594 85.0869 37.5179 85.374 37.3447 85.7295V91H36.0801V80.5H37.3447V84.499ZM45.5068 81.8125V83.6035H46.8877V84.5811H45.5068V89.168C45.5068 89.4642 45.5684 89.6875 45.6914 89.8379C45.8145 89.9837 46.0241 90.0566 46.3203 90.0566C46.4661 90.0566 46.6667 90.0293 46.9219 89.9746V91C46.5892 91.0911 46.2656 91.1367 45.9512 91.1367C45.3861 91.1367 44.96 90.9658 44.6729 90.624C44.3857 90.2822 44.2422 89.7969 44.2422 89.168V84.5811H42.8955V83.6035H44.2422V81.8125H45.5068ZM49.5605 83.6035L49.5947 84.4238C50.137 83.7858 50.8685 83.4668 51.7891 83.4668C52.8236 83.4668 53.5277 83.8633 53.9014 84.6562C54.1475 84.3008 54.4665 84.0137 54.8584 83.7949C55.2549 83.5762 55.722 83.4668 56.2598 83.4668C57.8822 83.4668 58.707 84.3258 58.7344 86.0439V91H57.4697V86.1191C57.4697 85.5905 57.349 85.1963 57.1074 84.9365C56.8659 84.6722 56.4603 84.54 55.8906 84.54C55.4212 84.54 55.0316 84.6813 54.7217 84.9639C54.4118 85.2419 54.2318 85.6178 54.1816 86.0918V91H52.9102V86.1533C52.9102 85.0778 52.3838 84.54 51.3311 84.54C50.5016 84.54 49.9342 84.8932 49.6289 85.5996V91H48.3643V83.6035H49.5605ZM62.0225 91H60.7578V80.5H62.0225V91ZM68.5303 86.5566L64.0117 84.7861V83.4873L69.8496 86.0713V87.0693L64.0117 89.6602V88.3477L68.5303 86.5566ZM90.959 234.104C91.4102 234.104 91.8044 233.968 92.1416 233.694C92.4788 233.421 92.6657 233.079 92.7021 232.669H93.8984C93.8757 233.093 93.7298 233.496 93.4609 233.879C93.1921 234.262 92.832 234.567 92.3809 234.795C91.9342 235.023 91.4603 235.137 90.959 235.137C89.9518 235.137 89.1497 234.802 88.5527 234.132C87.9603 233.457 87.6641 232.537 87.6641 231.37V231.158C87.6641 230.438 87.7962 229.798 88.0605 229.237C88.3249 228.677 88.7031 228.242 89.1953 227.932C89.6921 227.622 90.2777 227.467 90.9521 227.467C91.7816 227.467 92.4697 227.715 93.0166 228.212C93.568 228.709 93.862 229.354 93.8984 230.146H92.7021C92.6657 229.668 92.4834 229.276 92.1553 228.971C91.8317 228.661 91.4307 228.506 90.9521 228.506C90.3096 228.506 89.8105 228.738 89.4551 229.203C89.1042 229.663 88.9287 230.331 88.9287 231.206V231.445C88.9287 232.298 89.1042 232.954 89.4551 233.414C89.806 233.874 90.3073 234.104 90.959 234.104ZM94.9854 231.233C94.9854 230.509 95.1266 229.857 95.4092 229.278C95.6963 228.7 96.0928 228.253 96.5986 227.938C97.109 227.624 97.6901 227.467 98.3418 227.467C99.349 227.467 100.162 227.815 100.782 228.513C101.407 229.21 101.719 230.137 101.719 231.295V231.384C101.719 232.104 101.58 232.751 101.302 233.325C101.028 233.895 100.634 234.339 100.119 234.658C99.6087 234.977 99.0208 235.137 98.3555 235.137C97.3529 235.137 96.5394 234.788 95.915 234.091C95.2952 233.394 94.9854 232.471 94.9854 231.322V231.233ZM96.2568 231.384C96.2568 232.204 96.446 232.863 96.8242 233.359C97.207 233.856 97.7174 234.104 98.3555 234.104C98.998 234.104 99.5085 233.854 99.8867 233.353C100.265 232.847 100.454 232.14 100.454 231.233C100.454 230.422 100.26 229.766 99.873 229.265C99.4902 228.759 98.9798 228.506 98.3418 228.506C97.7174 228.506 97.2139 228.754 96.8311 229.251C96.4482 229.748 96.2568 230.459 96.2568 231.384ZM102.997 231.24C102.997 230.105 103.266 229.194 103.804 228.506C104.341 227.813 105.046 227.467 105.916 227.467C106.782 227.467 107.468 227.763 107.974 228.355V224.5H109.238V235H108.076L108.015 234.207C107.509 234.827 106.805 235.137 105.902 235.137C105.046 235.137 104.346 234.786 103.804 234.084C103.266 233.382 102.997 232.466 102.997 231.336V231.24ZM104.262 231.384C104.262 232.222 104.435 232.879 104.781 233.353C105.128 233.826 105.606 234.063 106.217 234.063C107.019 234.063 107.604 233.703 107.974 232.983V229.586C107.595 228.889 107.014 228.54 106.23 228.54C105.611 228.54 105.128 228.779 104.781 229.258C104.435 229.736 104.262 230.445 104.262 231.384ZM112.581 235H111.316V227.604H112.581V235ZM111.214 225.642C111.214 225.437 111.275 225.263 111.398 225.122C111.526 224.981 111.713 224.91 111.959 224.91C112.205 224.91 112.392 224.981 112.52 225.122C112.647 225.263 112.711 225.437 112.711 225.642C112.711 225.847 112.647 226.018 112.52 226.154C112.392 226.291 112.205 226.359 111.959 226.359C111.713 226.359 111.526 226.291 111.398 226.154C111.275 226.018 111.214 225.847 111.214 225.642ZM115.808 227.604L115.849 228.533C116.414 227.822 117.152 227.467 118.063 227.467C119.627 227.467 120.415 228.349 120.429 230.112V235H119.164V230.105C119.16 229.572 119.036 229.178 118.795 228.923C118.558 228.668 118.187 228.54 117.681 228.54C117.271 228.54 116.91 228.649 116.601 228.868C116.291 229.087 116.049 229.374 115.876 229.729V235H114.611V227.604H115.808ZM122.035 231.24C122.035 230.087 122.302 229.171 122.835 228.492C123.368 227.809 124.075 227.467 124.954 227.467C125.856 227.467 126.561 227.786 127.066 228.424L127.128 227.604H128.283V234.822C128.283 235.779 127.998 236.534 127.429 237.085C126.864 237.636 126.103 237.912 125.146 237.912C124.612 237.912 124.09 237.798 123.58 237.57C123.07 237.342 122.68 237.03 122.411 236.634L123.067 235.875C123.61 236.545 124.273 236.88 125.057 236.88C125.672 236.88 126.15 236.707 126.492 236.36C126.839 236.014 127.012 235.526 127.012 234.897V234.262C126.506 234.845 125.815 235.137 124.94 235.137C124.075 235.137 123.373 234.788 122.835 234.091C122.302 233.394 122.035 232.443 122.035 231.24ZM123.307 231.384C123.307 232.218 123.478 232.874 123.819 233.353C124.161 233.826 124.64 234.063 125.255 234.063C126.052 234.063 126.638 233.701 127.012 232.977V229.6C126.624 228.893 126.043 228.54 125.269 228.54C124.653 228.54 124.173 228.779 123.826 229.258C123.48 229.736 123.307 230.445 123.307 231.384ZM29.8047 310.598L34.084 312.327V313.667L28.4922 311.076V310.078L34.084 307.494V308.834L29.8047 310.598ZM36.333 315.854H35.2461L39.4023 305.047H40.4824L36.333 315.854ZM43.1143 308.499C43.6748 307.811 44.404 307.467 45.3018 307.467C46.8649 307.467 47.6533 308.349 47.667 310.112V315H46.4023V310.105C46.3978 309.572 46.2747 309.178 46.0332 308.923C45.7962 308.668 45.4248 308.54 44.9189 308.54C44.5088 308.54 44.1488 308.649 43.8389 308.868C43.529 309.087 43.2874 309.374 43.1143 309.729V315H41.8496V304.5H43.1143V308.499ZM51.2764 305.812V307.604H52.6572V308.581H51.2764V313.168C51.2764 313.464 51.3379 313.688 51.4609 313.838C51.584 313.984 51.7936 314.057 52.0898 314.057C52.2357 314.057 52.4362 314.029 52.6914 313.975V315C52.3587 315.091 52.0352 315.137 51.7207 315.137C51.1556 315.137 50.7295 314.966 50.4424 314.624C50.1553 314.282 50.0117 313.797 50.0117 313.168V308.581H48.665V307.604H50.0117V305.812H51.2764ZM55.3301 307.604L55.3643 308.424C55.9066 307.786 56.638 307.467 57.5586 307.467C58.5931 307.467 59.2972 307.863 59.6709 308.656C59.917 308.301 60.236 308.014 60.6279 307.795C61.0244 307.576 61.4915 307.467 62.0293 307.467C63.6517 307.467 64.4766 308.326 64.5039 310.044V315H63.2393V310.119C63.2393 309.59 63.1185 309.196 62.877 308.937C62.6354 308.672 62.2298 308.54 61.6602 308.54C61.1908 308.54 60.8011 308.681 60.4912 308.964C60.1813 309.242 60.0013 309.618 59.9512 310.092V315H58.6797V310.153C58.6797 309.078 58.1533 308.54 57.1006 308.54C56.2712 308.54 55.7038 308.893 55.3984 309.6V315H54.1338V307.604H55.3301ZM67.792 315H66.5273V304.5H67.792V315ZM74.2998 310.557L69.7812 308.786V307.487L75.6191 310.071V311.069L69.7812 313.66V312.348L74.2998 310.557Z" fill="#E46E6E"/>
<path d="M65.1943 135.104V139H63.8818V129.047H67.5527C68.6419 129.047 69.4941 129.325 70.1094 129.881C70.7292 130.437 71.0391 131.173 71.0391 132.089C71.0391 133.055 70.736 133.8 70.1299 134.324C69.5283 134.844 68.6647 135.104 67.5391 135.104H65.1943ZM65.1943 134.03H67.5527C68.2546 134.03 68.7923 133.866 69.166 133.538C69.5397 133.205 69.7266 132.727 69.7266 132.103C69.7266 131.51 69.5397 131.036 69.166 130.681C68.7923 130.325 68.2796 130.141 67.6279 130.127H65.1943V134.03ZM72.085 135.233C72.085 134.509 72.2262 133.857 72.5088 133.278C72.7959 132.7 73.1924 132.253 73.6982 131.938C74.2087 131.624 74.7897 131.467 75.4414 131.467C76.4486 131.467 77.262 131.815 77.8818 132.513C78.5062 133.21 78.8184 134.137 78.8184 135.295V135.384C78.8184 136.104 78.6794 136.751 78.4014 137.325C78.1279 137.895 77.7337 138.339 77.2188 138.658C76.7083 138.977 76.1204 139.137 75.4551 139.137C74.4525 139.137 73.639 138.788 73.0146 138.091C72.3949 137.394 72.085 136.471 72.085 135.322V135.233ZM73.3564 135.384C73.3564 136.204 73.5456 136.863 73.9238 137.359C74.3066 137.856 74.8171 138.104 75.4551 138.104C76.0977 138.104 76.6081 137.854 76.9863 137.353C77.3646 136.847 77.5537 136.14 77.5537 135.233C77.5537 134.422 77.36 133.766 76.9727 133.265C76.5898 132.759 76.0794 132.506 75.4414 132.506C74.8171 132.506 74.3135 132.754 73.9307 133.251C73.5479 133.748 73.3564 134.459 73.3564 135.384ZM83.9795 132.738C83.7881 132.706 83.5807 132.69 83.3574 132.69C82.528 132.69 81.9652 133.044 81.6689 133.75V139H80.4043V131.604H81.6348L81.6553 132.458C82.07 131.797 82.6579 131.467 83.4189 131.467C83.665 131.467 83.8519 131.499 83.9795 131.562V132.738ZM87.2061 129.812V131.604H88.5869V132.581H87.2061V137.168C87.2061 137.464 87.2676 137.688 87.3906 137.838C87.5137 137.984 87.7233 138.057 88.0195 138.057C88.1654 138.057 88.3659 138.029 88.6211 137.975V139C88.2884 139.091 87.9648 139.137 87.6504 139.137C87.0853 139.137 86.6592 138.966 86.3721 138.624C86.085 138.282 85.9414 137.797 85.9414 137.168V132.581H84.5947V131.604H85.9414V129.812H87.2061ZM90.6924 139V132.581H89.5234V131.604H90.6924V130.845C90.6924 130.052 90.9043 129.439 91.3281 129.006C91.752 128.573 92.3512 128.356 93.126 128.356C93.4176 128.356 93.707 128.395 93.9941 128.473L93.9258 129.498C93.7116 129.457 93.4837 129.437 93.2422 129.437C92.832 129.437 92.5153 129.557 92.292 129.799C92.0687 130.036 91.957 130.378 91.957 130.824V131.604H93.5361V132.581H91.957V139H90.6924ZM94.6025 135.233C94.6025 134.509 94.7438 133.857 95.0264 133.278C95.3135 132.7 95.71 132.253 96.2158 131.938C96.7262 131.624 97.3073 131.467 97.959 131.467C98.9661 131.467 99.7796 131.815 100.399 132.513C101.024 133.21 101.336 134.137 101.336 135.295V135.384C101.336 136.104 101.197 136.751 100.919 137.325C100.646 137.895 100.251 138.339 99.7363 138.658C99.2259 138.977 98.638 139.137 97.9727 139.137C96.9701 139.137 96.1566 138.788 95.5322 138.091C94.9124 137.394 94.6025 136.471 94.6025 135.322V135.233ZM95.874 135.384C95.874 136.204 96.0632 136.863 96.4414 137.359C96.8242 137.856 97.3346 138.104 97.9727 138.104C98.6152 138.104 99.1257 137.854 99.5039 137.353C99.8822 136.847 100.071 136.14 100.071 135.233C100.071 134.422 99.8776 133.766 99.4902 133.265C99.1074 132.759 98.597 132.506 97.959 132.506C97.3346 132.506 96.8311 132.754 96.4482 133.251C96.0654 133.748 95.874 134.459 95.874 135.384ZM104.296 139H103.031V128.5H104.296V139ZM107.7 139H106.436V131.604H107.7V139ZM106.333 129.642C106.333 129.437 106.395 129.263 106.518 129.122C106.645 128.981 106.832 128.91 107.078 128.91C107.324 128.91 107.511 128.981 107.639 129.122C107.766 129.263 107.83 129.437 107.83 129.642C107.83 129.847 107.766 130.018 107.639 130.154C107.511 130.291 107.324 130.359 107.078 130.359C106.832 130.359 106.645 130.291 106.518 130.154C106.395 130.018 106.333 129.847 106.333 129.642ZM109.396 135.233C109.396 134.509 109.537 133.857 109.819 133.278C110.106 132.7 110.503 132.253 111.009 131.938C111.519 131.624 112.1 131.467 112.752 131.467C113.759 131.467 114.573 131.815 115.192 132.513C115.817 133.21 116.129 134.137 116.129 135.295V135.384C116.129 136.104 115.99 136.751 115.712 137.325C115.438 137.895 115.044 138.339 114.529 138.658C114.019 138.977 113.431 139.137 112.766 139.137C111.763 139.137 110.95 138.788 110.325 138.091C109.705 137.394 109.396 136.471 109.396 135.322V135.233ZM110.667 135.384C110.667 136.204 110.856 136.863 111.234 137.359C111.617 137.856 112.128 138.104 112.766 138.104C113.408 138.104 113.919 137.854 114.297 137.353C114.675 136.847 114.864 136.14 114.864 135.233C114.864 134.422 114.671 133.766 114.283 133.265C113.9 132.759 113.39 132.506 112.752 132.506C112.128 132.506 111.624 132.754 111.241 133.251C110.858 133.748 110.667 134.459 110.667 135.384ZM91.123 219H89.8037V214.399H84.7861V219H83.4736V209.047H84.7861V213.326H89.8037V209.047H91.123V219ZM96.3252 219.137C95.3226 219.137 94.5068 218.809 93.8779 218.152C93.249 217.492 92.9346 216.61 92.9346 215.507V215.274C92.9346 214.541 93.0736 213.887 93.3516 213.312C93.6341 212.734 94.026 212.283 94.5273 211.959C95.0332 211.631 95.5801 211.467 96.168 211.467C97.1296 211.467 97.877 211.784 98.4102 212.417C98.9434 213.05 99.21 213.957 99.21 215.138V215.664H94.1992C94.2174 216.393 94.4294 216.983 94.835 217.435C95.2451 217.881 95.7646 218.104 96.3936 218.104C96.8402 218.104 97.2184 218.013 97.5283 217.831C97.8382 217.649 98.1094 217.407 98.3418 217.106L99.1143 217.708C98.4945 218.66 97.5648 219.137 96.3252 219.137ZM96.168 212.506C95.6576 212.506 95.2292 212.693 94.8828 213.066C94.5365 213.436 94.3223 213.955 94.2402 214.625H97.9453V214.529C97.9089 213.887 97.7357 213.39 97.4258 213.039C97.1159 212.684 96.6966 212.506 96.168 212.506ZM102.054 219H100.789V208.5H102.054V219ZM105.458 219H104.193V208.5H105.458V219ZM107.153 215.233C107.153 214.509 107.295 213.857 107.577 213.278C107.864 212.7 108.261 212.253 108.767 211.938C109.277 211.624 109.858 211.467 110.51 211.467C111.517 211.467 112.33 211.815 112.95 212.513C113.575 213.21 113.887 214.137 113.887 215.295V215.384C113.887 216.104 113.748 216.751 113.47 217.325C113.196 217.895 112.802 218.339 112.287 218.658C111.777 218.977 111.189 219.137 110.523 219.137C109.521 219.137 108.707 218.788 108.083 218.091C107.463 217.394 107.153 216.471 107.153 215.322V215.233ZM108.425 215.384C108.425 216.204 108.614 216.863 108.992 217.359C109.375 217.856 109.885 218.104 110.523 218.104C111.166 218.104 111.676 217.854 112.055 217.353C112.433 216.847 112.622 216.14 112.622 215.233C112.622 214.422 112.428 213.766 112.041 213.265C111.658 212.759 111.148 212.506 110.51 212.506C109.885 212.506 109.382 212.754 108.999 213.251C108.616 213.748 108.425 214.459 108.425 215.384ZM121.29 215.862L121.481 217.175L121.762 215.992L123.73 209.047H124.838L126.759 215.992L127.032 217.195L127.244 215.855L128.789 209.047H130.108L127.695 219H126.499L124.448 211.747L124.291 210.988L124.134 211.747L122.008 219H120.812L118.405 209.047H119.718L121.29 215.862ZM130.819 215.233C130.819 214.509 130.961 213.857 131.243 213.278C131.53 212.7 131.927 212.253 132.433 211.938C132.943 211.624 133.524 211.467 134.176 211.467C135.183 211.467 135.996 211.815 136.616 212.513C137.241 213.21 137.553 214.137 137.553 215.295V215.384C137.553 216.104 137.414 216.751 137.136 217.325C136.862 217.895 136.468 218.339 135.953 218.658C135.443 218.977 134.855 219.137 134.189 219.137C133.187 219.137 132.373 218.788 131.749 218.091C131.129 217.394 130.819 216.471 130.819 215.322V215.233ZM132.091 215.384C132.091 216.204 132.28 216.863 132.658 217.359C133.041 217.856 133.551 218.104 134.189 218.104C134.832 218.104 135.342 217.854 135.721 217.353C136.099 216.847 136.288 216.14 136.288 215.233C136.288 214.422 136.094 213.766 135.707 213.265C135.324 212.759 134.814 212.506 134.176 212.506C133.551 212.506 133.048 212.754 132.665 213.251C132.282 213.748 132.091 214.459 132.091 215.384ZM142.714 212.738C142.522 212.706 142.315 212.69 142.092 212.69C141.262 212.69 140.7 213.044 140.403 213.75V219H139.139V211.604H140.369L140.39 212.458C140.804 211.797 141.392 211.467 142.153 211.467C142.399 211.467 142.586 211.499 142.714 211.562V212.738ZM145.257 219H143.992V208.5H145.257V219ZM146.979 215.24C146.979 214.105 147.248 213.194 147.786 212.506C148.324 211.813 149.028 211.467 149.898 211.467C150.764 211.467 151.45 211.763 151.956 212.355V208.5H153.221V219H152.059L151.997 218.207C151.491 218.827 150.787 219.137 149.885 219.137C149.028 219.137 148.328 218.786 147.786 218.084C147.248 217.382 146.979 216.466 146.979 215.336V215.24ZM148.244 215.384C148.244 216.222 148.417 216.879 148.764 217.353C149.11 217.826 149.589 218.063 150.199 218.063C151.001 218.063 151.587 217.703 151.956 216.983V213.586C151.578 212.889 150.997 212.54 150.213 212.54C149.593 212.54 149.11 212.779 148.764 213.258C148.417 213.736 148.244 214.445 148.244 215.384ZM155.217 218.337C155.217 218.118 155.281 217.936 155.408 217.79C155.54 217.644 155.736 217.571 155.996 217.571C156.256 217.571 156.452 217.644 156.584 217.79C156.721 217.936 156.789 218.118 156.789 218.337C156.789 218.547 156.721 218.722 156.584 218.863C156.452 219.005 156.256 219.075 155.996 219.075C155.736 219.075 155.54 219.005 155.408 218.863C155.281 218.722 155.217 218.547 155.217 218.337ZM163.96 219H162.647V209.047H163.96V219ZM166.257 211.85L165.539 211.357C165.963 210.765 166.182 210.141 166.195 209.484V208.5H167.446V209.389C167.442 209.844 167.328 210.3 167.104 210.756C166.886 211.207 166.603 211.572 166.257 211.85ZM170.023 211.604L170.058 212.424C170.6 211.786 171.331 211.467 172.252 211.467C173.286 211.467 173.991 211.863 174.364 212.656C174.61 212.301 174.929 212.014 175.321 211.795C175.718 211.576 176.185 211.467 176.723 211.467C178.345 211.467 179.17 212.326 179.197 214.044V219H177.933V214.119C177.933 213.59 177.812 213.196 177.57 212.937C177.329 212.672 176.923 212.54 176.354 212.54C175.884 212.54 175.494 212.681 175.185 212.964C174.875 213.242 174.695 213.618 174.645 214.092V219H173.373V214.153C173.373 213.078 172.847 212.54 171.794 212.54C170.965 212.54 170.397 212.893 170.092 213.6V219H168.827V211.604H170.023ZM186.19 219H184.878V209.047H186.19V219ZM191.974 212.738C191.782 212.706 191.575 212.69 191.352 212.69C190.522 212.69 189.959 213.044 189.663 213.75V219H188.398V211.604H189.629L189.649 212.458C190.064 211.797 190.652 211.467 191.413 211.467C191.659 211.467 191.846 211.499 191.974 211.562V212.738ZM194.517 219H193.252V211.604H194.517V219ZM193.149 209.642C193.149 209.437 193.211 209.263 193.334 209.122C193.462 208.981 193.648 208.91 193.895 208.91C194.141 208.91 194.327 208.981 194.455 209.122C194.583 209.263 194.646 209.437 194.646 209.642C194.646 209.847 194.583 210.018 194.455 210.154C194.327 210.291 194.141 210.359 193.895 210.359C193.648 210.359 193.462 210.291 193.334 210.154C193.211 210.018 193.149 209.847 193.149 209.642ZM197.743 211.604L197.784 212.533C198.349 211.822 199.088 211.467 199.999 211.467C201.562 211.467 202.351 212.349 202.364 214.112V219H201.1V214.105C201.095 213.572 200.972 213.178 200.73 212.923C200.493 212.668 200.122 212.54 199.616 212.54C199.206 212.54 198.846 212.649 198.536 212.868C198.226 213.087 197.985 213.374 197.812 213.729V219H196.547V211.604H197.743ZM208.838 219C208.765 218.854 208.706 218.594 208.66 218.221C208.072 218.831 207.37 219.137 206.555 219.137C205.826 219.137 205.226 218.932 204.757 218.521C204.292 218.107 204.06 217.583 204.06 216.949C204.06 216.179 204.351 215.582 204.935 215.158C205.522 214.73 206.347 214.516 207.409 214.516H208.64V213.935C208.64 213.493 208.507 213.142 208.243 212.882C207.979 212.618 207.589 212.485 207.074 212.485C206.623 212.485 206.245 212.599 205.939 212.827C205.634 213.055 205.481 213.331 205.481 213.654H204.21C204.21 213.285 204.34 212.93 204.6 212.588C204.864 212.242 205.219 211.968 205.666 211.768C206.117 211.567 206.612 211.467 207.149 211.467C208.002 211.467 208.669 211.681 209.152 212.109C209.635 212.533 209.886 213.119 209.904 213.866V217.271C209.904 217.95 209.991 218.49 210.164 218.891V219H208.838ZM206.739 218.036C207.136 218.036 207.512 217.934 207.867 217.729C208.223 217.523 208.48 217.257 208.64 216.929V215.411H207.648C206.099 215.411 205.324 215.865 205.324 216.771C205.324 217.168 205.456 217.478 205.721 217.701C205.985 217.924 206.325 218.036 206.739 218.036ZM211.846 220.982L211.128 220.49C211.556 219.893 211.78 219.278 211.798 218.645V217.503H213.035V218.494C213.035 218.954 212.921 219.415 212.693 219.875C212.47 220.335 212.188 220.704 211.846 220.982ZM219.714 219H218.401V209.047H219.714V219ZM226.769 219H225.504V208.5H226.769V219ZM228.464 215.233C228.464 214.509 228.605 213.857 228.888 213.278C229.175 212.7 229.571 212.253 230.077 211.938C230.588 211.624 231.169 211.467 231.82 211.467C232.827 211.467 233.641 211.815 234.261 212.513C234.885 213.21 235.197 214.137 235.197 215.295V215.384C235.197 216.104 235.058 216.751 234.78 217.325C234.507 217.895 234.113 218.339 233.598 218.658C233.087 218.977 232.499 219.137 231.834 219.137C230.831 219.137 230.018 218.788 229.394 218.091C228.774 217.394 228.464 216.471 228.464 215.322V215.233ZM229.735 215.384C229.735 216.204 229.924 216.863 230.303 217.359C230.686 217.856 231.196 218.104 231.834 218.104C232.477 218.104 232.987 217.854 233.365 217.353C233.743 216.847 233.933 216.14 233.933 215.233C233.933 214.422 233.739 213.766 233.352 213.265C232.969 212.759 232.458 212.506 231.82 212.506C231.196 212.506 230.692 212.754 230.31 213.251C229.927 213.748 229.735 214.459 229.735 215.384ZM239.114 217.284L240.946 211.604H242.238L239.586 219H238.622L235.942 211.604H237.234L239.114 217.284ZM246.429 219.137C245.426 219.137 244.61 218.809 243.981 218.152C243.353 217.492 243.038 216.61 243.038 215.507V215.274C243.038 214.541 243.177 213.887 243.455 213.312C243.738 212.734 244.13 212.283 244.631 211.959C245.137 211.631 245.684 211.467 246.271 211.467C247.233 211.467 247.98 211.784 248.514 212.417C249.047 213.05 249.313 213.957 249.313 215.138V215.664H244.303C244.321 216.393 244.533 216.983 244.938 217.435C245.349 217.881 245.868 218.104 246.497 218.104C246.944 218.104 247.322 218.013 247.632 217.831C247.942 217.649 248.213 217.407 248.445 217.106L249.218 217.708C248.598 218.66 247.668 219.137 246.429 219.137ZM246.271 212.506C245.761 212.506 245.333 212.693 244.986 213.066C244.64 213.436 244.426 213.955 244.344 214.625H248.049V214.529C248.012 213.887 247.839 213.39 247.529 213.039C247.219 212.684 246.8 212.506 246.271 212.506ZM138.236 235C138.163 234.854 138.104 234.594 138.059 234.221C137.471 234.831 136.769 235.137 135.953 235.137C135.224 235.137 134.625 234.932 134.155 234.521C133.69 234.107 133.458 233.583 133.458 232.949C133.458 232.179 133.75 231.582 134.333 231.158C134.921 230.73 135.746 230.516 136.808 230.516H138.038V229.935C138.038 229.493 137.906 229.142 137.642 228.882C137.377 228.618 136.988 228.485 136.473 228.485C136.021 228.485 135.643 228.599 135.338 228.827C135.033 229.055 134.88 229.331 134.88 229.654H133.608C133.608 229.285 133.738 228.93 133.998 228.588C134.262 228.242 134.618 227.968 135.064 227.768C135.516 227.567 136.01 227.467 136.548 227.467C137.4 227.467 138.068 227.681 138.551 228.109C139.034 228.533 139.285 229.119 139.303 229.866V233.271C139.303 233.95 139.389 234.49 139.562 234.891V235H138.236ZM136.138 234.036C136.534 234.036 136.91 233.934 137.266 233.729C137.621 233.523 137.879 233.257 138.038 232.929V231.411H137.047C135.497 231.411 134.723 231.865 134.723 232.771C134.723 233.168 134.855 233.478 135.119 233.701C135.383 233.924 135.723 234.036 136.138 234.036ZM142.481 227.604L142.522 228.533C143.088 227.822 143.826 227.467 144.737 227.467C146.3 227.467 147.089 228.349 147.103 230.112V235H145.838V230.105C145.833 229.572 145.71 229.178 145.469 228.923C145.232 228.668 144.86 228.54 144.354 228.54C143.944 228.54 143.584 228.649 143.274 228.868C142.965 229.087 142.723 229.374 142.55 229.729V235H141.285V227.604H142.481ZM148.702 231.24C148.702 230.105 148.971 229.194 149.509 228.506C150.047 227.813 150.751 227.467 151.621 227.467C152.487 227.467 153.173 227.763 153.679 228.355V224.5H154.943V235H153.781L153.72 234.207C153.214 234.827 152.51 235.137 151.607 235.137C150.751 235.137 150.051 234.786 149.509 234.084C148.971 233.382 148.702 232.466 148.702 231.336V231.24ZM149.967 231.384C149.967 232.222 150.14 232.879 150.486 233.353C150.833 233.826 151.311 234.063 151.922 234.063C152.724 234.063 153.31 233.703 153.679 232.983V229.586C153.3 228.889 152.719 228.54 151.936 228.54C151.316 228.54 150.833 228.779 150.486 229.258C150.14 229.736 149.967 230.445 149.967 231.384ZM163.352 234.104C163.803 234.104 164.197 233.968 164.534 233.694C164.871 233.421 165.058 233.079 165.095 232.669H166.291C166.268 233.093 166.122 233.496 165.854 233.879C165.585 234.262 165.225 234.567 164.773 234.795C164.327 235.023 163.853 235.137 163.352 235.137C162.344 235.137 161.542 234.802 160.945 234.132C160.353 233.457 160.057 232.537 160.057 231.37V231.158C160.057 230.438 160.189 229.798 160.453 229.237C160.717 228.677 161.096 228.242 161.588 227.932C162.085 227.622 162.67 227.467 163.345 227.467C164.174 227.467 164.862 227.715 165.409 228.212C165.961 228.709 166.255 229.354 166.291 230.146H165.095C165.058 229.668 164.876 229.276 164.548 228.971C164.224 228.661 163.823 228.506 163.345 228.506C162.702 228.506 162.203 228.738 161.848 229.203C161.497 229.663 161.321 230.331 161.321 231.206V231.445C161.321 232.298 161.497 232.954 161.848 233.414C162.199 233.874 162.7 234.104 163.352 234.104ZM171.288 228.738C171.097 228.706 170.889 228.69 170.666 228.69C169.837 228.69 169.274 229.044 168.978 229.75V235H167.713V227.604H168.943L168.964 228.458C169.379 227.797 169.966 227.467 170.728 227.467C170.974 227.467 171.16 227.499 171.288 227.562V228.738ZM175.39 235.137C174.387 235.137 173.571 234.809 172.942 234.152C172.313 233.492 171.999 232.61 171.999 231.507V231.274C171.999 230.541 172.138 229.887 172.416 229.312C172.699 228.734 173.09 228.283 173.592 227.959C174.098 227.631 174.645 227.467 175.232 227.467C176.194 227.467 176.941 227.784 177.475 228.417C178.008 229.05 178.274 229.957 178.274 231.138V231.664H173.264C173.282 232.393 173.494 232.983 173.899 233.435C174.31 233.881 174.829 234.104 175.458 234.104C175.905 234.104 176.283 234.013 176.593 233.831C176.903 233.649 177.174 233.407 177.406 233.106L178.179 233.708C177.559 234.66 176.629 235.137 175.39 235.137ZM175.232 228.506C174.722 228.506 174.294 228.693 173.947 229.066C173.601 229.436 173.387 229.955 173.305 230.625H177.01V230.529C176.973 229.887 176.8 229.39 176.49 229.039C176.18 228.684 175.761 228.506 175.232 228.506ZM184.311 235C184.238 234.854 184.178 234.594 184.133 234.221C183.545 234.831 182.843 235.137 182.027 235.137C181.298 235.137 180.699 234.932 180.229 234.521C179.765 234.107 179.532 233.583 179.532 232.949C179.532 232.179 179.824 231.582 180.407 231.158C180.995 230.73 181.82 230.516 182.882 230.516H184.112V229.935C184.112 229.493 183.98 229.142 183.716 228.882C183.451 228.618 183.062 228.485 182.547 228.485C182.096 228.485 181.717 228.599 181.412 228.827C181.107 229.055 180.954 229.331 180.954 229.654H179.683C179.683 229.285 179.812 228.93 180.072 228.588C180.337 228.242 180.692 227.968 181.139 227.768C181.59 227.567 182.084 227.467 182.622 227.467C183.474 227.467 184.142 227.681 184.625 228.109C185.108 228.533 185.359 229.119 185.377 229.866V233.271C185.377 233.95 185.464 234.49 185.637 234.891V235H184.311ZM182.212 234.036C182.608 234.036 182.984 233.934 183.34 233.729C183.695 233.523 183.953 233.257 184.112 232.929V231.411H183.121C181.572 231.411 180.797 231.865 180.797 232.771C180.797 233.168 180.929 233.478 181.193 233.701C181.458 233.924 181.797 234.036 182.212 234.036ZM189.075 225.812V227.604H190.456V228.581H189.075V233.168C189.075 233.464 189.137 233.688 189.26 233.838C189.383 233.984 189.592 234.057 189.889 234.057C190.035 234.057 190.235 234.029 190.49 233.975V235C190.158 235.091 189.834 235.137 189.52 235.137C188.954 235.137 188.528 234.966 188.241 234.624C187.954 234.282 187.811 233.797 187.811 233.168V228.581H186.464V227.604H187.811V225.812H189.075ZM193.313 235H192.049V227.604H193.313V235ZM191.946 225.642C191.946 225.437 192.008 225.263 192.131 225.122C192.258 224.981 192.445 224.91 192.691 224.91C192.938 224.91 193.124 224.981 193.252 225.122C193.38 225.263 193.443 225.437 193.443 225.642C193.443 225.847 193.38 226.018 193.252 226.154C193.124 226.291 192.938 226.359 192.691 226.359C192.445 226.359 192.258 226.291 192.131 226.154C192.008 226.018 191.946 225.847 191.946 225.642ZM196.54 227.604L196.581 228.533C197.146 227.822 197.884 227.467 198.796 227.467C200.359 227.467 201.147 228.349 201.161 230.112V235H199.896V230.105C199.892 229.572 199.769 229.178 199.527 228.923C199.29 228.668 198.919 228.54 198.413 228.54C198.003 228.54 197.643 228.649 197.333 228.868C197.023 229.087 196.782 229.374 196.608 229.729V235H195.344V227.604H196.54ZM202.768 231.24C202.768 230.087 203.034 229.171 203.567 228.492C204.101 227.809 204.807 227.467 205.687 227.467C206.589 227.467 207.293 227.786 207.799 228.424L207.86 227.604H209.016V234.822C209.016 235.779 208.731 236.534 208.161 237.085C207.596 237.636 206.835 237.912 205.878 237.912C205.345 237.912 204.823 237.798 204.312 237.57C203.802 237.342 203.412 237.03 203.144 236.634L203.8 235.875C204.342 236.545 205.005 236.88 205.789 236.88C206.404 236.88 206.883 236.707 207.225 236.36C207.571 236.014 207.744 235.526 207.744 234.897V234.262C207.238 234.845 206.548 235.137 205.673 235.137C204.807 235.137 204.105 234.788 203.567 234.091C203.034 233.394 202.768 232.443 202.768 231.24ZM204.039 231.384C204.039 232.218 204.21 232.874 204.552 233.353C204.894 233.826 205.372 234.063 205.987 234.063C206.785 234.063 207.37 233.701 207.744 232.977V229.6C207.357 228.893 206.776 228.54 206.001 228.54C205.386 228.54 204.905 228.779 204.559 229.258C204.212 229.736 204.039 230.445 204.039 231.384ZM215.599 227.604L215.64 228.533C216.205 227.822 216.943 227.467 217.854 227.467C219.418 227.467 220.206 228.349 220.22 230.112V235H218.955V230.105C218.951 229.572 218.827 229.178 218.586 228.923C218.349 228.668 217.978 228.54 217.472 228.54C217.062 228.54 216.701 228.649 216.392 228.868C216.082 229.087 215.84 229.374 215.667 229.729V235H214.402V227.604H215.599ZM225.196 235.137C224.194 235.137 223.378 234.809 222.749 234.152C222.12 233.492 221.806 232.61 221.806 231.507V231.274C221.806 230.541 221.945 229.887 222.223 229.312C222.505 228.734 222.897 228.283 223.398 227.959C223.904 227.631 224.451 227.467 225.039 227.467C226.001 227.467 226.748 227.784 227.281 228.417C227.814 229.05 228.081 229.957 228.081 231.138V231.664H223.07C223.089 232.393 223.3 232.983 223.706 233.435C224.116 233.881 224.636 234.104 225.265 234.104C225.711 234.104 226.09 234.013 226.399 233.831C226.709 233.649 226.98 233.407 227.213 233.106L227.985 233.708C227.366 234.66 226.436 235.137 225.196 235.137ZM225.039 228.506C224.529 228.506 224.1 228.693 223.754 229.066C223.408 229.436 223.193 229.955 223.111 230.625H226.816V230.529C226.78 229.887 226.607 229.39 226.297 229.039C225.987 228.684 225.568 228.506 225.039 228.506ZM236.1 233.257L237.521 227.604H238.786L236.633 235H235.607L233.81 229.395L232.06 235H231.034L228.888 227.604H230.146L231.602 233.141L233.324 227.604H234.343L236.1 233.257ZM89.708 241.812V243.604H91.0889V244.581H89.708V249.168C89.708 249.464 89.7695 249.688 89.8926 249.838C90.0156 249.984 90.2253 250.057 90.5215 250.057C90.6673 250.057 90.8678 250.029 91.123 249.975V251C90.7904 251.091 90.4668 251.137 90.1523 251.137C89.5872 251.137 89.1611 250.966 88.874 250.624C88.5869 250.282 88.4434 249.797 88.4434 249.168V244.581H87.0967V243.604H88.4434V241.812H89.708ZM93.8369 244.499C94.3975 243.811 95.1266 243.467 96.0244 243.467C97.5876 243.467 98.376 244.349 98.3896 246.112V251H97.125V246.105C97.1204 245.572 96.9974 245.178 96.7559 244.923C96.5189 244.668 96.1475 244.54 95.6416 244.54C95.2314 244.54 94.8714 244.649 94.5615 244.868C94.2516 245.087 94.0101 245.374 93.8369 245.729V251H92.5723V240.5H93.8369V244.499ZM101.657 251H100.393V243.604H101.657V251ZM100.29 241.642C100.29 241.437 100.352 241.263 100.475 241.122C100.602 240.981 100.789 240.91 101.035 240.91C101.281 240.91 101.468 240.981 101.596 241.122C101.723 241.263 101.787 241.437 101.787 241.642C101.787 241.847 101.723 242.018 101.596 242.154C101.468 242.291 101.281 242.359 101.035 242.359C100.789 242.359 100.602 242.291 100.475 242.154C100.352 242.018 100.29 241.847 100.29 241.642ZM104.884 243.604L104.925 244.533C105.49 243.822 106.228 243.467 107.14 243.467C108.703 243.467 109.491 244.349 109.505 246.112V251H108.24V246.105C108.236 245.572 108.113 245.178 107.871 244.923C107.634 244.668 107.263 244.54 106.757 244.54C106.347 244.54 105.987 244.649 105.677 244.868C105.367 245.087 105.125 245.374 104.952 245.729V251H103.688V243.604H104.884ZM111.111 247.24C111.111 246.087 111.378 245.171 111.911 244.492C112.444 243.809 113.151 243.467 114.03 243.467C114.933 243.467 115.637 243.786 116.143 244.424L116.204 243.604H117.359V250.822C117.359 251.779 117.075 252.534 116.505 253.085C115.94 253.636 115.179 253.912 114.222 253.912C113.688 253.912 113.167 253.798 112.656 253.57C112.146 253.342 111.756 253.03 111.487 252.634L112.144 251.875C112.686 252.545 113.349 252.88 114.133 252.88C114.748 252.88 115.227 252.707 115.568 252.36C115.915 252.014 116.088 251.526 116.088 250.897V250.262C115.582 250.845 114.892 251.137 114.017 251.137C113.151 251.137 112.449 250.788 111.911 250.091C111.378 249.394 111.111 248.443 111.111 247.24ZM112.383 247.384C112.383 248.218 112.554 248.874 112.896 249.353C113.237 249.826 113.716 250.063 114.331 250.063C115.129 250.063 115.714 249.701 116.088 248.977V245.6C115.701 244.893 115.119 244.54 114.345 244.54C113.729 244.54 113.249 244.779 112.902 245.258C112.556 245.736 112.383 246.445 112.383 247.384ZM123.58 249.038C123.58 248.696 123.45 248.432 123.19 248.245C122.935 248.054 122.486 247.89 121.844 247.753C121.206 247.616 120.698 247.452 120.319 247.261C119.946 247.069 119.668 246.841 119.485 246.577C119.308 246.313 119.219 245.998 119.219 245.634C119.219 245.028 119.474 244.515 119.984 244.096C120.499 243.676 121.156 243.467 121.953 243.467C122.792 243.467 123.471 243.683 123.99 244.116C124.514 244.549 124.776 245.103 124.776 245.777H123.505C123.505 245.431 123.357 245.132 123.061 244.882C122.769 244.631 122.4 244.506 121.953 244.506C121.493 244.506 121.133 244.606 120.873 244.807C120.613 245.007 120.483 245.269 120.483 245.593C120.483 245.898 120.604 246.128 120.846 246.283C121.087 246.438 121.522 246.586 122.151 246.728C122.785 246.869 123.298 247.037 123.689 247.233C124.081 247.429 124.371 247.666 124.558 247.944C124.749 248.218 124.845 248.553 124.845 248.949C124.845 249.61 124.58 250.141 124.052 250.542C123.523 250.938 122.837 251.137 121.994 251.137C121.402 251.137 120.878 251.032 120.422 250.822C119.966 250.613 119.608 250.321 119.349 249.947C119.093 249.569 118.966 249.161 118.966 248.724H120.23C120.253 249.147 120.422 249.485 120.736 249.735C121.055 249.981 121.475 250.104 121.994 250.104C122.473 250.104 122.855 250.009 123.143 249.817C123.434 249.621 123.58 249.362 123.58 249.038ZM126.52 250.337C126.52 250.118 126.583 249.936 126.711 249.79C126.843 249.644 127.039 249.571 127.299 249.571C127.559 249.571 127.755 249.644 127.887 249.79C128.023 249.936 128.092 250.118 128.092 250.337C128.092 250.547 128.023 250.722 127.887 250.863C127.755 251.005 127.559 251.075 127.299 251.075C127.039 251.075 126.843 251.005 126.711 250.863C126.583 250.722 126.52 250.547 126.52 250.337Z" fill="black"/>
<path d="M36.75 102.598L41.0293 104.327V105.667L35.4375 103.076V102.078L41.0293 99.4941V100.834L36.75 102.598ZM44.29 100.499C44.8506 99.8109 45.5798 99.4668 46.4775 99.4668C48.0407 99.4668 48.8291 100.349 48.8428 102.112V107H47.5781V102.105C47.5736 101.572 47.4505 101.178 47.209 100.923C46.972 100.668 46.6006 100.54 46.0947 100.54C45.6846 100.54 45.3245 100.649 45.0146 100.868C44.7048 101.087 44.4632 101.374 44.29 101.729V107H43.0254V96.5H44.29V100.499ZM53.8057 107.137C52.8031 107.137 51.9873 106.809 51.3584 106.152C50.7295 105.492 50.415 104.61 50.415 103.507V103.274C50.415 102.541 50.554 101.887 50.832 101.312C51.1146 100.734 51.5065 100.283 52.0078 99.959C52.5137 99.6309 53.0605 99.4668 53.6484 99.4668C54.61 99.4668 55.3574 99.7835 55.8906 100.417C56.4238 101.05 56.6904 101.957 56.6904 103.138V103.664H51.6797C51.6979 104.393 51.9098 104.983 52.3154 105.435C52.7256 105.881 53.2451 106.104 53.874 106.104C54.3206 106.104 54.6989 106.013 55.0088 105.831C55.3187 105.649 55.5898 105.407 55.8223 105.106L56.5947 105.708C55.9749 106.66 55.0452 107.137 53.8057 107.137ZM53.6484 100.506C53.138 100.506 52.7096 100.693 52.3633 101.066C52.0169 101.436 51.8027 101.955 51.7207 102.625H55.4258V102.529C55.3893 101.887 55.2161 101.39 54.9062 101.039C54.5964 100.684 54.1771 100.506 53.6484 100.506ZM62.7266 107C62.6536 106.854 62.5944 106.594 62.5488 106.221C61.9609 106.831 61.2591 107.137 60.4434 107.137C59.7142 107.137 59.1149 106.932 58.6455 106.521C58.1807 106.107 57.9482 105.583 57.9482 104.949C57.9482 104.179 58.2399 103.582 58.8232 103.158C59.4111 102.73 60.236 102.516 61.2979 102.516H62.5283V101.935C62.5283 101.493 62.3962 101.142 62.1318 100.882C61.8675 100.618 61.4779 100.485 60.9629 100.485C60.5117 100.485 60.1335 100.599 59.8281 100.827C59.5228 101.055 59.3701 101.331 59.3701 101.654H58.0986C58.0986 101.285 58.2285 100.93 58.4883 100.588C58.7526 100.242 59.1081 99.9681 59.5547 99.7676C60.0059 99.5671 60.5003 99.4668 61.0381 99.4668C61.8903 99.4668 62.5579 99.681 63.041 100.109C63.5241 100.533 63.7747 101.119 63.793 101.866V105.271C63.793 105.95 63.8796 106.49 64.0527 106.891V107H62.7266ZM60.6279 106.036C61.0244 106.036 61.4004 105.934 61.7559 105.729C62.1113 105.523 62.3688 105.257 62.5283 104.929V103.411H61.5371C59.9876 103.411 59.2129 103.865 59.2129 104.771C59.2129 105.168 59.3451 105.478 59.6094 105.701C59.8737 105.924 60.2132 106.036 60.6279 106.036ZM65.4678 103.24C65.4678 102.105 65.7367 101.194 66.2744 100.506C66.8122 99.8132 67.5163 99.4668 68.3867 99.4668C69.2526 99.4668 69.9385 99.763 70.4443 100.355V96.5H71.709V107H70.5469L70.4854 106.207C69.9795 106.827 69.2754 107.137 68.373 107.137C67.5163 107.137 66.8167 106.786 66.2744 106.084C65.7367 105.382 65.4678 104.466 65.4678 103.336V103.24ZM66.7324 103.384C66.7324 104.222 66.9056 104.879 67.252 105.353C67.5983 105.826 68.0768 106.063 68.6875 106.063C69.4896 106.063 70.0752 105.703 70.4443 104.983V101.586C70.0661 100.889 69.485 100.54 68.7012 100.54C68.0814 100.54 67.5983 100.779 67.252 101.258C66.9056 101.736 66.7324 102.445 66.7324 103.384ZM78.1553 102.557L73.6367 100.786V99.4873L79.4746 102.071V103.069L73.6367 105.66V104.348L78.1553 102.557ZM54.1133 118.598L58.3926 120.327V121.667L52.8008 119.076V118.078L58.3926 115.494V116.834L54.1133 118.598ZM62.1045 113.812V115.604H63.4854V116.581H62.1045V121.168C62.1045 121.464 62.166 121.688 62.2891 121.838C62.4121 121.984 62.6217 122.057 62.918 122.057C63.0638 122.057 63.2643 122.029 63.5195 121.975V123C63.1868 123.091 62.8633 123.137 62.5488 123.137C61.9837 123.137 61.5576 122.966 61.2705 122.624C60.9834 122.282 60.8398 121.797 60.8398 121.168V116.581H59.4932V115.604H60.8398V113.812H62.1045ZM66.3428 123H65.0781V115.604H66.3428V123ZM64.9756 113.642C64.9756 113.437 65.0371 113.263 65.1602 113.122C65.2878 112.981 65.4746 112.91 65.7207 112.91C65.9668 112.91 66.1536 112.981 66.2812 113.122C66.4089 113.263 66.4727 113.437 66.4727 113.642C66.4727 113.847 66.4089 114.018 66.2812 114.154C66.1536 114.291 65.9668 114.359 65.7207 114.359C65.4746 114.359 65.2878 114.291 65.1602 114.154C65.0371 114.018 64.9756 113.847 64.9756 113.642ZM70.0889 113.812V115.604H71.4697V116.581H70.0889V121.168C70.0889 121.464 70.1504 121.688 70.2734 121.838C70.3965 121.984 70.6061 122.057 70.9023 122.057C71.0482 122.057 71.2487 122.029 71.5039 121.975V123C71.1712 123.091 70.8477 123.137 70.5332 123.137C69.9681 123.137 69.542 122.966 69.2549 122.624C68.9678 122.282 68.8242 121.797 68.8242 121.168V116.581H67.4775V115.604H68.8242V113.812H70.0889ZM74.3271 123H73.0625V112.5H74.3271V123ZM79.4268 123.137C78.4242 123.137 77.6084 122.809 76.9795 122.152C76.3506 121.492 76.0361 120.61 76.0361 119.507V119.274C76.0361 118.541 76.1751 117.887 76.4531 117.312C76.7357 116.734 77.1276 116.283 77.6289 115.959C78.1348 115.631 78.6816 115.467 79.2695 115.467C80.2311 115.467 80.9785 115.784 81.5117 116.417C82.0449 117.05 82.3115 117.957 82.3115 119.138V119.664H77.3008C77.319 120.393 77.5309 120.983 77.9365 121.435C78.3467 121.881 78.8662 122.104 79.4951 122.104C79.9417 122.104 80.32 122.013 80.6299 121.831C80.9398 121.649 81.2109 121.407 81.4434 121.106L82.2158 121.708C81.596 122.66 80.6663 123.137 79.4268 123.137ZM79.2695 116.506C78.7591 116.506 78.3307 116.693 77.9844 117.066C77.638 117.436 77.4238 117.955 77.3418 118.625H81.0469V118.529C81.0104 117.887 80.8372 117.39 80.5273 117.039C80.2174 116.684 79.7982 116.506 79.2695 116.506ZM88.2588 118.557L83.7402 116.786V115.487L89.5781 118.071V119.069L83.7402 121.66V120.348L88.2588 118.557ZM57.5859 150.598L61.8652 152.327V153.667L56.2734 151.076V150.078L61.8652 147.494V148.834L57.5859 150.598ZM64.1143 155.854H63.0273L67.1836 145.047H68.2637L64.1143 155.854ZM71.3467 145.812V147.604H72.7275V148.581H71.3467V153.168C71.3467 153.464 71.4082 153.688 71.5312 153.838C71.6543 153.984 71.8639 154.057 72.1602 154.057C72.306 154.057 72.5065 154.029 72.7617 153.975V155C72.429 155.091 72.1055 155.137 71.791 155.137C71.2259 155.137 70.7998 154.966 70.5127 154.624C70.2256 154.282 70.082 153.797 70.082 153.168V148.581H68.7354V147.604H70.082V145.812H71.3467ZM75.585 155H74.3203V147.604H75.585V155ZM74.2178 145.642C74.2178 145.437 74.2793 145.263 74.4023 145.122C74.5299 144.981 74.7168 144.91 74.9629 144.91C75.209 144.91 75.3958 144.981 75.5234 145.122C75.651 145.263 75.7148 145.437 75.7148 145.642C75.7148 145.847 75.651 146.018 75.5234 146.154C75.3958 146.291 75.209 146.359 74.9629 146.359C74.7168 146.359 74.5299 146.291 74.4023 146.154C74.2793 146.018 74.2178 145.847 74.2178 145.642ZM79.3311 145.812V147.604H80.7119V148.581H79.3311V153.168C79.3311 153.464 79.3926 153.688 79.5156 153.838C79.6387 153.984 79.8483 154.057 80.1445 154.057C80.2904 154.057 80.4909 154.029 80.7461 153.975V155C80.4134 155.091 80.0898 155.137 79.7754 155.137C79.2103 155.137 78.7842 154.966 78.4971 154.624C78.21 154.282 78.0664 153.797 78.0664 153.168V148.581H76.7197V147.604H78.0664V145.812H79.3311ZM83.5693 155H82.3047V144.5H83.5693V155ZM88.6689 155.137C87.6663 155.137 86.8506 154.809 86.2217 154.152C85.5928 153.492 85.2783 152.61 85.2783 151.507V151.274C85.2783 150.541 85.4173 149.887 85.6953 149.312C85.9779 148.734 86.3698 148.283 86.8711 147.959C87.377 147.631 87.9238 147.467 88.5117 147.467C89.4733 147.467 90.2207 147.784 90.7539 148.417C91.2871 149.05 91.5537 149.957 91.5537 151.138V151.664H86.543C86.5612 152.393 86.7731 152.983 87.1787 153.435C87.5889 153.881 88.1084 154.104 88.7373 154.104C89.1839 154.104 89.5622 154.013 89.8721 153.831C90.182 153.649 90.4531 153.407 90.6855 153.106L91.458 153.708C90.8382 154.66 89.9085 155.137 88.6689 155.137ZM88.5117 148.506C88.0013 148.506 87.5729 148.693 87.2266 149.066C86.8802 149.436 86.666 149.955 86.584 150.625H90.2891V150.529C90.2526 149.887 90.0794 149.39 89.7695 149.039C89.4596 148.684 89.0404 148.506 88.5117 148.506ZM97.501 150.557L92.9824 148.786V147.487L98.8203 150.071V151.069L92.9824 153.66V152.348L97.501 150.557ZM36.75 166.598L41.0293 168.327V169.667L35.4375 167.076V166.078L41.0293 163.494V164.834L36.75 166.598ZM43.2783 171.854H42.1914L46.3477 161.047H47.4277L43.2783 171.854ZM50.0596 164.499C50.6201 163.811 51.3493 163.467 52.2471 163.467C53.8102 163.467 54.5986 164.349 54.6123 166.112V171H53.3477V166.105C53.3431 165.572 53.2201 165.178 52.9785 164.923C52.7415 164.668 52.3701 164.54 51.8643 164.54C51.4541 164.54 51.0941 164.649 50.7842 164.868C50.4743 165.087 50.2327 165.374 50.0596 165.729V171H48.7949V160.5H50.0596V164.499ZM59.5752 171.137C58.5726 171.137 57.7568 170.809 57.1279 170.152C56.499 169.492 56.1846 168.61 56.1846 167.507V167.274C56.1846 166.541 56.3236 165.887 56.6016 165.312C56.8841 164.734 57.276 164.283 57.7773 163.959C58.2832 163.631 58.8301 163.467 59.418 163.467C60.3796 163.467 61.127 163.784 61.6602 164.417C62.1934 165.05 62.46 165.957 62.46 167.138V167.664H57.4492C57.4674 168.393 57.6794 168.983 58.085 169.435C58.4951 169.881 59.0146 170.104 59.6436 170.104C60.0902 170.104 60.4684 170.013 60.7783 169.831C61.0882 169.649 61.3594 169.407 61.5918 169.106L62.3643 169.708C61.7445 170.66 60.8148 171.137 59.5752 171.137ZM59.418 164.506C58.9076 164.506 58.4792 164.693 58.1328 165.066C57.7865 165.436 57.5723 165.955 57.4902 166.625H61.1953V166.529C61.1589 165.887 60.9857 165.39 60.6758 165.039C60.3659 164.684 59.9466 164.506 59.418 164.506ZM68.4961 171C68.4232 170.854 68.3639 170.594 68.3184 170.221C67.7305 170.831 67.0286 171.137 66.2129 171.137C65.4837 171.137 64.8844 170.932 64.415 170.521C63.9502 170.107 63.7178 169.583 63.7178 168.949C63.7178 168.179 64.0094 167.582 64.5928 167.158C65.1807 166.73 66.0055 166.516 67.0674 166.516H68.2979V165.935C68.2979 165.493 68.1657 165.142 67.9014 164.882C67.637 164.618 67.2474 164.485 66.7324 164.485C66.2812 164.485 65.903 164.599 65.5977 164.827C65.2923 165.055 65.1396 165.331 65.1396 165.654H63.8682C63.8682 165.285 63.998 164.93 64.2578 164.588C64.5221 164.242 64.8776 163.968 65.3242 163.768C65.7754 163.567 66.2699 163.467 66.8076 163.467C67.6598 163.467 68.3275 163.681 68.8105 164.109C69.2936 164.533 69.5443 165.119 69.5625 165.866V169.271C69.5625 169.95 69.6491 170.49 69.8223 170.891V171H68.4961ZM66.3975 170.036C66.7939 170.036 67.1699 169.934 67.5254 169.729C67.8809 169.523 68.1383 169.257 68.2979 168.929V167.411H67.3066C65.7572 167.411 64.9824 167.865 64.9824 168.771C64.9824 169.168 65.1146 169.478 65.3789 169.701C65.6432 169.924 65.9827 170.036 66.3975 170.036ZM71.2373 167.24C71.2373 166.105 71.5062 165.194 72.0439 164.506C72.5817 163.813 73.2858 163.467 74.1562 163.467C75.0221 163.467 75.708 163.763 76.2139 164.355V160.5H77.4785V171H76.3164L76.2549 170.207C75.749 170.827 75.0449 171.137 74.1426 171.137C73.2858 171.137 72.5863 170.786 72.0439 170.084C71.5062 169.382 71.2373 168.466 71.2373 167.336V167.24ZM72.502 167.384C72.502 168.222 72.6751 168.879 73.0215 169.353C73.3678 169.826 73.8464 170.063 74.457 170.063C75.2591 170.063 75.8447 169.703 76.2139 168.983V165.586C75.8356 164.889 75.2546 164.54 74.4707 164.54C73.8509 164.54 73.3678 164.779 73.0215 165.258C72.6751 165.736 72.502 166.445 72.502 167.384ZM83.9248 166.557L79.4062 164.786V163.487L85.2441 166.071V167.069L79.4062 169.66V168.348L83.9248 166.557ZM36.75 198.598L41.0293 200.327V201.667L35.4375 199.076V198.078L41.0293 195.494V196.834L36.75 198.598ZM49.2871 199.384C49.2871 200.514 49.0273 201.423 48.5078 202.111C47.9883 202.795 47.291 203.137 46.416 203.137C45.4818 203.137 44.7594 202.806 44.249 202.146L44.1875 203H43.0254V192.5H44.29V196.417C44.8005 195.784 45.5046 195.467 46.4023 195.467C47.3001 195.467 48.0042 195.806 48.5146 196.485C49.0296 197.164 49.2871 198.094 49.2871 199.274V199.384ZM48.0225 199.24C48.0225 198.379 47.8561 197.714 47.5234 197.244C47.1908 196.775 46.7122 196.54 46.0879 196.54C45.2539 196.54 44.6546 196.927 44.29 197.702V200.901C44.6774 201.676 45.2812 202.063 46.1016 202.063C46.7077 202.063 47.1794 201.829 47.5166 201.359C47.8538 200.89 48.0225 200.184 48.0225 199.24ZM50.5518 199.233C50.5518 198.509 50.693 197.857 50.9756 197.278C51.2627 196.7 51.6592 196.253 52.165 195.938C52.6755 195.624 53.2565 195.467 53.9082 195.467C54.9154 195.467 55.7288 195.815 56.3486 196.513C56.973 197.21 57.2852 198.137 57.2852 199.295V199.384C57.2852 200.104 57.1462 200.751 56.8682 201.325C56.5947 201.895 56.2005 202.339 55.6855 202.658C55.1751 202.977 54.5872 203.137 53.9219 203.137C52.9193 203.137 52.1058 202.788 51.4814 202.091C50.8617 201.394 50.5518 200.471 50.5518 199.322V199.233ZM51.8232 199.384C51.8232 200.204 52.0124 200.863 52.3906 201.359C52.7734 201.856 53.2839 202.104 53.9219 202.104C54.5645 202.104 55.0749 201.854 55.4531 201.353C55.8314 200.847 56.0205 200.14 56.0205 199.233C56.0205 198.422 55.8268 197.766 55.4395 197.265C55.0566 196.759 54.5462 196.506 53.9082 196.506C53.2839 196.506 52.7803 196.754 52.3975 197.251C52.0146 197.748 51.8232 198.459 51.8232 199.384ZM58.5635 199.24C58.5635 198.105 58.8324 197.194 59.3701 196.506C59.9079 195.813 60.612 195.467 61.4824 195.467C62.3483 195.467 63.0342 195.763 63.54 196.355V192.5H64.8047V203H63.6426L63.5811 202.207C63.0752 202.827 62.3711 203.137 61.4688 203.137C60.612 203.137 59.9124 202.786 59.3701 202.084C58.8324 201.382 58.5635 200.466 58.5635 199.336V199.24ZM59.8281 199.384C59.8281 200.222 60.0013 200.879 60.3477 201.353C60.694 201.826 61.1725 202.063 61.7832 202.063C62.5853 202.063 63.1709 201.703 63.54 200.983V197.586C63.1618 196.889 62.5807 196.54 61.7969 196.54C61.1771 196.54 60.694 196.779 60.3477 197.258C60.0013 197.736 59.8281 198.445 59.8281 199.384ZM69.1934 201.147L70.916 195.604H72.2695L69.2959 204.142C68.8356 205.372 68.1042 205.987 67.1016 205.987L66.8623 205.967L66.3906 205.878V204.853L66.7324 204.88C67.1608 204.88 67.4935 204.793 67.7305 204.62C67.972 204.447 68.1702 204.13 68.3252 203.67L68.6055 202.918L65.9668 195.604H67.3477L69.1934 201.147ZM77.8818 198.557L73.3633 196.786V195.487L79.2012 198.071V199.069L73.3633 201.66V200.348L77.8818 198.557ZM36.75 278.598L41.0293 280.327V281.667L35.4375 279.076V278.078L41.0293 275.494V276.834L36.75 278.598ZM43.2783 283.854H42.1914L46.3477 273.047H47.4277L43.2783 283.854ZM55.0566 279.384C55.0566 280.514 54.7969 281.423 54.2773 282.111C53.7578 282.795 53.0605 283.137 52.1855 283.137C51.2513 283.137 50.529 282.806 50.0186 282.146L49.957 283H48.7949V272.5H50.0596V276.417C50.57 275.784 51.2741 275.467 52.1719 275.467C53.0697 275.467 53.7738 275.806 54.2842 276.485C54.7992 277.164 55.0566 278.094 55.0566 279.274V279.384ZM53.792 279.24C53.792 278.379 53.6257 277.714 53.293 277.244C52.9603 276.775 52.4818 276.54 51.8574 276.54C51.0234 276.54 50.4242 276.927 50.0596 277.702V280.901C50.4469 281.676 51.0508 282.063 51.8711 282.063C52.4772 282.063 52.9489 281.829 53.2861 281.359C53.6234 280.89 53.792 280.184 53.792 279.24ZM56.3213 279.233C56.3213 278.509 56.4626 277.857 56.7451 277.278C57.0322 276.7 57.4287 276.253 57.9346 275.938C58.445 275.624 59.026 275.467 59.6777 275.467C60.6849 275.467 61.4984 275.815 62.1182 276.513C62.7425 277.21 63.0547 278.137 63.0547 279.295V279.384C63.0547 280.104 62.9157 280.751 62.6377 281.325C62.3643 281.895 61.9701 282.339 61.4551 282.658C60.9447 282.977 60.3568 283.137 59.6914 283.137C58.6888 283.137 57.8753 282.788 57.251 282.091C56.6312 281.394 56.3213 280.471 56.3213 279.322V279.233ZM57.5928 279.384C57.5928 280.204 57.7819 280.863 58.1602 281.359C58.543 281.856 59.0534 282.104 59.6914 282.104C60.334 282.104 60.8444 281.854 61.2227 281.353C61.6009 280.847 61.79 280.14 61.79 279.233C61.79 278.422 61.5964 277.766 61.209 277.265C60.8262 276.759 60.3158 276.506 59.6777 276.506C59.0534 276.506 58.5498 276.754 58.167 277.251C57.7842 277.748 57.5928 278.459 57.5928 279.384ZM64.333 279.24C64.333 278.105 64.6019 277.194 65.1396 276.506C65.6774 275.813 66.3815 275.467 67.252 275.467C68.1178 275.467 68.8037 275.763 69.3096 276.355V272.5H70.5742V283H69.4121L69.3506 282.207C68.8447 282.827 68.1406 283.137 67.2383 283.137C66.3815 283.137 65.682 282.786 65.1396 282.084C64.6019 281.382 64.333 280.466 64.333 279.336V279.24ZM65.5977 279.384C65.5977 280.222 65.7708 280.879 66.1172 281.353C66.4635 281.826 66.9421 282.063 67.5527 282.063C68.3548 282.063 68.9404 281.703 69.3096 280.983V277.586C68.9313 276.889 68.3503 276.54 67.5664 276.54C66.9466 276.54 66.4635 276.779 66.1172 277.258C65.7708 277.736 65.5977 278.445 65.5977 279.384ZM74.9629 281.147L76.6855 275.604H78.0391L75.0654 284.142C74.6051 285.372 73.8737 285.987 72.8711 285.987L72.6318 285.967L72.1602 285.878V284.853L72.502 284.88C72.9303 284.88 73.263 284.793 73.5 284.62C73.7415 284.447 73.9398 284.13 74.0947 283.67L74.375 282.918L71.7363 275.604H73.1172L74.9629 281.147ZM83.6514 278.557L79.1328 276.786V275.487L84.9707 278.071V279.069L79.1328 281.66V280.348L83.6514 278.557Z" fill="#706EE4"/>
<path d="M50.6406 214.598L54.9199 216.327V217.667L49.3281 215.076V214.078L54.9199 211.494V212.834L50.6406 214.598ZM58.1807 212.499C58.7412 211.811 59.4704 211.467 60.3682 211.467C61.9313 211.467 62.7197 212.349 62.7334 214.112V219H61.4688V214.105C61.4642 213.572 61.3411 213.178 61.0996 212.923C60.8626 212.668 60.4912 212.54 59.9854 212.54C59.5752 212.54 59.2152 212.649 58.9053 212.868C58.5954 213.087 58.3538 213.374 58.1807 213.729V219H56.916V208.5H58.1807V212.499ZM68.6533 219H67.3818V210.571L64.832 211.508V210.359L68.4551 208.999H68.6533V219ZM76.9658 214.557L72.4473 212.786V211.487L78.2852 214.071V215.069L72.4473 217.66V216.348L76.9658 214.557Z" fill="#409B55"/>
<path d="M50.6406 262.598L54.9199 264.327V265.667L49.3281 263.076V262.078L54.9199 259.494V260.834L50.6406 262.598ZM57.1689 267.854H56.082L60.2383 257.047H61.3184L57.1689 267.854ZM63.9502 260.499C64.5107 259.811 65.2399 259.467 66.1377 259.467C67.7008 259.467 68.4893 260.349 68.5029 262.112V267H67.2383V262.105C67.2337 261.572 67.1107 261.178 66.8691 260.923C66.6322 260.668 66.2607 260.54 65.7549 260.54C65.3447 260.54 64.9847 260.649 64.6748 260.868C64.3649 261.087 64.1234 261.374 63.9502 261.729V267H62.6855V256.5H63.9502V260.499ZM74.4229 267H73.1514V258.571L70.6016 259.508V258.359L74.2246 256.999H74.4229V267ZM82.7354 262.557L78.2168 260.786V259.487L84.0547 262.071V263.069L78.2168 265.66V264.348L82.7354 262.557Z" fill="#408550"/>
<path d="M433.5 302.032L430 278.63C408.5 298.547 400.847 306.206 387 291.078L391 310.497L432 309.501L433.5 302.032Z" fill="#E4C7AC" stroke="#DCB897"/>
<path d="M361 222.862C362.241 197.127 370.555 177.8 406.5 183.526C402.778 182.817 420 185.518 424.5 186.016C429 186.514 420 212.406 432.5 232.821C445 253.236 434.109 257.677 432.5 272.655C429.481 279.135 425.601 283.082 415.5 290.58C404.389 299.891 398.148 300.061 387 292.074C377.894 284.984 372.818 279.335 364 255.227C364.194 242.839 364.726 235.971 361 222.862Z" fill="url(#paint0_linear)" fill-opacity="0.69" stroke="black"/>
<path d="M389 238.071C394.021 235.544 398.327 235.898 402 238.071" stroke="black"/>
<path d="M531 473.817C531 473.817 530.468 424.277 531 410.082C520.508 408.103 509.973 408.912 488.5 414.563L485.5 418.049C491.135 434.707 496.794 450.342 499 462.364C495.536 469.831 469.539 462.618 451.5 467.344C446.96 468.533 440 470.829 440 470.829L444.5 499.709L451.5 495.725H457L471 499.709C482.325 501.631 485.5 503.692 496 503.692C508.6 502.294 514.757 501.717 525.5 496.721C529.5 492.24 531 487.974 531 473.817Z" fill="#DBB399"/>
<path d="M499 462.364C495.536 469.831 469.539 462.618 451.5 467.344C446.96 468.533 440 470.829 440 470.829L444.5 499.709L451.5 495.725H457L471 499.709C482.325 501.631 485.5 503.692 496 503.692C508.6 502.294 514.757 501.717 525.5 496.721C529.5 492.24 531 487.974 531 473.817C531 473.817 530.468 424.277 531 410.082C520.508 408.103 509.973 408.912 488.5 414.563L485.5 418.049C491.135 434.707 496.794 450.342 499 462.364ZM499 462.364C502.464 454.898 487.133 465.062 499 462.364Z" stroke="#C2A387"/>
<path d="M403.5 226.846C403.345 226.062 403.568 225.625 405 224.854" stroke="#503834"/>
<path d="M403 301.036C393 299.045 385 295.061 385 295.061L389 310.995L365.5 323.941C353.15 342.759 347.752 354.076 346 378.215L350 397.136L354.5 409.584L425.5 412.074V473.319C425.5 473.319 475 467.343 480 466.846C485 466.348 489.5 467.343 494 465.85C498.5 464.356 499.5 464.587 499.5 461.368C499.5 455.891 496.12 448.951 495 445.435C491.033 432.982 487 423.526 489 421.534C491 419.543 492.5 419.543 492.5 419.543L538 412.074C538 412.074 538 409.086 535.75 404.605C533.5 400.124 507.341 373.564 506.5 373.236C506.5 373.236 481 343.858 480 342.364C479 340.87 468 323.941 468 323.941C468 323.941 447.725 320.757 442 310.995C438.774 305.495 438.5 295.061 438.5 295.061C438.5 295.061 428.5 300.041 425.5 301.036C422.5 302.032 413 303.028 403 301.036Z" fill="url(#paint1_linear)" stroke="#3A5646" stroke-opacity="0.92"/>
<path d="M489 418.547L484.8 404.735L482 385.684L484.8 410.45" stroke="#14251B"/>
<path d="M370 238.796C369.966 240.977 377.382 243.967 383 238.796C376.728 239.659 374.935 239.597 370 238.796Z" fill="url(#paint2_linear)" stroke="#3F2727"/>
<path d="M407 238.298C407 239.792 416 243.277 421.286 238.298C414.789 239.212 411.806 239.068 407 238.298Z" fill="url(#paint3_linear)" stroke="#3F2727"/>
<path d="M389.833 262.696C386.333 262.696 388.5 255.725 388.5 255.725C389.805 251.21 391.909 250.217 396.333 249.252C400.318 248.894 401.166 252.648 402.833 254.729C404.5 256.81 405.5 260.705 402.833 261.7C400.166 262.696 398.833 264.19 396.333 264.19C393.833 264.19 393.333 262.696 389.833 262.696Z" fill="url(#paint4_linear)" stroke="url(#paint5_linear)"/>
<path d="M409.5 223.36C407.352 223.749 405.5 223.858 403.5 225.85C402 226.529 405 227.842 405 227.842C405 227.842 407.5 227.344 413 226.348C418.5 225.352 419.744 226.024 423 226.348L427 227.842L426.5 226.348L425 224.356L422 223.36C416.904 223.057 414.144 222.205 409.5 223.36Z" fill="#3F2727" stroke="#76584B" stroke-opacity="0.67"/>
<path d="M385.5 273.5C385.785 273.809 386.07 274.104 386.355 274.385C391.87 277.716 416.772 268.728 413.5 272C410.083 275.417 398.088 285.982 386.355 274.385C385.97 274.153 385.68 273.861 385.5 273.5Z" fill="#3F2727"/>
<path d="M385.5 273.5C397.5 286.5 410 275.5 413.5 272C417 268.5 388.257 279.03 385.5 273.5Z" stroke="#503834"/>
<path d="M387 274.918C397.978 280.542 396.556 278.813 411 273" stroke="#503834"/>
<path d="M371.5 222.862C367.267 224.375 365.964 225.392 364.5 227.344L364 228.837L368.5 226.846C370.559 226.296 371.531 226.204 373 226.348L376.5 226.846L385 228.837V227.344L381.5 225.352C378.642 224.129 376.4 223.597 371.5 222.862Z" fill="#3F2727" stroke="#3F2727" stroke-opacity="0.67"/>
<path d="M421.168 189.59C395.509 173.35 366.001 195.996 363 216.887C359.999 237.778 364.5 249.252 366.5 253.734C368.5 258.215 390.183 293.94 378 315.984C378 315.984 364.131 339.276 356 353.817C347.869 368.357 348.959 379.559 351.5 396.14C354.041 412.722 294.5 414.065 294.5 414.065L301.5 370.248C306.805 344.304 318.688 325.196 327.013 309.304C335.337 293.413 340.555 276.038 351.5 219.875C362.5 180.041 375 158.63 410.5 156.638C430.257 158.888 448.5 177.551 448.5 177.551C467.182 200.478 485.298 234.686 498.5 297.551C516 330.414 533.5 346.348 538.5 359.792C543.5 373.236 545.246 391.905 543.5 401.617L540.5 414.065C540.5 414.065 527.86 396.466 508 376.721C489.148 359.981 448.716 338.225 439.5 315.984C430.284 293.743 428.275 245.391 432 235.31C413.851 222.862 428 204.439 421.168 189.59Z" fill="url(#paint6_linear)"/>
<path d="M421.168 189.59C395.509 173.35 366.001 195.996 363 216.887C359.999 237.778 364.5 249.252 366.5 253.734C368.5 258.215 390.183 293.94 378 315.984C378 315.984 364.131 339.276 356 353.817C347.869 368.357 348.959 379.559 351.5 396.14C354.041 412.722 294.5 414.065 294.5 414.065L301.5 370.248C306.805 344.304 318.688 325.196 327.013 309.304C335.337 293.413 340.555 276.038 351.5 219.875C362.5 180.041 375 158.63 410.5 156.638C430.257 158.888 448.5 177.551 448.5 177.551C467.182 200.478 485.298 234.686 498.5 297.551C516 330.414 533.5 346.348 538.5 359.792C543.5 373.236 545.246 391.905 543.5 401.617L540.5 414.065C540.5 414.065 527.86 396.466 508 376.721C489.148 359.981 448.716 338.225 439.5 315.984C430.284 293.743 428.275 245.391 432 235.31M421.168 189.59C431.83 198.189 435.725 225.229 432 235.31M421.168 189.59C428 204.439 413.851 222.862 432 235.31" stroke="url(#paint7_linear)"/>
<path d="M246 511.659L221 398.63L431.5 401.119L439 458.879L446.5 502.696L457.5 495.725L472.5 500.207L446.5 516.638L246 511.659Z" fill="#302F34"/>
<path d="M446.5 516.638L246 511.659L221 398.63L431.5 401.119L439 458.879M446.5 516.638L472.5 500.207L457.5 495.725L446.5 502.696L439 458.879M446.5 516.638L439 458.879" stroke="black"/>
<path d="M426.5 243.253C426.5 249.788 420.927 255.126 414 255.126C407.073 255.126 401.5 249.788 401.5 243.253C401.5 236.718 407.073 231.379 414 231.379C420.927 231.379 426.5 236.718 426.5 243.253Z" stroke="black"/>
<path d="M389.5 244.284C389.5 250.819 383.927 256.158 377 256.158C370.073 256.158 364.5 250.819 364.5 244.284C364.5 237.749 370.073 232.411 377 232.411C383.927 232.411 389.5 237.749 389.5 244.284Z" stroke="black"/>
<path d="M426 241.191H429L430 237.066" stroke="black"/>
<defs>
<linearGradient id="paint0_linear" x1="398.282" y1="182.515" x2="398.282" y2="297.829" gradientUnits="userSpaceOnUse">
<stop stop-color="#E19854"/>
<stop offset="1" stop-color="#E3B080" stop-opacity="0.79"/>
</linearGradient>
<linearGradient id="paint1_linear" x1="442.25" y1="295.061" x2="442.25" y2="469.335" gradientUnits="userSpaceOnUse">
<stop offset="0.015625" stop-color="#558368"/>
<stop offset="0.723958" stop-color="#0E1D14"/>
</linearGradient>
<linearGradient id="paint2_linear" x1="397.286" y1="237.396" x2="397.286" y2="242.799" gradientUnits="userSpaceOnUse">
<stop offset="0.9999" stop-color="#3F2727"/>
<stop offset="1" stop-color="#3A1515" stop-opacity="0.48"/>
</linearGradient>
<linearGradient id="paint3_linear" x1="434.286" y1="236.804" x2="434.286" y2="242.571" gradientUnits="userSpaceOnUse">
<stop offset="0.9999" stop-color="#3F2727"/>
<stop offset="1" stop-color="#3A1515" stop-opacity="0.48"/>
</linearGradient>
<linearGradient id="paint4_linear" x1="396.333" y1="249.252" x2="396.333" y2="262.696" gradientUnits="userSpaceOnUse">
<stop offset="0.598958" stop-color="#ECC2A0"/>
<stop offset="1" stop-color="#E3B68D"/>
</linearGradient>
<linearGradient id="paint5_linear" x1="396.333" y1="249.252" x2="396.333" y2="262.696" gradientUnits="userSpaceOnUse">
<stop offset="0.640625" stop-color="#ECC29F"/>
<stop offset="1" stop-color="#3F2727" stop-opacity="0.6"/>
</linearGradient>
<linearGradient id="paint6_linear" x1="420.75" y1="156.638" x2="420.75" y2="400.621" gradientUnits="userSpaceOnUse">
<stop stop-color="#472813"/>
<stop offset="1" stop-color="#895633"/>
</linearGradient>
<linearGradient id="paint7_linear" x1="420.75" y1="156.638" x2="420.75" y2="400.621" gradientUnits="userSpaceOnUse">
<stop stop-color="#3F2727"/>
<stop offset="1" stop-color="#763232" stop-opacity="0"/>
</linearGradient>
</defs>
</svg>
