<svg width="843" height="532" viewBox="0 0 843 532" fill="none" xmlns="http://www.w3.org/2000/svg">
<path d="M336.181 58.6602C347.072 -64.9453 169.875 44.274 135.732 73.0462C101.59 101.818 153.354 197.725 153.354 197.725C67.5939 191.234 278.909 281.643 181.99 267.257C85.0696 252.871 100.16 474.345 193.003 531H672.096C672.096 531 828.49 519.012 840.604 454.275C850.443 401.701 807.336 90.8575 740.38 158.163C673.425 225.469 642.359 87.4325 642.359 87.4325C568.19 -133.829 325.289 182.266 336.181 58.6602Z" fill="#FAF1F1" stroke="#CFACAC"/>
<rect width="275" height="6.20956" transform="matrix(1 0 0 -1 492 443.292)" fill="#3C3143" fill-opacity="0.59"/>
<rect x="492" y="218.506" width="275" height="168.9" fill="#302F34"/>
<rect x="612.577" y="387.406" width="23.2692" height="39.7412" fill="#302F34"/>
<rect x="603.058" y="427.147" width="40.1923" height="9.93529" fill="#302F34"/>
<rect x="501.519" y="229.683" width="254.904" height="145.304" fill="#FAF1F1"/>
<rect x="597.212" y="291.037" width="146.019" height="66.0632" rx="4.5" fill="#FAF1F1" stroke="#585656"/>
<path d="M743.202 298.609H597.769C597.408 293.938 598.016 292.339 600.413 291.158H738.442C742.235 291.73 743.192 293.463 743.202 298.609Z" fill="#585656" stroke="#585656"/>
<ellipse cx="614.163" cy="294.883" rx="1.58654" ry="1.86287" fill="white"/>
<ellipse cx="614.163" cy="294.883" rx="1.58654" ry="1.86287" fill="white"/>
<ellipse cx="603.587" cy="294.883" rx="1.58654" ry="1.86287" fill="white"/>
<ellipse cx="608.875" cy="294.883" rx="1.58654" ry="1.86287" fill="white"/>
<rect x="619.981" y="293.021" width="116.346" height="3.72573" fill="white"/>
<path d="M642.886 325.248L652.056 328.954V331.825L640.074 326.273V324.135L652.056 318.598V321.469L642.886 325.248ZM664.317 336.513H661.988L670.894 313.353H673.209L664.317 336.513ZM693.174 325.16L683.492 321.366V318.583L696.002 324.12V326.259L683.492 331.81V328.998L693.174 325.16Z" fill="#3C3143" fill-opacity="0.59"/>
<rect x="515.769" y="240.118" width="146.019" height="66.0632" rx="4.5" fill="#FAF1F1" stroke="#585656"/>
<path d="M661.76 247.691H516.327C515.966 243.02 516.574 241.421 518.971 240.239H657C660.793 240.811 661.749 242.544 661.76 247.691Z" fill="#585656" stroke="#585656"/>
<ellipse cx="532.721" cy="243.965" rx="1.58654" ry="1.86287" fill="white"/>
<ellipse cx="532.721" cy="243.965" rx="1.58654" ry="1.86287" fill="white"/>
<ellipse cx="522.144" cy="243.965" rx="1.58654" ry="1.86287" fill="white"/>
<ellipse cx="527.433" cy="243.965" rx="1.58654" ry="1.86287" fill="white"/>
<rect x="538.538" y="242.102" width="116.346" height="3.72573" fill="white"/>
<rect x="523.731" y="255.763" width="108.942" height="3.72573" fill="#F7CBE5"/>
<rect x="523.731" y="286.811" width="108.942" height="3.72573" fill="#C2DAC9"/>
<rect x="523.731" y="295.504" width="116.346" height="3.72573" fill="#3C3143" fill-opacity="0.59"/>
<rect x="523.731" y="263.215" width="84.6154" height="3.72573" fill="#3C3143" fill-opacity="0.59"/>
<rect x="523.731" y="270.666" width="89.9038" height="3.72573" fill="#C2DAC9"/>
<rect x="523.731" y="278.118" width="84.6154" height="3.72573" fill="#C4C4C4"/>
<path d="M364 231.395L363.5 242.737H365" stroke="black"/>
<rect x="2.5" y="60.5" width="357" height="272.374" fill="#FAF1F1" stroke="#302F34" stroke-width="5"/>
<rect x="264.43" y="179.954" width="72.4" height="41.606" fill="#C2DAC9" fill-opacity="0.78"/>
<path d="M285.786 199.31H283.615V203.049H282.39V193.807H285.449C286.49 193.807 287.29 194.044 287.849 194.518C288.412 194.992 288.693 195.682 288.693 196.587C288.693 197.163 288.536 197.664 288.223 198.092C287.914 198.519 287.483 198.838 286.928 199.05L289.099 202.973V203.049H287.792L285.786 199.31ZM283.615 198.314H285.487C286.093 198.314 286.573 198.157 286.928 197.844C287.288 197.531 287.468 197.112 287.468 196.587C287.468 196.016 287.297 195.578 286.954 195.273C286.615 194.969 286.124 194.814 285.481 194.81H283.615V198.314ZM293.073 203.176C292.142 203.176 291.384 202.871 290.8 202.262C290.216 201.648 289.924 200.83 289.924 199.805V199.59C289.924 198.908 290.054 198.301 290.312 197.768C290.574 197.23 290.938 196.811 291.404 196.511C291.873 196.206 292.381 196.054 292.927 196.054C293.82 196.054 294.514 196.348 295.009 196.936C295.504 197.524 295.752 198.367 295.752 199.463V199.951H291.099C291.116 200.628 291.313 201.177 291.689 201.595C292.07 202.01 292.552 202.218 293.136 202.218C293.551 202.218 293.902 202.133 294.19 201.964C294.478 201.794 294.73 201.57 294.945 201.291L295.663 201.849C295.087 202.734 294.224 203.176 293.073 203.176ZM292.927 197.019C292.453 197.019 292.055 197.192 291.734 197.539C291.412 197.882 291.213 198.365 291.137 198.987H294.577V198.898C294.543 198.301 294.383 197.84 294.095 197.514C293.807 197.184 293.418 197.019 292.927 197.019ZM301.357 203.049C301.289 202.914 301.234 202.672 301.192 202.325C300.646 202.892 299.994 203.176 299.237 203.176C298.559 203.176 298.003 202.986 297.567 202.605C297.135 202.22 296.92 201.733 296.92 201.145C296.92 200.43 297.19 199.875 297.732 199.482C298.278 199.084 299.044 198.885 300.03 198.885H301.173V198.345C301.173 197.935 301.05 197.609 300.804 197.368C300.559 197.122 300.197 197 299.719 197C299.3 197 298.949 197.106 298.665 197.317C298.382 197.529 298.24 197.785 298.24 198.085H297.059C297.059 197.742 297.18 197.412 297.421 197.095C297.667 196.773 297.997 196.519 298.411 196.333C298.83 196.147 299.289 196.054 299.789 196.054C300.58 196.054 301.2 196.253 301.649 196.651C302.097 197.044 302.33 197.588 302.347 198.282V201.443C302.347 202.074 302.427 202.575 302.588 202.948V203.049H301.357ZM299.408 202.154C299.776 202.154 300.125 202.059 300.455 201.868C300.785 201.678 301.024 201.43 301.173 201.126V199.717H300.252C298.813 199.717 298.094 200.138 298.094 200.98C298.094 201.348 298.217 201.636 298.462 201.843C298.708 202.05 299.023 202.154 299.408 202.154ZM306.943 202.218C307.362 202.218 307.728 202.091 308.041 201.837C308.354 201.583 308.527 201.265 308.561 200.885H309.672C309.651 201.278 309.515 201.653 309.266 202.008C309.016 202.364 308.682 202.647 308.263 202.859C307.848 203.07 307.408 203.176 306.943 203.176C306.007 203.176 305.263 202.865 304.708 202.243C304.158 201.617 303.883 200.762 303.883 199.678V199.482C303.883 198.813 304.006 198.219 304.251 197.698C304.497 197.177 304.848 196.773 305.305 196.486C305.766 196.198 306.31 196.054 306.936 196.054C307.706 196.054 308.345 196.285 308.853 196.746C309.365 197.207 309.638 197.806 309.672 198.542H308.561C308.527 198.098 308.358 197.734 308.053 197.45C307.753 197.163 307.381 197.019 306.936 197.019C306.34 197.019 305.876 197.235 305.546 197.666C305.22 198.094 305.057 198.714 305.057 199.526V199.748C305.057 200.54 305.22 201.149 305.546 201.576C305.872 202.004 306.337 202.218 306.943 202.218ZM312.586 194.518V196.181H313.868V197.089H312.586V201.348C312.586 201.623 312.643 201.83 312.757 201.97C312.871 202.105 313.066 202.173 313.341 202.173C313.476 202.173 313.663 202.148 313.9 202.097V203.049C313.591 203.134 313.29 203.176 312.998 203.176C312.473 203.176 312.078 203.017 311.811 202.7C311.545 202.383 311.411 201.932 311.411 201.348V197.089H310.161V196.181H311.411V194.518H312.586Z" fill="black"/>
<path d="M273.48 177.874L263.445 193.713" stroke="black" stroke-width="3"/>
<line y1="-1.5" x2="18.0532" y2="-1.5" transform="matrix(-0.534716 0.845032 -0.767259 -0.641338 336.83 207.691)" stroke="black" stroke-width="3"/>
<rect x="229.233" y="262.473" width="72.4" height="41.606" fill="#C4C4C4" fill-opacity="0.78"/>
<path d="M245.062 281.769H241.19L240.32 284.181H239.064L242.593 274.939H243.659L247.195 284.181H245.944L245.062 281.769ZM241.558 280.766H244.7L243.126 276.443L241.558 280.766ZM249.366 277.313L249.404 278.176C249.929 277.516 250.614 277.186 251.461 277.186C252.912 277.186 253.644 278.005 253.657 279.642V284.181H252.483V279.636C252.478 279.141 252.364 278.775 252.14 278.538C251.92 278.301 251.575 278.182 251.105 278.182C250.724 278.182 250.39 278.284 250.102 278.487C249.814 278.69 249.59 278.957 249.429 279.287V284.181H248.255V277.313H249.366ZM255.149 280.69C255.149 279.619 255.396 278.768 255.891 278.138C256.386 277.503 257.042 277.186 257.859 277.186C258.697 277.186 259.351 277.482 259.82 278.074L259.878 277.313H260.95V284.016C260.95 284.904 260.686 285.605 260.157 286.117C259.632 286.629 258.925 286.885 258.037 286.885C257.542 286.885 257.057 286.779 256.583 286.568C256.109 286.356 255.747 286.066 255.498 285.698L256.107 284.993C256.611 285.615 257.226 285.926 257.954 285.926C258.526 285.926 258.97 285.766 259.287 285.444C259.609 285.122 259.77 284.67 259.77 284.086V283.495C259.3 284.037 258.659 284.308 257.846 284.308C257.042 284.308 256.391 283.984 255.891 283.337C255.396 282.689 255.149 281.807 255.149 280.69ZM256.329 280.823C256.329 281.597 256.488 282.207 256.805 282.651C257.123 283.091 257.567 283.311 258.138 283.311C258.879 283.311 259.423 282.975 259.77 282.302V279.166C259.41 278.51 258.87 278.182 258.151 278.182C257.58 278.182 257.133 278.404 256.812 278.849C256.49 279.293 256.329 279.951 256.329 280.823ZM266.968 283.502C266.511 284.039 265.84 284.308 264.956 284.308C264.224 284.308 263.665 284.096 263.28 283.673C262.899 283.246 262.707 282.615 262.702 281.781V277.313H263.877V281.75C263.877 282.791 264.3 283.311 265.146 283.311C266.043 283.311 266.64 282.977 266.936 282.308V277.313H268.11V284.181H266.993L266.968 283.502ZM271.176 284.181H270.002V274.431H271.176V284.181ZM277.302 284.181C277.234 284.045 277.179 283.804 277.137 283.457C276.591 284.024 275.939 284.308 275.182 284.308C274.505 284.308 273.948 284.117 273.512 283.737C273.081 283.351 272.865 282.865 272.865 282.277C272.865 281.561 273.136 281.007 273.677 280.613C274.223 280.216 274.989 280.017 275.975 280.017H277.118V279.477C277.118 279.067 276.995 278.741 276.75 278.5C276.504 278.254 276.142 278.132 275.664 278.132C275.245 278.132 274.894 278.237 274.61 278.449C274.327 278.661 274.185 278.917 274.185 279.217H273.005C273.005 278.874 273.125 278.544 273.366 278.227C273.612 277.905 273.942 277.651 274.357 277.465C274.776 277.279 275.235 277.186 275.734 277.186C276.525 277.186 277.145 277.385 277.594 277.782C278.042 278.176 278.275 278.72 278.292 279.414V282.575C278.292 283.205 278.373 283.707 278.533 284.079V284.181H277.302ZM275.353 283.286C275.721 283.286 276.07 283.191 276.401 283C276.731 282.81 276.97 282.562 277.118 282.258V280.848H276.197C274.759 280.848 274.039 281.269 274.039 282.112C274.039 282.48 274.162 282.767 274.407 282.975C274.653 283.182 274.968 283.286 275.353 283.286ZM283.453 278.366C283.275 278.337 283.082 278.322 282.875 278.322C282.105 278.322 281.582 278.65 281.307 279.306V284.181H280.133V277.313H281.276L281.295 278.106C281.68 277.493 282.226 277.186 282.932 277.186C283.161 277.186 283.334 277.215 283.453 277.275V278.366Z" fill="black"/>
<path d="M236.073 259.699L226.039 275.538" stroke="black" stroke-width="3"/>
<line y1="-1.5" x2="18.0532" y2="-1.5" transform="matrix(-0.534716 0.845032 -0.767259 -0.641338 301.633 288.823)" stroke="black" stroke-width="3"/>
<rect x="209.737" y="103.069" width="71.3821" height="40.256" fill="#DE4949" fill-opacity="0.78"/>
<path d="M237.797 114.062H239.023V120.606C239.023 121.491 238.756 122.183 238.223 122.682C237.694 123.181 236.987 123.431 236.103 123.431C235.184 123.431 234.469 123.196 233.957 122.727C233.445 122.257 233.189 121.599 233.189 120.752H234.408C234.408 121.281 234.552 121.694 234.839 121.99C235.131 122.286 235.552 122.435 236.103 122.435C236.606 122.435 237.012 122.276 237.321 121.958C237.635 121.641 237.793 121.197 237.797 120.625V114.062ZM243.821 119.185C242.776 118.884 242.014 118.516 241.536 118.08C241.062 117.64 240.825 117.098 240.825 116.455C240.825 115.727 241.115 115.126 241.695 114.652C242.279 114.174 243.036 113.935 243.967 113.935C244.602 113.935 245.167 114.058 245.662 114.303C246.162 114.549 246.547 114.887 246.817 115.319C247.093 115.75 247.23 116.222 247.23 116.734H246.005C246.005 116.176 245.827 115.738 245.472 115.42C245.116 115.099 244.615 114.938 243.967 114.938C243.366 114.938 242.897 115.071 242.558 115.338C242.224 115.6 242.057 115.966 242.057 116.436C242.057 116.813 242.215 117.132 242.533 117.395C242.854 117.653 243.398 117.89 244.164 118.105C244.934 118.321 245.535 118.56 245.967 118.823C246.403 119.081 246.724 119.383 246.932 119.73C247.143 120.077 247.249 120.486 247.249 120.956C247.249 121.705 246.957 122.306 246.373 122.758C245.789 123.207 245.008 123.431 244.031 123.431C243.396 123.431 242.804 123.311 242.253 123.069C241.703 122.824 241.278 122.49 240.978 122.066C240.681 121.643 240.533 121.163 240.533 120.625H241.758C241.758 121.184 241.964 121.626 242.374 121.952C242.789 122.274 243.341 122.435 244.031 122.435C244.674 122.435 245.167 122.303 245.51 122.041C245.853 121.779 246.024 121.421 246.024 120.968C246.024 120.515 245.865 120.166 245.548 119.921C245.231 119.671 244.655 119.426 243.821 119.185Z" fill="black"/>
<path d="M216.266 101.596L209.027 112.81" stroke="black" stroke-width="3"/>
<line y1="-1.5" x2="12.851" y2="-1.5" transform="matrix(-0.541913 0.840434 -0.773157 -0.634215 281.119 133.506)" stroke="black" stroke-width="3"/>
<path d="M29.5469 96.1605L33.2148 97.6429V98.7913L28.4219 96.5706V95.7151L33.2148 93.5003V94.6487L29.5469 96.1605ZM36.0098 94.3616C36.4902 93.7718 37.1152 93.4769 37.8848 93.4769C39.2246 93.4769 39.9004 94.2327 39.9121 95.7444V99.9339H38.8281V95.7386C38.8242 95.2816 38.7188 94.9437 38.5117 94.7249C38.3086 94.5062 37.9902 94.3968 37.5566 94.3968C37.2051 94.3968 36.8965 94.4905 36.6309 94.678C36.3652 94.8655 36.1582 95.1116 36.0098 95.4163V99.9339H34.9258V90.9339H36.0098V94.3616ZM43.0059 92.0589V93.5941H44.1895V94.4319H43.0059V98.3636C43.0059 98.6175 43.0586 98.8089 43.1641 98.9378C43.2695 99.0628 43.4492 99.1253 43.7031 99.1253C43.8281 99.1253 44 99.1019 44.2188 99.055V99.9339C43.9336 100.012 43.6562 100.051 43.3867 100.051C42.9023 100.051 42.5371 99.9046 42.291 99.6116C42.0449 99.3187 41.9219 98.9026 41.9219 98.3636V94.4319H40.7676V93.5941H41.9219V92.0589H43.0059ZM46.4805 93.5941L46.5098 94.2972C46.9746 93.7503 47.6016 93.4769 48.3906 93.4769C49.2773 93.4769 49.8809 93.8167 50.2012 94.4964C50.4121 94.1917 50.6855 93.9456 51.0215 93.7581C51.3613 93.5706 51.7617 93.4769 52.2227 93.4769C53.6133 93.4769 54.3203 94.2132 54.3438 95.6859V99.9339H53.2598V95.7503C53.2598 95.2972 53.1562 94.9593 52.9492 94.7366C52.7422 94.5101 52.3945 94.3968 51.9062 94.3968C51.5039 94.3968 51.1699 94.5179 50.9043 94.7601C50.6387 94.9984 50.4844 95.3206 50.4414 95.7269V99.9339H49.3516V95.7796C49.3516 94.8577 48.9004 94.3968 47.998 94.3968C47.2871 94.3968 46.8008 94.6995 46.5391 95.305V99.9339H45.4551V93.5941H46.4805ZM57.1621 99.9339H56.0781V90.9339H57.1621V99.9339ZM62.7402 96.1253L58.8672 94.6077V93.4944L63.8711 95.7093V96.5648L58.8672 98.7855V97.6605L62.7402 96.1253ZM81.9648 225.166C82.3516 225.166 82.6895 225.049 82.9785 224.815C83.2676 224.58 83.4277 224.287 83.459 223.936H84.4844C84.4648 224.299 84.3398 224.645 84.1094 224.973C83.8789 225.301 83.5703 225.563 83.1836 225.758C82.8008 225.953 82.3945 226.051 81.9648 226.051C81.1016 226.051 80.4141 225.764 79.9023 225.19C79.3945 224.612 79.1406 223.823 79.1406 222.823V222.641C79.1406 222.024 79.2539 221.475 79.4805 220.994C79.707 220.514 80.0312 220.141 80.4531 219.875C80.8789 219.61 81.3809 219.477 81.959 219.477C82.6699 219.477 83.2598 219.69 83.7285 220.116C84.2012 220.541 84.4531 221.094 84.4844 221.774H83.459C83.4277 221.364 83.2715 221.028 82.9902 220.766C82.7129 220.5 82.3691 220.367 81.959 220.367C81.4082 220.367 80.9805 220.567 80.6758 220.965C80.375 221.36 80.2246 221.932 80.2246 222.682V222.887C80.2246 223.617 80.375 224.18 80.6758 224.575C80.9766 224.969 81.4062 225.166 81.9648 225.166ZM85.416 222.705C85.416 222.084 85.5371 221.526 85.7793 221.03C86.0254 220.534 86.3652 220.151 86.7988 219.881C87.2363 219.612 87.7344 219.477 88.293 219.477C89.1562 219.477 89.8535 219.776 90.3848 220.373C90.9199 220.971 91.1875 221.766 91.1875 222.758V222.834C91.1875 223.451 91.0684 224.006 90.8301 224.498C90.5957 224.987 90.2578 225.367 89.8164 225.641C89.3789 225.914 88.875 226.051 88.3047 226.051C87.4453 226.051 86.748 225.752 86.2129 225.155C85.6816 224.557 85.416 223.766 85.416 222.782V222.705ZM86.5059 222.834C86.5059 223.537 86.668 224.102 86.9922 224.528C87.3203 224.953 87.7578 225.166 88.3047 225.166C88.8555 225.166 89.293 224.951 89.6172 224.522C89.9414 224.088 90.1035 223.483 90.1035 222.705C90.1035 222.01 89.9375 221.448 89.6055 221.018C89.2773 220.584 88.8398 220.367 88.293 220.367C87.7578 220.367 87.3262 220.58 86.998 221.006C86.6699 221.432 86.5059 222.041 86.5059 222.834ZM92.2832 222.711C92.2832 221.739 92.5137 220.957 92.9746 220.367C93.4355 219.774 94.0391 219.477 94.7852 219.477C95.5273 219.477 96.1152 219.731 96.5488 220.239V216.934H97.6328V225.934H96.6367L96.584 225.254C96.1504 225.785 95.5469 226.051 94.7734 226.051C94.0391 226.051 93.4395 225.75 92.9746 225.149C92.5137 224.547 92.2832 223.762 92.2832 222.793V222.711ZM93.3672 222.834C93.3672 223.553 93.5156 224.116 93.8125 224.522C94.1094 224.928 94.5195 225.131 95.043 225.131C95.7305 225.131 96.2324 224.823 96.5488 224.205V221.293C96.2246 220.696 95.7266 220.397 95.0547 220.397C94.5234 220.397 94.1094 220.602 93.8125 221.012C93.5156 221.422 93.3672 222.03 93.3672 222.834ZM100.498 225.934H99.4141V219.594H100.498V225.934ZM99.3262 217.912C99.3262 217.737 99.3789 217.588 99.4844 217.467C99.5938 217.346 99.7539 217.285 99.9648 217.285C100.176 217.285 100.336 217.346 100.445 217.467C100.555 217.588 100.609 217.737 100.609 217.912C100.609 218.088 100.555 218.235 100.445 218.352C100.336 218.469 100.176 218.528 99.9648 218.528C99.7539 218.528 99.5938 218.469 99.4844 218.352C99.3789 218.235 99.3262 218.088 99.3262 217.912ZM103.264 219.594L103.299 220.391C103.783 219.782 104.416 219.477 105.197 219.477C106.537 219.477 107.213 220.233 107.225 221.744V225.934H106.141V221.739C106.137 221.282 106.031 220.944 105.824 220.725C105.621 220.506 105.303 220.397 104.869 220.397C104.518 220.397 104.209 220.491 103.943 220.678C103.678 220.866 103.471 221.112 103.322 221.416V225.934H102.238V219.594H103.264ZM108.602 222.711C108.602 221.723 108.83 220.938 109.287 220.356C109.744 219.77 110.35 219.477 111.104 219.477C111.877 219.477 112.48 219.75 112.914 220.297L112.967 219.594H113.957V225.782C113.957 226.602 113.713 227.248 113.225 227.721C112.74 228.194 112.088 228.43 111.268 228.43C110.811 228.43 110.363 228.332 109.926 228.137C109.488 227.942 109.154 227.674 108.924 227.334L109.486 226.684C109.951 227.258 110.52 227.545 111.191 227.545C111.719 227.545 112.129 227.397 112.422 227.1C112.719 226.803 112.867 226.385 112.867 225.846V225.301C112.434 225.801 111.842 226.051 111.092 226.051C110.35 226.051 109.748 225.752 109.287 225.155C108.83 224.557 108.602 223.742 108.602 222.711ZM109.691 222.834C109.691 223.549 109.838 224.112 110.131 224.522C110.424 224.928 110.834 225.131 111.361 225.131C112.045 225.131 112.547 224.821 112.867 224.2V221.305C112.535 220.7 112.037 220.397 111.373 220.397C110.846 220.397 110.434 220.602 110.137 221.012C109.84 221.422 109.691 222.03 109.691 222.834ZM29.5469 278.16L33.2148 279.643V280.791L28.4219 278.571V277.715L33.2148 275.5V276.649L29.5469 278.16ZM35.1426 282.666H34.2109L37.7734 273.403H38.6992L35.1426 282.666ZM40.9551 276.362C41.4355 275.772 42.0605 275.477 42.8301 275.477C44.1699 275.477 44.8457 276.233 44.8574 277.744V281.934H43.7734V277.739C43.7695 277.282 43.6641 276.944 43.457 276.725C43.2539 276.506 42.9355 276.397 42.502 276.397C42.1504 276.397 41.8418 276.491 41.5762 276.678C41.3105 276.866 41.1035 277.112 40.9551 277.416V281.934H39.8711V272.934H40.9551V276.362ZM47.9512 274.059V275.594H49.1348V276.432H47.9512V280.364C47.9512 280.617 48.0039 280.809 48.1094 280.938C48.2148 281.063 48.3945 281.125 48.6484 281.125C48.7734 281.125 48.9453 281.102 49.1641 281.055V281.934C48.8789 282.012 48.6016 282.051 48.332 282.051C47.8477 282.051 47.4824 281.905 47.2363 281.612C46.9902 281.319 46.8672 280.903 46.8672 280.364V276.432H45.7129V275.594H46.8672V274.059H47.9512ZM51.4258 275.594L51.4551 276.297C51.9199 275.75 52.5469 275.477 53.3359 275.477C54.2227 275.477 54.8262 275.817 55.1465 276.496C55.3574 276.192 55.6309 275.946 55.9668 275.758C56.3066 275.571 56.707 275.477 57.168 275.477C58.5586 275.477 59.2656 276.213 59.2891 277.686V281.934H58.2051V277.75C58.2051 277.297 58.1016 276.959 57.8945 276.737C57.6875 276.51 57.3398 276.397 56.8516 276.397C56.4492 276.397 56.1152 276.518 55.8496 276.76C55.584 276.998 55.4297 277.321 55.3867 277.727V281.934H54.2969V277.78C54.2969 276.858 53.8457 276.397 52.9434 276.397C52.2324 276.397 51.7461 276.7 51.4844 277.305V281.934H50.4004V275.594H51.4258ZM62.1074 281.934H61.0234V272.934H62.1074V281.934ZM67.6855 278.125L63.8125 276.608V275.494L68.8164 277.709V278.565L63.8125 280.785V279.66L67.6855 278.125Z" fill="#E46E6E"/>
<path d="M59.8809 138.594V141.934H58.7559V133.403H61.9023C62.8359 133.403 63.5664 133.641 64.0938 134.117C64.625 134.594 64.8906 135.225 64.8906 136.01C64.8906 136.838 64.6309 137.477 64.1113 137.926C63.5957 138.371 62.8555 138.594 61.8906 138.594H59.8809ZM59.8809 137.674H61.9023C62.5039 137.674 62.9648 137.534 63.2852 137.252C63.6055 136.967 63.7656 136.557 63.7656 136.022C63.7656 135.514 63.6055 135.108 63.2852 134.803C62.9648 134.498 62.5254 134.34 61.9668 134.328H59.8809V137.674ZM65.7871 138.705C65.7871 138.084 65.9082 137.526 66.1504 137.03C66.3965 136.534 66.7363 136.151 67.1699 135.881C67.6074 135.612 68.1055 135.477 68.6641 135.477C69.5273 135.477 70.2246 135.776 70.7559 136.373C71.291 136.971 71.5586 137.766 71.5586 138.758V138.834C71.5586 139.451 71.4395 140.006 71.2012 140.498C70.9668 140.987 70.6289 141.367 70.1875 141.641C69.75 141.914 69.2461 142.051 68.6758 142.051C67.8164 142.051 67.1191 141.752 66.584 141.155C66.0527 140.557 65.7871 139.766 65.7871 138.782V138.705ZM66.877 138.834C66.877 139.537 67.0391 140.102 67.3633 140.528C67.6914 140.953 68.1289 141.166 68.6758 141.166C69.2266 141.166 69.6641 140.951 69.9883 140.522C70.3125 140.088 70.4746 139.483 70.4746 138.705C70.4746 138.01 70.3086 137.448 69.9766 137.018C69.6484 136.584 69.2109 136.367 68.6641 136.367C68.1289 136.367 67.6973 136.58 67.3691 137.006C67.041 137.432 66.877 138.041 66.877 138.834ZM75.9824 136.567C75.8184 136.539 75.6406 136.526 75.4492 136.526C74.7383 136.526 74.2559 136.828 74.002 137.434V141.934H72.918V135.594H73.9727L73.9902 136.326C74.3457 135.76 74.8496 135.477 75.502 135.477C75.7129 135.477 75.873 135.504 75.9824 135.559V136.567ZM78.748 134.059V135.594H79.9316V136.432H78.748V140.364C78.748 140.617 78.8008 140.809 78.9062 140.938C79.0117 141.063 79.1914 141.125 79.4453 141.125C79.5703 141.125 79.7422 141.102 79.9609 141.055V141.934C79.6758 142.012 79.3984 142.051 79.1289 142.051C78.6445 142.051 78.2793 141.905 78.0332 141.612C77.7871 141.319 77.6641 140.903 77.6641 140.364V136.432H76.5098V135.594H77.6641V134.059H78.748ZM81.7363 141.934V136.432H80.7344V135.594H81.7363V134.944C81.7363 134.264 81.918 133.739 82.2812 133.367C82.6445 132.996 83.1582 132.811 83.8223 132.811C84.0723 132.811 84.3203 132.844 84.5664 132.91L84.5078 133.789C84.3242 133.754 84.1289 133.737 83.9219 133.737C83.5703 133.737 83.2988 133.84 83.1074 134.047C82.916 134.25 82.8203 134.543 82.8203 134.926V135.594H84.1738V136.432H82.8203V141.934H81.7363ZM85.0879 138.705C85.0879 138.084 85.209 137.526 85.4512 137.03C85.6973 136.534 86.0371 136.151 86.4707 135.881C86.9082 135.612 87.4062 135.477 87.9648 135.477C88.8281 135.477 89.5254 135.776 90.0566 136.373C90.5918 136.971 90.8594 137.766 90.8594 138.758V138.834C90.8594 139.451 90.7402 140.006 90.502 140.498C90.2676 140.987 89.9297 141.367 89.4883 141.641C89.0508 141.914 88.5469 142.051 87.9766 142.051C87.1172 142.051 86.4199 141.752 85.8848 141.155C85.3535 140.557 85.0879 139.766 85.0879 138.782V138.705ZM86.1777 138.834C86.1777 139.537 86.3398 140.102 86.6641 140.528C86.9922 140.953 87.4297 141.166 87.9766 141.166C88.5273 141.166 88.9648 140.951 89.2891 140.522C89.6133 140.088 89.7754 139.483 89.7754 138.705C89.7754 138.01 89.6094 137.448 89.2773 137.018C88.9492 136.584 88.5117 136.367 87.9648 136.367C87.4297 136.367 86.998 136.58 86.6699 137.006C86.3418 137.432 86.1777 138.041 86.1777 138.834ZM93.3965 141.934H92.3125V132.934H93.3965V141.934ZM96.3145 141.934H95.2305V135.594H96.3145V141.934ZM95.1426 133.912C95.1426 133.737 95.1953 133.588 95.3008 133.467C95.4102 133.346 95.5703 133.285 95.7812 133.285C95.9922 133.285 96.1523 133.346 96.2617 133.467C96.3711 133.588 96.4258 133.737 96.4258 133.912C96.4258 134.088 96.3711 134.235 96.2617 134.352C96.1523 134.469 95.9922 134.528 95.7812 134.528C95.5703 134.528 95.4102 134.469 95.3008 134.352C95.1953 134.235 95.1426 134.088 95.1426 133.912ZM97.7676 138.705C97.7676 138.084 97.8887 137.526 98.1309 137.03C98.377 136.534 98.7168 136.151 99.1504 135.881C99.5879 135.612 100.086 135.477 100.645 135.477C101.508 135.477 102.205 135.776 102.736 136.373C103.271 136.971 103.539 137.766 103.539 138.758V138.834C103.539 139.451 103.42 140.006 103.182 140.498C102.947 140.987 102.609 141.367 102.168 141.641C101.73 141.914 101.227 142.051 100.656 142.051C99.7969 142.051 99.0996 141.752 98.5645 141.155C98.0332 140.557 97.7676 139.766 97.7676 138.782V138.705ZM98.8574 138.834C98.8574 139.537 99.0195 140.102 99.3438 140.528C99.6719 140.953 100.109 141.166 100.656 141.166C101.207 141.166 101.645 140.951 101.969 140.522C102.293 140.088 102.455 139.483 102.455 138.705C102.455 138.01 102.289 137.448 101.957 137.018C101.629 136.584 101.191 136.367 100.645 136.367C100.109 136.367 99.6777 136.58 99.3496 137.006C99.0215 137.432 98.8574 138.041 98.8574 138.834ZM82.1055 211.934H80.9746V207.991H76.6738V211.934H75.5488V203.403H76.6738V207.071H80.9746V203.403H82.1055V211.934ZM86.5645 212.051C85.7051 212.051 85.0059 211.77 84.4668 211.207C83.9277 210.641 83.6582 209.885 83.6582 208.94V208.741C83.6582 208.112 83.7773 207.551 84.0156 207.059C84.2578 206.563 84.5938 206.176 85.0234 205.899C85.457 205.617 85.9258 205.477 86.4297 205.477C87.2539 205.477 87.8945 205.748 88.3516 206.291C88.8086 206.834 89.0371 207.612 89.0371 208.623V209.075H84.7422C84.7578 209.7 84.9395 210.205 85.2871 210.592C85.6387 210.975 86.084 211.166 86.623 211.166C87.0059 211.166 87.3301 211.088 87.5957 210.932C87.8613 210.776 88.0938 210.569 88.293 210.311L88.9551 210.826C88.4238 211.643 87.627 212.051 86.5645 212.051ZM86.4297 206.367C85.9922 206.367 85.625 206.528 85.3281 206.848C85.0312 207.164 84.8477 207.61 84.7773 208.184H87.9531V208.102C87.9219 207.551 87.7734 207.125 87.5078 206.825C87.2422 206.52 86.8828 206.367 86.4297 206.367ZM91.4746 211.934H90.3906V202.934H91.4746V211.934ZM94.3926 211.934H93.3086V202.934H94.3926V211.934ZM95.8457 208.705C95.8457 208.084 95.9668 207.526 96.209 207.03C96.4551 206.534 96.7949 206.151 97.2285 205.881C97.666 205.612 98.1641 205.477 98.7227 205.477C99.5859 205.477 100.283 205.776 100.814 206.373C101.35 206.971 101.617 207.766 101.617 208.758V208.834C101.617 209.451 101.498 210.006 101.26 210.498C101.025 210.987 100.688 211.367 100.246 211.641C99.8086 211.914 99.3047 212.051 98.7344 212.051C97.875 212.051 97.1777 211.752 96.6426 211.155C96.1113 210.557 95.8457 209.766 95.8457 208.782V208.705ZM96.9355 208.834C96.9355 209.537 97.0977 210.102 97.4219 210.528C97.75 210.953 98.1875 211.166 98.7344 211.166C99.2852 211.166 99.7227 210.951 100.047 210.522C100.371 210.088 100.533 209.483 100.533 208.705C100.533 208.01 100.367 207.448 100.035 207.018C99.707 206.584 99.2695 206.367 98.7227 206.367C98.1875 206.367 97.7559 206.58 97.4277 207.006C97.0996 207.432 96.9355 208.041 96.9355 208.834ZM107.963 209.244L108.127 210.369L108.367 209.356L110.055 203.403H111.004L112.65 209.356L112.885 210.387L113.066 209.239L114.391 203.403H115.521L113.453 211.934H112.428L110.67 205.717L110.535 205.067L110.4 205.717L108.578 211.934H107.553L105.49 203.403H106.615L107.963 209.244ZM116.131 208.705C116.131 208.084 116.252 207.526 116.494 207.03C116.74 206.534 117.08 206.151 117.514 205.881C117.951 205.612 118.449 205.477 119.008 205.477C119.871 205.477 120.568 205.776 121.1 206.373C121.635 206.971 121.902 207.766 121.902 208.758V208.834C121.902 209.451 121.783 210.006 121.545 210.498C121.311 210.987 120.973 211.367 120.531 211.641C120.094 211.914 119.59 212.051 119.02 212.051C118.16 212.051 117.463 211.752 116.928 211.155C116.396 210.557 116.131 209.766 116.131 208.782V208.705ZM117.221 208.834C117.221 209.537 117.383 210.102 117.707 210.528C118.035 210.953 118.473 211.166 119.02 211.166C119.57 211.166 120.008 210.951 120.332 210.522C120.656 210.088 120.818 209.483 120.818 208.705C120.818 208.01 120.652 207.448 120.32 207.018C119.992 206.584 119.555 206.367 119.008 206.367C118.473 206.367 118.041 206.58 117.713 207.006C117.385 207.432 117.221 208.041 117.221 208.834ZM126.326 206.567C126.162 206.539 125.984 206.526 125.793 206.526C125.082 206.526 124.6 206.828 124.346 207.434V211.934H123.262V205.594H124.316L124.334 206.326C124.689 205.76 125.193 205.477 125.846 205.477C126.057 205.477 126.217 205.504 126.326 205.559V206.567ZM128.506 211.934H127.422V202.934H128.506V211.934ZM129.982 208.711C129.982 207.739 130.213 206.957 130.674 206.367C131.135 205.774 131.738 205.477 132.484 205.477C133.227 205.477 133.814 205.731 134.248 206.239V202.934H135.332V211.934H134.336L134.283 211.254C133.85 211.785 133.246 212.051 132.473 212.051C131.738 212.051 131.139 211.75 130.674 211.149C130.213 210.547 129.982 209.762 129.982 208.793V208.711ZM131.066 208.834C131.066 209.553 131.215 210.116 131.512 210.522C131.809 210.928 132.219 211.131 132.742 211.131C133.43 211.131 133.932 210.823 134.248 210.205V207.293C133.924 206.696 133.426 206.397 132.754 206.397C132.223 206.397 131.809 206.602 131.512 207.012C131.215 207.422 131.066 208.03 131.066 208.834ZM137.043 211.366C137.043 211.178 137.098 211.022 137.207 210.897C137.32 210.772 137.488 210.709 137.711 210.709C137.934 210.709 138.102 210.772 138.215 210.897C138.332 211.022 138.391 211.178 138.391 211.366C138.391 211.545 138.332 211.696 138.215 211.817C138.102 211.938 137.934 211.998 137.711 211.998C137.488 211.998 137.32 211.938 137.207 211.817C137.098 211.696 137.043 211.545 137.043 211.366ZM144.537 211.934H143.412V203.403H144.537V211.934ZM146.506 205.805L145.891 205.383C146.254 204.875 146.441 204.34 146.453 203.778V202.934H147.525V203.696C147.521 204.086 147.424 204.477 147.232 204.867C147.045 205.254 146.803 205.567 146.506 205.805ZM149.734 205.594L149.764 206.297C150.229 205.75 150.855 205.477 151.645 205.477C152.531 205.477 153.135 205.817 153.455 206.496C153.666 206.192 153.939 205.946 154.275 205.758C154.615 205.571 155.016 205.477 155.477 205.477C156.867 205.477 157.574 206.213 157.598 207.686V211.934H156.514V207.75C156.514 207.297 156.41 206.959 156.203 206.737C155.996 206.51 155.648 206.397 155.16 206.397C154.758 206.397 154.424 206.518 154.158 206.76C153.893 206.998 153.738 207.321 153.695 207.727V211.934H152.605V207.78C152.605 206.858 152.154 206.397 151.252 206.397C150.541 206.397 150.055 206.7 149.793 207.305V211.934H148.709V205.594H149.734ZM163.592 211.934H162.467V203.403H163.592V211.934ZM168.549 206.567C168.385 206.539 168.207 206.526 168.016 206.526C167.305 206.526 166.822 206.828 166.568 207.434V211.934H165.484V205.594H166.539L166.557 206.326C166.912 205.76 167.416 205.477 168.068 205.477C168.279 205.477 168.439 205.504 168.549 205.559V206.567ZM170.729 211.934H169.645V205.594H170.729V211.934ZM169.557 203.912C169.557 203.737 169.609 203.588 169.715 203.467C169.824 203.346 169.984 203.285 170.195 203.285C170.406 203.285 170.566 203.346 170.676 203.467C170.785 203.588 170.84 203.737 170.84 203.912C170.84 204.088 170.785 204.235 170.676 204.352C170.566 204.469 170.406 204.528 170.195 204.528C169.984 204.528 169.824 204.469 169.715 204.352C169.609 204.235 169.557 204.088 169.557 203.912ZM173.494 205.594L173.529 206.391C174.014 205.782 174.646 205.477 175.428 205.477C176.768 205.477 177.443 206.233 177.455 207.744V211.934H176.371V207.739C176.367 207.282 176.262 206.944 176.055 206.725C175.852 206.506 175.533 206.397 175.1 206.397C174.748 206.397 174.439 206.491 174.174 206.678C173.908 206.866 173.701 207.112 173.553 207.416V211.934H172.469V205.594H173.494ZM183.004 211.934C182.941 211.809 182.891 211.586 182.852 211.266C182.348 211.789 181.746 212.051 181.047 212.051C180.422 212.051 179.908 211.875 179.506 211.524C179.107 211.168 178.908 210.719 178.908 210.176C178.908 209.516 179.158 209.004 179.658 208.641C180.162 208.274 180.869 208.09 181.779 208.09H182.834V207.592C182.834 207.213 182.721 206.912 182.494 206.69C182.268 206.463 181.934 206.35 181.492 206.35C181.105 206.35 180.781 206.448 180.52 206.643C180.258 206.838 180.127 207.075 180.127 207.352H179.037C179.037 207.035 179.148 206.731 179.371 206.438C179.598 206.141 179.902 205.907 180.285 205.735C180.672 205.563 181.096 205.477 181.557 205.477C182.287 205.477 182.859 205.66 183.273 206.028C183.688 206.391 183.902 206.893 183.918 207.534V210.451C183.918 211.034 183.992 211.496 184.141 211.84V211.934H183.004ZM181.205 211.108C181.545 211.108 181.867 211.02 182.172 210.844C182.477 210.668 182.697 210.44 182.834 210.159V208.858H181.984C180.656 208.858 179.992 209.246 179.992 210.024C179.992 210.364 180.105 210.629 180.332 210.821C180.559 211.012 180.85 211.108 181.205 211.108ZM185.582 213.633L184.967 213.211C185.334 212.7 185.525 212.172 185.541 211.629V210.651H186.602V211.5C186.602 211.895 186.504 212.289 186.309 212.684C186.117 213.078 185.875 213.395 185.582 213.633ZM192.326 211.934H191.201V203.403H192.326V211.934ZM198.373 211.934H197.289V202.934H198.373V211.934ZM199.826 208.705C199.826 208.084 199.947 207.526 200.189 207.03C200.436 206.534 200.775 206.151 201.209 205.881C201.646 205.612 202.145 205.477 202.703 205.477C203.566 205.477 204.264 205.776 204.795 206.373C205.33 206.971 205.598 207.766 205.598 208.758V208.834C205.598 209.451 205.479 210.006 205.24 210.498C205.006 210.987 204.668 211.367 204.227 211.641C203.789 211.914 203.285 212.051 202.715 212.051C201.855 212.051 201.158 211.752 200.623 211.155C200.092 210.557 199.826 209.766 199.826 208.782V208.705ZM200.916 208.834C200.916 209.537 201.078 210.102 201.402 210.528C201.73 210.953 202.168 211.166 202.715 211.166C203.266 211.166 203.703 210.951 204.027 210.522C204.352 210.088 204.514 209.483 204.514 208.705C204.514 208.01 204.348 207.448 204.016 207.018C203.688 206.584 203.25 206.367 202.703 206.367C202.168 206.367 201.736 206.58 201.408 207.006C201.08 207.432 200.916 208.041 200.916 208.834ZM208.955 210.463L210.525 205.594H211.633L209.359 211.934H208.533L206.236 205.594H207.344L208.955 210.463ZM215.225 212.051C214.365 212.051 213.666 211.77 213.127 211.207C212.588 210.641 212.318 209.885 212.318 208.94V208.741C212.318 208.112 212.438 207.551 212.676 207.059C212.918 206.563 213.254 206.176 213.684 205.899C214.117 205.617 214.586 205.477 215.09 205.477C215.914 205.477 216.555 205.748 217.012 206.291C217.469 206.834 217.697 207.612 217.697 208.623V209.075H213.402C213.418 209.7 213.6 210.205 213.947 210.592C214.299 210.975 214.744 211.166 215.283 211.166C215.666 211.166 215.99 211.088 216.256 210.932C216.521 210.776 216.754 210.569 216.953 210.311L217.615 210.826C217.084 211.643 216.287 212.051 215.225 212.051ZM215.09 206.367C214.652 206.367 214.285 206.528 213.988 206.848C213.691 207.164 213.508 207.61 213.438 208.184H216.613V208.102C216.582 207.551 216.434 207.125 216.168 206.825C215.902 206.52 215.543 206.367 215.09 206.367ZM122.488 225.934C122.426 225.809 122.375 225.586 122.336 225.266C121.832 225.789 121.23 226.051 120.531 226.051C119.906 226.051 119.393 225.875 118.99 225.524C118.592 225.168 118.393 224.719 118.393 224.176C118.393 223.516 118.643 223.004 119.143 222.641C119.646 222.274 120.354 222.09 121.264 222.09H122.318V221.592C122.318 221.213 122.205 220.912 121.979 220.69C121.752 220.463 121.418 220.35 120.977 220.35C120.59 220.35 120.266 220.448 120.004 220.643C119.742 220.838 119.611 221.075 119.611 221.352H118.521C118.521 221.035 118.633 220.731 118.855 220.438C119.082 220.141 119.387 219.907 119.77 219.735C120.156 219.563 120.58 219.477 121.041 219.477C121.771 219.477 122.344 219.66 122.758 220.028C123.172 220.391 123.387 220.893 123.402 221.534V224.451C123.402 225.034 123.477 225.496 123.625 225.84V225.934H122.488ZM120.689 225.108C121.029 225.108 121.352 225.02 121.656 224.844C121.961 224.668 122.182 224.44 122.318 224.159V222.858H121.469C120.141 222.858 119.477 223.246 119.477 224.024C119.477 224.364 119.59 224.629 119.816 224.821C120.043 225.012 120.334 225.108 120.689 225.108ZM126.127 219.594L126.162 220.391C126.646 219.782 127.279 219.477 128.061 219.477C129.4 219.477 130.076 220.233 130.088 221.744V225.934H129.004V221.739C129 221.282 128.895 220.944 128.688 220.725C128.484 220.506 128.166 220.397 127.732 220.397C127.381 220.397 127.072 220.491 126.807 220.678C126.541 220.866 126.334 221.112 126.186 221.416V225.934H125.102V219.594H126.127ZM131.459 222.711C131.459 221.739 131.689 220.957 132.15 220.367C132.611 219.774 133.215 219.477 133.961 219.477C134.703 219.477 135.291 219.731 135.725 220.239V216.934H136.809V225.934H135.812L135.76 225.254C135.326 225.785 134.723 226.051 133.949 226.051C133.215 226.051 132.615 225.75 132.15 225.149C131.689 224.547 131.459 223.762 131.459 222.793V222.711ZM132.543 222.834C132.543 223.553 132.691 224.116 132.988 224.522C133.285 224.928 133.695 225.131 134.219 225.131C134.906 225.131 135.408 224.823 135.725 224.205V221.293C135.4 220.696 134.902 220.397 134.23 220.397C133.699 220.397 133.285 220.602 132.988 221.012C132.691 221.422 132.543 222.03 132.543 222.834ZM144.016 225.166C144.402 225.166 144.74 225.049 145.029 224.815C145.318 224.58 145.479 224.287 145.51 223.936H146.535C146.516 224.299 146.391 224.645 146.16 224.973C145.93 225.301 145.621 225.563 145.234 225.758C144.852 225.953 144.445 226.051 144.016 226.051C143.152 226.051 142.465 225.764 141.953 225.19C141.445 224.612 141.191 223.823 141.191 222.823V222.641C141.191 222.024 141.305 221.475 141.531 220.994C141.758 220.514 142.082 220.141 142.504 219.875C142.93 219.61 143.432 219.477 144.01 219.477C144.721 219.477 145.311 219.69 145.779 220.116C146.252 220.541 146.504 221.094 146.535 221.774H145.51C145.479 221.364 145.322 221.028 145.041 220.766C144.764 220.5 144.42 220.367 144.01 220.367C143.459 220.367 143.031 220.567 142.727 220.965C142.426 221.36 142.275 221.932 142.275 222.682V222.887C142.275 223.617 142.426 224.18 142.727 224.575C143.027 224.969 143.457 225.166 144.016 225.166ZM150.818 220.567C150.654 220.539 150.477 220.526 150.285 220.526C149.574 220.526 149.092 220.828 148.838 221.434V225.934H147.754V219.594H148.809L148.826 220.326C149.182 219.76 149.686 219.477 150.338 219.477C150.549 219.477 150.709 219.504 150.818 219.559V220.567ZM154.334 226.051C153.475 226.051 152.775 225.77 152.236 225.207C151.697 224.641 151.428 223.885 151.428 222.94V222.741C151.428 222.112 151.547 221.551 151.785 221.059C152.027 220.563 152.363 220.176 152.793 219.899C153.227 219.617 153.695 219.477 154.199 219.477C155.023 219.477 155.664 219.748 156.121 220.291C156.578 220.834 156.807 221.612 156.807 222.623V223.075H152.512C152.527 223.7 152.709 224.205 153.057 224.592C153.408 224.975 153.854 225.166 154.393 225.166C154.775 225.166 155.1 225.088 155.365 224.932C155.631 224.776 155.863 224.569 156.062 224.311L156.725 224.826C156.193 225.643 155.396 226.051 154.334 226.051ZM154.199 220.367C153.762 220.367 153.395 220.528 153.098 220.848C152.801 221.164 152.617 221.61 152.547 222.184H155.723V222.102C155.691 221.551 155.543 221.125 155.277 220.825C155.012 220.52 154.652 220.367 154.199 220.367ZM161.98 225.934C161.918 225.809 161.867 225.586 161.828 225.266C161.324 225.789 160.723 226.051 160.023 226.051C159.398 226.051 158.885 225.875 158.482 225.524C158.084 225.168 157.885 224.719 157.885 224.176C157.885 223.516 158.135 223.004 158.635 222.641C159.139 222.274 159.846 222.09 160.756 222.09H161.811V221.592C161.811 221.213 161.697 220.912 161.471 220.69C161.244 220.463 160.91 220.35 160.469 220.35C160.082 220.35 159.758 220.448 159.496 220.643C159.234 220.838 159.104 221.075 159.104 221.352H158.014C158.014 221.035 158.125 220.731 158.348 220.438C158.574 220.141 158.879 219.907 159.262 219.735C159.648 219.563 160.072 219.477 160.533 219.477C161.264 219.477 161.836 219.66 162.25 220.028C162.664 220.391 162.879 220.893 162.895 221.534V224.451C162.895 225.034 162.969 225.496 163.117 225.84V225.934H161.98ZM160.182 225.108C160.521 225.108 160.844 225.02 161.148 224.844C161.453 224.668 161.674 224.44 161.811 224.159V222.858H160.961C159.633 222.858 158.969 223.246 158.969 224.024C158.969 224.364 159.082 224.629 159.309 224.821C159.535 225.012 159.826 225.108 160.182 225.108ZM166.064 218.059V219.594H167.248V220.432H166.064V224.364C166.064 224.617 166.117 224.809 166.223 224.938C166.328 225.063 166.508 225.125 166.762 225.125C166.887 225.125 167.059 225.102 167.277 225.055V225.934C166.992 226.012 166.715 226.051 166.445 226.051C165.961 226.051 165.596 225.905 165.35 225.612C165.104 225.319 164.98 224.903 164.98 224.364V220.432H163.826V219.594H164.98V218.059H166.064ZM169.697 225.934H168.613V219.594H169.697V225.934ZM168.525 217.912C168.525 217.737 168.578 217.588 168.684 217.467C168.793 217.346 168.953 217.285 169.164 217.285C169.375 217.285 169.535 217.346 169.645 217.467C169.754 217.588 169.809 217.737 169.809 217.912C169.809 218.088 169.754 218.235 169.645 218.352C169.535 218.469 169.375 218.528 169.164 218.528C168.953 218.528 168.793 218.469 168.684 218.352C168.578 218.235 168.525 218.088 168.525 217.912ZM172.463 219.594L172.498 220.391C172.982 219.782 173.615 219.477 174.396 219.477C175.736 219.477 176.412 220.233 176.424 221.744V225.934H175.34V221.739C175.336 221.282 175.23 220.944 175.023 220.725C174.82 220.506 174.502 220.397 174.068 220.397C173.717 220.397 173.408 220.491 173.143 220.678C172.877 220.866 172.67 221.112 172.521 221.416V225.934H171.438V219.594H172.463ZM177.801 222.711C177.801 221.723 178.029 220.938 178.486 220.356C178.943 219.77 179.549 219.477 180.303 219.477C181.076 219.477 181.68 219.75 182.113 220.297L182.166 219.594H183.156V225.782C183.156 226.602 182.912 227.248 182.424 227.721C181.939 228.194 181.287 228.43 180.467 228.43C180.01 228.43 179.562 228.332 179.125 228.137C178.688 227.942 178.354 227.674 178.123 227.334L178.686 226.684C179.15 227.258 179.719 227.545 180.391 227.545C180.918 227.545 181.328 227.397 181.621 227.1C181.918 226.803 182.066 226.385 182.066 225.846V225.301C181.633 225.801 181.041 226.051 180.291 226.051C179.549 226.051 178.947 225.752 178.486 225.155C178.029 224.557 177.801 223.742 177.801 222.711ZM178.891 222.834C178.891 223.549 179.037 224.112 179.33 224.522C179.623 224.928 180.033 225.131 180.561 225.131C181.244 225.131 181.746 224.821 182.066 224.2V221.305C181.734 220.7 181.236 220.397 180.572 220.397C180.045 220.397 179.633 220.602 179.336 221.012C179.039 221.422 178.891 222.03 178.891 222.834ZM188.799 219.594L188.834 220.391C189.318 219.782 189.951 219.477 190.732 219.477C192.072 219.477 192.748 220.233 192.76 221.744V225.934H191.676V221.739C191.672 221.282 191.566 220.944 191.359 220.725C191.156 220.506 190.838 220.397 190.404 220.397C190.053 220.397 189.744 220.491 189.479 220.678C189.213 220.866 189.006 221.112 188.857 221.416V225.934H187.773V219.594H188.799ZM197.025 226.051C196.166 226.051 195.467 225.77 194.928 225.207C194.389 224.641 194.119 223.885 194.119 222.94V222.741C194.119 222.112 194.238 221.551 194.477 221.059C194.719 220.563 195.055 220.176 195.484 219.899C195.918 219.617 196.387 219.477 196.891 219.477C197.715 219.477 198.355 219.748 198.812 220.291C199.27 220.834 199.498 221.612 199.498 222.623V223.075H195.203C195.219 223.7 195.4 224.205 195.748 224.592C196.1 224.975 196.545 225.166 197.084 225.166C197.467 225.166 197.791 225.088 198.057 224.932C198.322 224.776 198.555 224.569 198.754 224.311L199.416 224.826C198.885 225.643 198.088 226.051 197.025 226.051ZM196.891 220.367C196.453 220.367 196.086 220.528 195.789 220.848C195.492 221.164 195.309 221.61 195.238 222.184H198.414V222.102C198.383 221.551 198.234 221.125 197.969 220.825C197.703 220.52 197.344 220.367 196.891 220.367ZM206.371 224.44L207.59 219.594H208.674L206.828 225.934H205.949L204.408 221.129L202.908 225.934H202.029L200.189 219.594H201.268L202.516 224.34L203.992 219.594H204.865L206.371 224.44ZM214.229 218.059V219.594H215.412V220.432H214.229V224.364C214.229 224.617 214.281 224.809 214.387 224.938C214.492 225.063 214.672 225.125 214.926 225.125C215.051 225.125 215.223 225.102 215.441 225.055V225.934C215.156 226.012 214.879 226.051 214.609 226.051C214.125 226.051 213.76 225.905 213.514 225.612C213.268 225.319 213.145 224.903 213.145 224.364V220.432H211.99V219.594H213.145V218.059H214.229ZM217.768 220.362C218.248 219.772 218.873 219.477 219.643 219.477C220.982 219.477 221.658 220.233 221.67 221.744V225.934H220.586V221.739C220.582 221.282 220.477 220.944 220.27 220.725C220.066 220.506 219.748 220.397 219.314 220.397C218.963 220.397 218.654 220.491 218.389 220.678C218.123 220.866 217.916 221.112 217.768 221.416V225.934H216.684V216.934H217.768V220.362ZM224.471 225.934H223.387V219.594H224.471V225.934ZM223.299 217.912C223.299 217.737 223.352 217.588 223.457 217.467C223.566 217.346 223.727 217.285 223.938 217.285C224.148 217.285 224.309 217.346 224.418 217.467C224.527 217.588 224.582 217.737 224.582 217.912C224.582 218.088 224.527 218.235 224.418 218.352C224.309 218.469 224.148 218.528 223.938 218.528C223.727 218.528 223.566 218.469 223.457 218.352C223.352 218.235 223.299 218.088 223.299 217.912ZM227.236 219.594L227.271 220.391C227.756 219.782 228.389 219.477 229.17 219.477C230.51 219.477 231.186 220.233 231.197 221.744V225.934H230.113V221.739C230.109 221.282 230.004 220.944 229.797 220.725C229.594 220.506 229.275 220.397 228.842 220.397C228.49 220.397 228.182 220.491 227.916 220.678C227.65 220.866 227.443 221.112 227.295 221.416V225.934H226.211V219.594H227.236ZM232.574 222.711C232.574 221.723 232.803 220.938 233.26 220.356C233.717 219.77 234.322 219.477 235.076 219.477C235.85 219.477 236.453 219.75 236.887 220.297L236.939 219.594H237.93V225.782C237.93 226.602 237.686 227.248 237.197 227.721C236.713 228.194 236.061 228.43 235.24 228.43C234.783 228.43 234.336 228.332 233.898 228.137C233.461 227.942 233.127 227.674 232.896 227.334L233.459 226.684C233.924 227.258 234.492 227.545 235.164 227.545C235.691 227.545 236.102 227.397 236.395 227.1C236.691 226.803 236.84 226.385 236.84 225.846V225.301C236.406 225.801 235.814 226.051 235.064 226.051C234.322 226.051 233.721 225.752 233.26 225.155C232.803 224.557 232.574 223.742 232.574 222.711ZM233.664 222.834C233.664 223.549 233.811 224.112 234.104 224.522C234.396 224.928 234.807 225.131 235.334 225.131C236.018 225.131 236.52 224.821 236.84 224.2V221.305C236.508 220.7 236.01 220.397 235.346 220.397C234.818 220.397 234.406 220.602 234.109 221.012C233.812 221.422 233.664 222.03 233.664 222.834ZM243.262 224.252C243.262 223.959 243.15 223.733 242.928 223.573C242.709 223.409 242.324 223.268 241.773 223.151C241.227 223.034 240.791 222.893 240.467 222.729C240.146 222.565 239.908 222.369 239.752 222.143C239.6 221.916 239.523 221.647 239.523 221.334C239.523 220.815 239.742 220.375 240.18 220.016C240.621 219.657 241.184 219.477 241.867 219.477C242.586 219.477 243.168 219.662 243.613 220.034C244.062 220.405 244.287 220.879 244.287 221.457H243.197C243.197 221.16 243.07 220.905 242.816 220.69C242.566 220.475 242.25 220.367 241.867 220.367C241.473 220.367 241.164 220.453 240.941 220.625C240.719 220.797 240.607 221.022 240.607 221.299C240.607 221.561 240.711 221.758 240.918 221.891C241.125 222.024 241.498 222.151 242.037 222.272C242.58 222.393 243.02 222.537 243.355 222.705C243.691 222.873 243.939 223.076 244.1 223.315C244.264 223.549 244.346 223.836 244.346 224.176C244.346 224.742 244.119 225.198 243.666 225.541C243.213 225.881 242.625 226.051 241.902 226.051C241.395 226.051 240.945 225.961 240.555 225.782C240.164 225.602 239.857 225.352 239.635 225.032C239.416 224.707 239.307 224.358 239.307 223.983H240.391C240.41 224.346 240.555 224.635 240.824 224.85C241.098 225.061 241.457 225.166 241.902 225.166C242.312 225.166 242.641 225.084 242.887 224.92C243.137 224.752 243.262 224.53 243.262 224.252ZM245.781 225.366C245.781 225.178 245.836 225.022 245.945 224.897C246.059 224.772 246.227 224.709 246.449 224.709C246.672 224.709 246.84 224.772 246.953 224.897C247.07 225.022 247.129 225.178 247.129 225.366C247.129 225.545 247.07 225.696 246.953 225.817C246.84 225.938 246.672 225.998 246.449 225.998C246.227 225.998 246.059 225.938 245.945 225.817C245.836 225.696 245.781 225.545 245.781 225.366Z" fill="black"/>
<path d="M35.5 110.16L39.168 111.643V112.791L34.375 110.571V109.715L39.168 107.5V108.649L35.5 110.16ZM41.9629 108.362C42.4434 107.772 43.0684 107.477 43.8379 107.477C45.1777 107.477 45.8535 108.233 45.8652 109.744V113.934H44.7812V109.739C44.7773 109.282 44.6719 108.944 44.4648 108.725C44.2617 108.506 43.9434 108.397 43.5098 108.397C43.1582 108.397 42.8496 108.491 42.584 108.678C42.3184 108.866 42.1113 109.112 41.9629 109.416V113.934H40.8789V104.934H41.9629V108.362ZM50.1191 114.051C49.2598 114.051 48.5605 113.77 48.0215 113.207C47.4824 112.641 47.2129 111.885 47.2129 110.94V110.741C47.2129 110.112 47.332 109.551 47.5703 109.059C47.8125 108.563 48.1484 108.176 48.5781 107.899C49.0117 107.617 49.4805 107.477 49.9844 107.477C50.8086 107.477 51.4492 107.748 51.9062 108.291C52.3633 108.834 52.5918 109.612 52.5918 110.623V111.075H48.2969C48.3125 111.7 48.4941 112.205 48.8418 112.592C49.1934 112.975 49.6387 113.166 50.1777 113.166C50.5605 113.166 50.8848 113.088 51.1504 112.932C51.416 112.776 51.6484 112.569 51.8477 112.311L52.5098 112.826C51.9785 113.643 51.1816 114.051 50.1191 114.051ZM49.9844 108.367C49.5469 108.367 49.1797 108.528 48.8828 108.848C48.5859 109.164 48.4023 109.61 48.332 110.184H51.5078V110.102C51.4766 109.551 51.3281 109.125 51.0625 108.825C50.7969 108.52 50.4375 108.367 49.9844 108.367ZM57.7656 113.934C57.7031 113.809 57.6523 113.586 57.6133 113.266C57.1094 113.789 56.5078 114.051 55.8086 114.051C55.1836 114.051 54.6699 113.875 54.2676 113.524C53.8691 113.168 53.6699 112.719 53.6699 112.176C53.6699 111.516 53.9199 111.004 54.4199 110.641C54.9238 110.274 55.6309 110.09 56.541 110.09H57.5957V109.592C57.5957 109.213 57.4824 108.912 57.2559 108.69C57.0293 108.463 56.6953 108.35 56.2539 108.35C55.8672 108.35 55.543 108.448 55.2812 108.643C55.0195 108.838 54.8887 109.075 54.8887 109.352H53.7988C53.7988 109.035 53.9102 108.731 54.1328 108.438C54.3594 108.141 54.6641 107.907 55.0469 107.735C55.4336 107.563 55.8574 107.477 56.3184 107.477C57.0488 107.477 57.6211 107.66 58.0352 108.028C58.4492 108.391 58.6641 108.893 58.6797 109.534V112.451C58.6797 113.034 58.7539 113.496 58.9023 113.84V113.934H57.7656ZM55.9668 113.108C56.3066 113.108 56.6289 113.02 56.9336 112.844C57.2383 112.668 57.459 112.44 57.5957 112.159V110.858H56.7461C55.418 110.858 54.7539 111.246 54.7539 112.024C54.7539 112.364 54.8672 112.629 55.0938 112.821C55.3203 113.012 55.6113 113.108 55.9668 113.108ZM60.1152 110.711C60.1152 109.739 60.3457 108.957 60.8066 108.367C61.2676 107.774 61.8711 107.477 62.6172 107.477C63.3594 107.477 63.9473 107.731 64.3809 108.239V104.934H65.4648V113.934H64.4688L64.416 113.254C63.9824 113.785 63.3789 114.051 62.6055 114.051C61.8711 114.051 61.2715 113.75 60.8066 113.149C60.3457 112.547 60.1152 111.762 60.1152 110.793V110.711ZM61.1992 110.834C61.1992 111.553 61.3477 112.116 61.6445 112.522C61.9414 112.928 62.3516 113.131 62.875 113.131C63.5625 113.131 64.0645 112.823 64.3809 112.205V109.293C64.0566 108.696 63.5586 108.397 62.8867 108.397C62.3555 108.397 61.9414 108.602 61.6445 109.012C61.3477 109.422 61.1992 110.03 61.1992 110.834ZM70.9902 110.125L67.1172 108.608V107.494L72.1211 109.709V110.565L67.1172 112.785V111.66L70.9902 110.125ZM50.3828 124.16L54.0508 125.643V126.791L49.2578 124.571V123.715L54.0508 121.5V122.649L50.3828 124.16ZM57.2324 120.059V121.594H58.416V122.432H57.2324V126.364C57.2324 126.617 57.2852 126.809 57.3906 126.938C57.4961 127.063 57.6758 127.125 57.9297 127.125C58.0547 127.125 58.2266 127.102 58.4453 127.055V127.934C58.1602 128.012 57.8828 128.051 57.6133 128.051C57.1289 128.051 56.7637 127.905 56.5176 127.612C56.2715 127.319 56.1484 126.903 56.1484 126.364V122.432H54.9941V121.594H56.1484V120.059H57.2324ZM60.8652 127.934H59.7812V121.594H60.8652V127.934ZM59.6934 119.912C59.6934 119.737 59.7461 119.588 59.8516 119.467C59.9609 119.346 60.1211 119.285 60.332 119.285C60.543 119.285 60.7031 119.346 60.8125 119.467C60.9219 119.588 60.9766 119.737 60.9766 119.912C60.9766 120.088 60.9219 120.235 60.8125 120.352C60.7031 120.469 60.543 120.528 60.332 120.528C60.1211 120.528 59.9609 120.469 59.8516 120.352C59.7461 120.235 59.6934 120.088 59.6934 119.912ZM64.0762 120.059V121.594H65.2598V122.432H64.0762V126.364C64.0762 126.617 64.1289 126.809 64.2344 126.938C64.3398 127.063 64.5195 127.125 64.7734 127.125C64.8984 127.125 65.0703 127.102 65.2891 127.055V127.934C65.0039 128.012 64.7266 128.051 64.457 128.051C63.9727 128.051 63.6074 127.905 63.3613 127.612C63.1152 127.319 62.9922 126.903 62.9922 126.364V122.432H61.8379V121.594H62.9922V120.059H64.0762ZM67.709 127.934H66.625V118.934H67.709V127.934ZM72.0801 128.051C71.2207 128.051 70.5215 127.77 69.9824 127.207C69.4434 126.641 69.1738 125.885 69.1738 124.94V124.741C69.1738 124.112 69.293 123.551 69.5312 123.059C69.7734 122.563 70.1094 122.176 70.5391 121.899C70.9727 121.617 71.4414 121.477 71.9453 121.477C72.7695 121.477 73.4102 121.748 73.8672 122.291C74.3242 122.834 74.5527 123.612 74.5527 124.623V125.075H70.2578C70.2734 125.7 70.4551 126.205 70.8027 126.592C71.1543 126.975 71.5996 127.166 72.1387 127.166C72.5215 127.166 72.8457 127.088 73.1113 126.932C73.377 126.776 73.6094 126.569 73.8086 126.311L74.4707 126.826C73.9395 127.643 73.1426 128.051 72.0801 128.051ZM71.9453 122.367C71.5078 122.367 71.1406 122.528 70.8438 122.848C70.5469 123.164 70.3633 123.61 70.293 124.184H73.4688V124.102C73.4375 123.551 73.2891 123.125 73.0234 122.825C72.7578 122.52 72.3984 122.367 71.9453 122.367ZM79.6504 124.125L75.7773 122.608V121.494L80.7812 123.709V124.565L75.7773 126.785V125.66L79.6504 124.125ZM53.3594 152.16L57.0273 153.643V154.791L52.2344 152.571V151.715L57.0273 149.5V150.649L53.3594 152.16ZM58.9551 156.666H58.0234L61.5859 147.403H62.5117L58.9551 156.666ZM65.1543 148.059V149.594H66.3379V150.432H65.1543V154.364C65.1543 154.617 65.207 154.809 65.3125 154.938C65.418 155.063 65.5977 155.125 65.8516 155.125C65.9766 155.125 66.1484 155.102 66.3672 155.055V155.934C66.082 156.012 65.8047 156.051 65.5352 156.051C65.0508 156.051 64.6855 155.905 64.4395 155.612C64.1934 155.319 64.0703 154.903 64.0703 154.364V150.432H62.916V149.594H64.0703V148.059H65.1543ZM68.7871 155.934H67.7031V149.594H68.7871V155.934ZM67.6152 147.912C67.6152 147.737 67.668 147.588 67.7734 147.467C67.8828 147.346 68.043 147.285 68.2539 147.285C68.4648 147.285 68.625 147.346 68.7344 147.467C68.8438 147.588 68.8984 147.737 68.8984 147.912C68.8984 148.088 68.8438 148.235 68.7344 148.352C68.625 148.469 68.4648 148.528 68.2539 148.528C68.043 148.528 67.8828 148.469 67.7734 148.352C67.668 148.235 67.6152 148.088 67.6152 147.912ZM71.998 148.059V149.594H73.1816V150.432H71.998V154.364C71.998 154.617 72.0508 154.809 72.1562 154.938C72.2617 155.063 72.4414 155.125 72.6953 155.125C72.8203 155.125 72.9922 155.102 73.2109 155.055V155.934C72.9258 156.012 72.6484 156.051 72.3789 156.051C71.8945 156.051 71.5293 155.905 71.2832 155.612C71.0371 155.319 70.9141 154.903 70.9141 154.364V150.432H69.7598V149.594H70.9141V148.059H71.998ZM75.6309 155.934H74.5469V146.934H75.6309V155.934ZM80.002 156.051C79.1426 156.051 78.4434 155.77 77.9043 155.207C77.3652 154.641 77.0957 153.885 77.0957 152.94V152.741C77.0957 152.112 77.2148 151.551 77.4531 151.059C77.6953 150.563 78.0312 150.176 78.4609 149.899C78.8945 149.617 79.3633 149.477 79.8672 149.477C80.6914 149.477 81.332 149.748 81.7891 150.291C82.2461 150.834 82.4746 151.612 82.4746 152.623V153.075H78.1797C78.1953 153.7 78.377 154.205 78.7246 154.592C79.0762 154.975 79.5215 155.166 80.0605 155.166C80.4434 155.166 80.7676 155.088 81.0332 154.932C81.2988 154.776 81.5312 154.569 81.7305 154.311L82.3926 154.826C81.8613 155.643 81.0645 156.051 80.002 156.051ZM79.8672 150.367C79.4297 150.367 79.0625 150.528 78.7656 150.848C78.4688 151.164 78.2852 151.61 78.2148 152.184H81.3906V152.102C81.3594 151.551 81.2109 151.125 80.9453 150.825C80.6797 150.52 80.3203 150.367 79.8672 150.367ZM87.5723 152.125L83.6992 150.608V149.494L88.7031 151.709V152.565L83.6992 154.785V153.66L87.5723 152.125ZM35.5 166.16L39.168 167.643V168.791L34.375 166.571V165.715L39.168 163.5V164.649L35.5 166.16ZM41.0957 170.666H40.1641L43.7266 161.403H44.6523L41.0957 170.666ZM46.9082 164.362C47.3887 163.772 48.0137 163.477 48.7832 163.477C50.123 163.477 50.7988 164.233 50.8105 165.744V169.934H49.7266V165.739C49.7227 165.282 49.6172 164.944 49.4102 164.725C49.207 164.506 48.8887 164.397 48.4551 164.397C48.1035 164.397 47.7949 164.491 47.5293 164.678C47.2637 164.866 47.0566 165.112 46.9082 165.416V169.934H45.8242V160.934H46.9082V164.362ZM55.0645 170.051C54.2051 170.051 53.5059 169.77 52.9668 169.207C52.4277 168.641 52.1582 167.885 52.1582 166.94V166.741C52.1582 166.112 52.2773 165.551 52.5156 165.059C52.7578 164.563 53.0938 164.176 53.5234 163.899C53.957 163.617 54.4258 163.477 54.9297 163.477C55.7539 163.477 56.3945 163.748 56.8516 164.291C57.3086 164.834 57.5371 165.612 57.5371 166.623V167.075H53.2422C53.2578 167.7 53.4395 168.205 53.7871 168.592C54.1387 168.975 54.584 169.166 55.123 169.166C55.5059 169.166 55.8301 169.088 56.0957 168.932C56.3613 168.776 56.5938 168.569 56.793 168.311L57.4551 168.826C56.9238 169.643 56.127 170.051 55.0645 170.051ZM54.9297 164.367C54.4922 164.367 54.125 164.528 53.8281 164.848C53.5312 165.164 53.3477 165.61 53.2773 166.184H56.4531V166.102C56.4219 165.551 56.2734 165.125 56.0078 164.825C55.7422 164.52 55.3828 164.367 54.9297 164.367ZM62.7109 169.934C62.6484 169.809 62.5977 169.586 62.5586 169.266C62.0547 169.789 61.4531 170.051 60.7539 170.051C60.1289 170.051 59.6152 169.875 59.2129 169.524C58.8145 169.168 58.6152 168.719 58.6152 168.176C58.6152 167.516 58.8652 167.004 59.3652 166.641C59.8691 166.274 60.5762 166.09 61.4863 166.09H62.541V165.592C62.541 165.213 62.4277 164.912 62.2012 164.69C61.9746 164.463 61.6406 164.35 61.1992 164.35C60.8125 164.35 60.4883 164.448 60.2266 164.643C59.9648 164.838 59.834 165.075 59.834 165.352H58.7441C58.7441 165.035 58.8555 164.731 59.0781 164.438C59.3047 164.141 59.6094 163.907 59.9922 163.735C60.3789 163.563 60.8027 163.477 61.2637 163.477C61.9941 163.477 62.5664 163.66 62.9805 164.028C63.3945 164.391 63.6094 164.893 63.625 165.534V168.451C63.625 169.034 63.6992 169.496 63.8477 169.84V169.934H62.7109ZM60.9121 169.108C61.252 169.108 61.5742 169.02 61.8789 168.844C62.1836 168.668 62.4043 168.44 62.541 168.159V166.858H61.6914C60.3633 166.858 59.6992 167.246 59.6992 168.024C59.6992 168.364 59.8125 168.629 60.0391 168.821C60.2656 169.012 60.5566 169.108 60.9121 169.108ZM65.0605 166.711C65.0605 165.739 65.291 164.957 65.752 164.367C66.2129 163.774 66.8164 163.477 67.5625 163.477C68.3047 163.477 68.8926 163.731 69.3262 164.239V160.934H70.4102V169.934H69.4141L69.3613 169.254C68.9277 169.785 68.3242 170.051 67.5508 170.051C66.8164 170.051 66.2168 169.75 65.752 169.149C65.291 168.547 65.0605 167.762 65.0605 166.793V166.711ZM66.1445 166.834C66.1445 167.553 66.293 168.116 66.5898 168.522C66.8867 168.928 67.2969 169.131 67.8203 169.131C68.5078 169.131 69.0098 168.823 69.3262 168.205V165.293C69.002 164.696 68.5039 164.397 67.832 164.397C67.3008 164.397 66.8867 164.602 66.5898 165.012C66.293 165.422 66.1445 166.03 66.1445 166.834ZM75.9355 166.125L72.0625 164.608V163.494L77.0664 165.709V166.565L72.0625 168.785V167.66L75.9355 166.125ZM35.5 194.16L39.168 195.643V196.791L34.375 194.571V193.715L39.168 191.5V192.649L35.5 194.16ZM46.2461 194.834C46.2461 195.803 46.0234 196.582 45.5781 197.172C45.1328 197.758 44.5352 198.051 43.7852 198.051C42.9844 198.051 42.3652 197.768 41.9277 197.201L41.875 197.934H40.8789V188.934H41.9629V192.291C42.4004 191.748 43.0039 191.477 43.7734 191.477C44.543 191.477 45.1465 191.768 45.584 192.35C46.0254 192.932 46.2461 193.729 46.2461 194.741V194.834ZM45.1621 194.711C45.1621 193.973 45.0195 193.403 44.7344 193C44.4492 192.598 44.0391 192.397 43.5039 192.397C42.7891 192.397 42.2754 192.729 41.9629 193.393V196.135C42.2949 196.799 42.8125 197.131 43.5156 197.131C44.0352 197.131 44.4395 196.93 44.7285 196.528C45.0176 196.125 45.1621 195.52 45.1621 194.711ZM47.3301 194.705C47.3301 194.084 47.4512 193.526 47.6934 193.03C47.9395 192.534 48.2793 192.151 48.7129 191.881C49.1504 191.612 49.6484 191.477 50.207 191.477C51.0703 191.477 51.7676 191.776 52.2988 192.373C52.834 192.971 53.1016 193.766 53.1016 194.758V194.834C53.1016 195.451 52.9824 196.006 52.7441 196.498C52.5098 196.987 52.1719 197.367 51.7305 197.641C51.293 197.914 50.7891 198.051 50.2188 198.051C49.3594 198.051 48.6621 197.752 48.127 197.155C47.5957 196.557 47.3301 195.766 47.3301 194.782V194.705ZM48.4199 194.834C48.4199 195.537 48.582 196.102 48.9062 196.528C49.2344 196.953 49.6719 197.166 50.2188 197.166C50.7695 197.166 51.207 196.951 51.5312 196.522C51.8555 196.088 52.0176 195.483 52.0176 194.705C52.0176 194.01 51.8516 193.448 51.5195 193.018C51.1914 192.584 50.7539 192.367 50.207 192.367C49.6719 192.367 49.2402 192.58 48.9121 193.006C48.584 193.432 48.4199 194.041 48.4199 194.834ZM54.1973 194.711C54.1973 193.739 54.4277 192.957 54.8887 192.367C55.3496 191.774 55.9531 191.477 56.6992 191.477C57.4414 191.477 58.0293 191.731 58.4629 192.239V188.934H59.5469V197.934H58.5508L58.498 197.254C58.0645 197.785 57.4609 198.051 56.6875 198.051C55.9531 198.051 55.3535 197.75 54.8887 197.149C54.4277 196.547 54.1973 195.762 54.1973 194.793V194.711ZM55.2812 194.834C55.2812 195.553 55.4297 196.116 55.7266 196.522C56.0234 196.928 56.4336 197.131 56.957 197.131C57.6445 197.131 58.1465 196.823 58.4629 196.205V193.293C58.1387 192.696 57.6406 192.397 56.9688 192.397C56.4375 192.397 56.0234 192.602 55.7266 193.012C55.4297 193.422 55.2812 194.03 55.2812 194.834ZM63.3086 196.346L64.7852 191.594H65.9453L63.3965 198.912C63.002 199.967 62.375 200.494 61.5156 200.494L61.3105 200.477L60.9062 200.401V199.522L61.1992 199.545C61.5664 199.545 61.8516 199.471 62.0547 199.323C62.2617 199.174 62.4316 198.903 62.5645 198.508L62.8047 197.864L60.543 191.594H61.7266L63.3086 196.346ZM70.7559 194.125L66.8828 192.608V191.494L71.8867 193.709V194.565L66.8828 196.785V195.66L70.7559 194.125ZM35.5 250.16L39.168 251.643V252.791L34.375 250.571V249.715L39.168 247.5V248.649L35.5 250.16ZM41.0957 254.666H40.1641L43.7266 245.403H44.6523L41.0957 254.666ZM51.1914 250.834C51.1914 251.803 50.9688 252.582 50.5234 253.172C50.0781 253.758 49.4805 254.051 48.7305 254.051C47.9297 254.051 47.3105 253.768 46.873 253.201L46.8203 253.934H45.8242V244.934H46.9082V248.291C47.3457 247.748 47.9492 247.477 48.7188 247.477C49.4883 247.477 50.0918 247.768 50.5293 248.35C50.9707 248.932 51.1914 249.729 51.1914 250.741V250.834ZM50.1074 250.711C50.1074 249.973 49.9648 249.403 49.6797 249C49.3945 248.598 48.9844 248.397 48.4492 248.397C47.7344 248.397 47.2207 248.729 46.9082 249.393V252.135C47.2402 252.799 47.7578 253.131 48.4609 253.131C48.9805 253.131 49.3848 252.93 49.6738 252.528C49.9629 252.125 50.1074 251.52 50.1074 250.711ZM52.2754 250.705C52.2754 250.084 52.3965 249.526 52.6387 249.03C52.8848 248.534 53.2246 248.151 53.6582 247.881C54.0957 247.612 54.5938 247.477 55.1523 247.477C56.0156 247.477 56.7129 247.776 57.2441 248.373C57.7793 248.971 58.0469 249.766 58.0469 250.758V250.834C58.0469 251.451 57.9277 252.006 57.6895 252.498C57.4551 252.987 57.1172 253.367 56.6758 253.641C56.2383 253.914 55.7344 254.051 55.1641 254.051C54.3047 254.051 53.6074 253.752 53.0723 253.155C52.541 252.557 52.2754 251.766 52.2754 250.782V250.705ZM53.3652 250.834C53.3652 251.537 53.5273 252.102 53.8516 252.528C54.1797 252.953 54.6172 253.166 55.1641 253.166C55.7148 253.166 56.1523 252.951 56.4766 252.522C56.8008 252.088 56.9629 251.483 56.9629 250.705C56.9629 250.01 56.7969 249.448 56.4648 249.018C56.1367 248.584 55.6992 248.367 55.1523 248.367C54.6172 248.367 54.1855 248.58 53.8574 249.006C53.5293 249.432 53.3652 250.041 53.3652 250.834ZM59.1426 250.711C59.1426 249.739 59.373 248.957 59.834 248.367C60.2949 247.774 60.8984 247.477 61.6445 247.477C62.3867 247.477 62.9746 247.731 63.4082 248.239V244.934H64.4922V253.934H63.4961L63.4434 253.254C63.0098 253.785 62.4062 254.051 61.6328 254.051C60.8984 254.051 60.2988 253.75 59.834 253.149C59.373 252.547 59.1426 251.762 59.1426 250.793V250.711ZM60.2266 250.834C60.2266 251.553 60.375 252.116 60.6719 252.522C60.9688 252.928 61.3789 253.131 61.9023 253.131C62.5898 253.131 63.0918 252.823 63.4082 252.205V249.293C63.084 248.696 62.5859 248.397 61.9141 248.397C61.3828 248.397 60.9688 248.602 60.6719 249.012C60.375 249.422 60.2266 250.03 60.2266 250.834ZM68.2539 252.346L69.7305 247.594H70.8906L68.3418 254.912C67.9473 255.967 67.3203 256.494 66.4609 256.494L66.2559 256.477L65.8516 256.401V255.522L66.1445 255.545C66.5117 255.545 66.7969 255.471 67 255.323C67.207 255.174 67.377 254.903 67.5098 254.508L67.75 253.864L65.4883 247.594H66.6719L68.2539 252.346ZM75.7012 250.125L71.8281 248.608V247.494L76.832 249.709V250.565L71.8281 252.785V251.66L75.7012 250.125Z" fill="#706EE4"/>
<path d="M47.4062 208.16L51.0742 209.643V210.791L46.2812 208.571V207.715L51.0742 205.5V206.649L47.4062 208.16ZM53.8691 206.362C54.3496 205.772 54.9746 205.477 55.7441 205.477C57.084 205.477 57.7598 206.233 57.7715 207.744V211.934H56.6875V207.739C56.6836 207.282 56.5781 206.944 56.3711 206.725C56.168 206.506 55.8496 206.397 55.416 206.397C55.0645 206.397 54.7559 206.491 54.4902 206.678C54.2246 206.866 54.0176 207.112 53.8691 207.416V211.934H52.7852V202.934H53.8691V206.362ZM62.8457 211.934H61.7559V204.709L59.5703 205.512V204.528L62.6758 203.362H62.8457V211.934ZM69.9707 208.125L66.0977 206.608V205.494L71.1016 207.709V208.565L66.0977 210.785V209.66L69.9707 208.125Z" fill="#409B55"/>
<path d="M47.4062 236.16L51.0742 237.643V238.791L46.2812 236.571V235.715L51.0742 233.5V234.649L47.4062 236.16ZM53.002 240.666H52.0703L55.6328 231.403H56.5586L53.002 240.666ZM58.8145 234.362C59.2949 233.772 59.9199 233.477 60.6895 233.477C62.0293 233.477 62.7051 234.233 62.7168 235.744V239.934H61.6328V235.739C61.6289 235.282 61.5234 234.944 61.3164 234.725C61.1133 234.506 60.7949 234.397 60.3613 234.397C60.0098 234.397 59.7012 234.491 59.4355 234.678C59.1699 234.866 58.9629 235.112 58.8145 235.416V239.934H57.7305V230.934H58.8145V234.362ZM67.791 239.934H66.7012V232.709L64.5156 233.512V232.528L67.6211 231.362H67.791V239.934ZM74.916 236.125L71.043 234.608V233.494L76.0469 235.709V236.565L71.043 238.785V237.66L74.916 236.125Z" fill="#408550"/>
<path d="M433.5 302.032L430 278.63C408.5 298.547 400.847 306.206 387 291.078L391 310.497L432 309.501L433.5 302.032Z" fill="#E4C7AC" stroke="#DCB897"/>
<path d="M361 222.862C362.241 197.127 370.555 177.8 406.5 183.526C402.778 182.817 420 185.518 424.5 186.016C429 186.514 420 212.406 432.5 232.821C445 253.236 434.109 257.677 432.5 272.655C429.481 279.135 425.601 283.082 415.5 290.58C404.389 299.891 398.148 300.061 387 292.074C377.894 284.984 372.818 279.335 364 255.227C364.194 242.839 364.726 235.971 361 222.862Z" fill="url(#paint0_linear)" fill-opacity="0.69" stroke="black"/>
<path d="M389 238.071C394.021 235.544 398.327 235.898 402 238.071" stroke="black"/>
<path d="M531 473.817C531 473.817 530.468 424.277 531 410.082C520.508 408.103 509.973 408.912 488.5 414.563L485.5 418.049C491.135 434.707 496.794 450.342 499 462.364C495.536 469.831 469.539 462.618 451.5 467.344C446.96 468.533 440 470.829 440 470.829L444.5 499.709L451.5 495.725H457L471 499.709C482.325 501.631 485.5 503.692 496 503.692C508.6 502.294 514.757 501.717 525.5 496.721C529.5 492.24 531 487.974 531 473.817Z" fill="#DBB399"/>
<path d="M499 462.364C495.536 469.831 469.539 462.618 451.5 467.344C446.96 468.533 440 470.829 440 470.829L444.5 499.709L451.5 495.725H457L471 499.709C482.325 501.631 485.5 503.692 496 503.692C508.6 502.294 514.757 501.717 525.5 496.721C529.5 492.24 531 487.974 531 473.817C531 473.817 530.468 424.277 531 410.082C520.508 408.103 509.973 408.912 488.5 414.563L485.5 418.049C491.135 434.707 496.794 450.342 499 462.364ZM499 462.364C502.464 454.898 487.133 465.062 499 462.364Z" stroke="#C2A387"/>
<path d="M403.5 226.846C403.345 226.062 403.568 225.625 405 224.854" stroke="#503834"/>
<path d="M403 301.036C393 299.045 385 295.061 385 295.061L389 310.995L365.5 323.941C353.15 342.759 347.752 354.076 346 378.215L350 397.136L354.5 409.584L425.5 412.074V473.319C425.5 473.319 475 467.343 480 466.846C485 466.348 489.5 467.343 494 465.85C498.5 464.356 499.5 464.587 499.5 461.368C499.5 455.891 496.12 448.951 495 445.435C491.033 432.982 487 423.526 489 421.534C491 419.543 492.5 419.543 492.5 419.543L538 412.074C538 412.074 538 409.086 535.75 404.605C533.5 400.124 507.341 373.564 506.5 373.236C506.5 373.236 481 343.858 480 342.364C479 340.87 468 323.941 468 323.941C468 323.941 447.725 320.757 442 310.995C438.774 305.495 438.5 295.061 438.5 295.061C438.5 295.061 428.5 300.041 425.5 301.036C422.5 302.032 413 303.028 403 301.036Z" fill="url(#paint1_linear)" stroke="#3A5646" stroke-opacity="0.92"/>
<path d="M489 418.547L484.8 404.735L482 385.684L484.8 410.45" stroke="#14251B"/>
<path d="M370 238.796C369.966 240.977 377.382 243.967 383 238.796C376.728 239.659 374.935 239.597 370 238.796Z" fill="url(#paint2_linear)" stroke="#3F2727"/>
<path d="M407 238.298C407 239.792 416 243.277 421.286 238.298C414.789 239.212 411.806 239.068 407 238.298Z" fill="url(#paint3_linear)" stroke="#3F2727"/>
<path d="M389.833 262.696C386.333 262.696 388.5 255.725 388.5 255.725C389.805 251.21 391.909 250.217 396.333 249.252C400.318 248.894 401.166 252.648 402.833 254.729C404.5 256.81 405.5 260.705 402.833 261.7C400.166 262.696 398.833 264.19 396.333 264.19C393.833 264.19 393.333 262.696 389.833 262.696Z" fill="url(#paint4_linear)" stroke="url(#paint5_linear)"/>
<path d="M409.5 223.36C407.352 223.749 405.5 223.858 403.5 225.85C402 226.529 405 227.842 405 227.842C405 227.842 407.5 227.344 413 226.348C418.5 225.352 419.744 226.024 423 226.348L427 227.842L426.5 226.348L425 224.356L422 223.36C416.904 223.057 414.144 222.205 409.5 223.36Z" fill="#3F2727" stroke="#76584B" stroke-opacity="0.67"/>
<path d="M385.5 273.5C385.689 273.731 385.878 273.955 386.066 274.172C391.161 278.137 420.199 269.231 414 272C407.607 274.856 397.297 287.09 386.066 274.172C385.819 273.979 385.628 273.756 385.5 273.5Z" fill="#3F2727"/>
<path d="M385.5 273.5C396.95 287.503 407.5 274.904 414 272C420.5 269.096 388.257 279.03 385.5 273.5Z" stroke="#503834"/>
<path d="M388 274.918C398.978 280.542 399.556 277.813 414 272" stroke="#503834"/>
<path d="M371.5 222.862C367.267 224.375 365.964 225.392 364.5 227.344L364 228.837L368.5 226.846C370.559 226.296 371.531 226.204 373 226.348L376.5 226.846L385 228.837V227.344L381.5 225.352C378.642 224.129 376.4 223.597 371.5 222.862Z" fill="#3F2727" stroke="#3F2727" stroke-opacity="0.67"/>
<path d="M421.168 189.59C395.509 173.35 366.001 195.996 363 216.887C359.999 237.778 364.5 249.252 366.5 253.734C368.5 258.215 390.183 293.94 378 315.984C378 315.984 364.131 339.276 356 353.817C347.869 368.357 348.959 379.559 351.5 396.14C354.041 412.722 294.5 414.065 294.5 414.065L301.5 370.248C306.805 344.304 318.688 325.196 327.013 309.304C335.337 293.413 340.555 276.038 351.5 219.875C362.5 180.041 375 158.63 410.5 156.638C430.257 158.888 448.5 177.551 448.5 177.551C467.182 200.478 485.298 234.686 498.5 297.551C516 330.414 533.5 346.348 538.5 359.792C543.5 373.236 545.246 391.905 543.5 401.617L540.5 414.065C540.5 414.065 527.86 396.466 508 376.721C489.148 359.981 448.716 338.225 439.5 315.984C430.284 293.743 428.275 245.391 432 235.31C413.851 222.862 428 204.439 421.168 189.59Z" fill="url(#paint6_linear)"/>
<path d="M421.168 189.59C395.509 173.35 366.001 195.996 363 216.887C359.999 237.778 364.5 249.252 366.5 253.734C368.5 258.215 390.183 293.94 378 315.984C378 315.984 364.131 339.276 356 353.817C347.869 368.357 348.959 379.559 351.5 396.14C354.041 412.722 294.5 414.065 294.5 414.065L301.5 370.248C306.805 344.304 318.688 325.196 327.013 309.304C335.337 293.413 340.555 276.038 351.5 219.875C362.5 180.041 375 158.63 410.5 156.638C430.257 158.888 448.5 177.551 448.5 177.551C467.182 200.478 485.298 234.686 498.5 297.551C516 330.414 533.5 346.348 538.5 359.792C543.5 373.236 545.246 391.905 543.5 401.617L540.5 414.065C540.5 414.065 527.86 396.466 508 376.721C489.148 359.981 448.716 338.225 439.5 315.984C430.284 293.743 428.275 245.391 432 235.31M421.168 189.59C431.83 198.189 435.725 225.229 432 235.31M421.168 189.59C428 204.439 413.851 222.862 432 235.31" stroke="url(#paint7_linear)"/>
<path d="M246 511.659L221 398.63L431.5 401.119L439 458.879L446.5 502.696L457.5 495.725L472.5 500.207L446.5 516.638L246 511.659Z" fill="#302F34"/>
<path d="M446.5 516.638L246 511.659L221 398.63L431.5 401.119L439 458.879M446.5 516.638L472.5 500.207L457.5 495.725L446.5 502.696L439 458.879M446.5 516.638L439 458.879" stroke="black"/>
<path d="M426.5 243.253C426.5 249.788 420.927 255.126 414 255.126C407.073 255.126 401.5 249.788 401.5 243.253C401.5 236.718 407.073 231.379 414 231.379C420.927 231.379 426.5 236.718 426.5 243.253Z" stroke="black"/>
<path d="M389.5 244.284C389.5 250.819 383.927 256.158 377 256.158C370.073 256.158 364.5 250.819 364.5 244.284C364.5 237.749 370.073 232.411 377 232.411C383.927 232.411 389.5 237.749 389.5 244.284Z" stroke="black"/>
<path d="M426 241.191H429L430 237.066" stroke="black"/>
<defs>
<linearGradient id="paint0_linear" x1="398.282" y1="182.515" x2="398.282" y2="297.829" gradientUnits="userSpaceOnUse">
<stop stop-color="#E19854"/>
<stop offset="1" stop-color="#E3B080" stop-opacity="0.79"/>
</linearGradient>
<linearGradient id="paint1_linear" x1="442.25" y1="295.061" x2="442.25" y2="469.335" gradientUnits="userSpaceOnUse">
<stop offset="0.015625" stop-color="#558368"/>
<stop offset="0.723958" stop-color="#0E1D14"/>
</linearGradient>
<linearGradient id="paint2_linear" x1="397.286" y1="237.396" x2="397.286" y2="242.799" gradientUnits="userSpaceOnUse">
<stop offset="0.9999" stop-color="#3F2727"/>
<stop offset="1" stop-color="#3A1515" stop-opacity="0.48"/>
</linearGradient>
<linearGradient id="paint3_linear" x1="434.286" y1="236.804" x2="434.286" y2="242.571" gradientUnits="userSpaceOnUse">
<stop offset="0.9999" stop-color="#3F2727"/>
<stop offset="1" stop-color="#3A1515" stop-opacity="0.48"/>
</linearGradient>
<linearGradient id="paint4_linear" x1="396.333" y1="249.252" x2="396.333" y2="262.696" gradientUnits="userSpaceOnUse">
<stop offset="0.598958" stop-color="#ECC2A0"/>
<stop offset="1" stop-color="#E3B68D"/>
</linearGradient>
<linearGradient id="paint5_linear" x1="396.333" y1="249.252" x2="396.333" y2="262.696" gradientUnits="userSpaceOnUse">
<stop offset="0.640625" stop-color="#ECC29F"/>
<stop offset="1" stop-color="#3F2727" stop-opacity="0.6"/>
</linearGradient>
<linearGradient id="paint6_linear" x1="420.75" y1="156.638" x2="420.75" y2="400.621" gradientUnits="userSpaceOnUse">
<stop stop-color="#472813"/>
<stop offset="1" stop-color="#895633"/>
</linearGradient>
<linearGradient id="paint7_linear" x1="420.75" y1="156.638" x2="420.75" y2="400.621" gradientUnits="userSpaceOnUse">
<stop stop-color="#3F2727"/>
<stop offset="1" stop-color="#763232" stop-opacity="0"/>
</linearGradient>
</defs>
</svg>
