<?xml version="1.0"?>
<svg xmlns="http://www.w3.org/2000/svg" id="Layer_35" enable-background="new 0 0 64 64" height="512px" viewBox="0 0 64 64" width="512px"><g><path d="m43.937 11.428c-.242-.812-.567-1.596-.972-2.343l1.115-1.803-4.363-4.364-1.803 1.116c-.746-.403-1.53-.729-2.344-.972l-.484-2.062h-6.172l-.485 2.062c-.813.243-1.598.568-2.344.972l-1.803-1.116-4.363 4.364 1.115 1.803c-.404.747-.729 1.531-.972 2.343l-2.062.487v6.223l2.063.486c.163.54.377 1.068.617 1.588 2.772.684 4.889 3.013 5.257 5.896l.148-.091c.746.404 1.531.729 2.344.972l.485 2.062h6.172l.485-2.062c.813-.243 1.598-.568 2.344-.972l.148.091c.368-2.883 2.485-5.212 5.257-5.897.239-.52.454-1.048.617-1.589l2.063-.486v-6.222zm-11.937 10.572c-3.866 0-7-3.134-7-7s3.134-7 7-7 7 3.134 7 7-3.134 7-7 7z" fill="#f0bc5e" data-original="#F0BC5E" class="active-path" style="fill:#6D737E" data-old_color="#f0bc5e"/><path d="m32 23c4.411 0 8-3.589 8-8s-3.589-8-8-8-8 3.589-8 8 3.589 8 8 8zm0-14c3.309 0 6 2.691 6 6s-2.691 6-6 6-6-2.691-6-6 2.691-6 6-6z" data-original="#000000" class="" style="fill:#8E9DB5" data-old_color="#000000"/><path d="m59 47c0-6.199-4.053-11.462-9.646-13.298 2.191-1.428 3.646-3.897 3.646-6.702 0-4.411-3.589-8-8-8s-8 3.589-8 8c0 2.805 1.454 5.272 3.644 6.701-.689.225-1.362.502-2.01.833-1.439-2.13-3.876-3.534-6.634-3.534s-5.194 1.403-6.633 3.533c-.648-.331-1.321-.606-2.011-.832 2.19-1.429 3.644-3.897 3.644-6.701 0-4.411-3.589-8-8-8s-8 3.589-8 8c0 2.805 1.455 5.274 3.646 6.702-5.593 1.836-9.646 7.099-9.646 13.298v4h15.527c-1.588 2.27-2.527 5.026-2.527 8v4h28v-4c0-2.974-.939-5.73-2.527-8h15.527zm-12-11c0 1.626-.916 3-2 3s-2-1.374-2-3c0-.284.04-.565.1-.844.626-.1 1.26-.156 1.9-.156.649 0 1.282.066 1.903.166.058.276.097.554.097.834zm-8-9c0-3.309 2.691-6 6-6s6 2.691 6 6-2.691 6-6 6-6-2.691-6-6zm-7 6c3.309 0 6 2.691 6 6s-2.691 6-6 6-6-2.691-6-6 2.691-6 6-6zm-8 6c0 .399.039.789.096 1.173l-1.332 2.931-2.424-3.029 3.876-3.876c.085.041.171.079.255.122-.299.839-.471 1.738-.471 2.679zm-11-12c0-3.309 2.691-6 6-6s6 2.691 6 6-2.691 6-6 6-6-2.691-6-6zm9.161 8.425-3.161 3.161-3.152-3.152c1.006-.275 2.06-.434 3.152-.434 1.075 0 2.137.146 3.161.425zm-4.501 4.649-2.424 3.029-2.792-6.142c.43-.282.882-.53 1.348-.756zm-10.66 6.926c0-3.458 1.479-6.57 3.828-8.762l3.936 8.659 4.236-5.296 4.236 5.296 1.803-3.967c.635 1.12 1.531 2.072 2.606 2.773-2.06.676-3.909 1.815-5.425 3.298h-10.22v-6h-2v6h-3zm25 0c1.738 0 3.386.379 4.879 1.047l-4.879 11.408-4.879-11.409c1.493-.667 3.141-1.046 4.879-1.046zm-12 12c0-4.162 2.131-7.833 5.358-9.986l5.126 11.986h-5.484v-6h-2v6h-3zm24 2h-3v-6h-2v6h-5.484l5.126-11.986c3.227 2.153 5.358 5.824 5.358 9.986zm13-12h-3v-6h-2v6h-10.221c-1.516-1.483-3.366-2.622-5.425-3.298 2.191-1.428 3.646-3.897 3.646-6.702 0-.94-.172-1.839-.471-2.678.485-.249.986-.465 1.499-.644-.006.107-.028.214-.028.322 0 2.757 1.794 5 4 5s4-2.243 4-5c0-.104-.021-.206-.027-.31 4.667 1.645 8.027 6.087 8.027 11.31z" data-original="#000000" class="" style="fill:#8E9DB5" data-old_color="#000000"/><path d="m32 19c2.206 0 4-1.794 4-4s-1.794-4-4-4-4 1.794-4 4 1.794 4 4 4zm0-6c1.103 0 2 .897 2 2s-.897 2-2 2-2-.897-2-2 .897-2 2-2z" data-original="#000000" class="" style="fill:#8E9DB5" data-old_color="#000000"/></g> </svg>
